<?xml version="1.0" standalone="no"?>
<!DOCTYPE svg PUBLIC "-//W3C//DTD SVG 1.1//EN" "http://www.w3.org/Graphics/SVG/1.1/DTD/svg11.dtd" >
<svg xmlns="http://www.w3.org/2000/svg">
<metadata></metadata>
<defs>
<font id="alegreya_scbold" horiz-adv-x="398" >
<font-face units-per-em="1000" ascent="800" descent="-200" />
<missing-glyph horiz-adv-x="174" />
<glyph unicode=" "  horiz-adv-x="174" />
<glyph unicode="&#x09;" horiz-adv-x="174" />
<glyph unicode="&#xa0;" horiz-adv-x="174" />
<glyph unicode="!" horiz-adv-x="285" d="M124 -11q-36 0 -55 20.5t-19 55.5q0 36 22 59t59 23q35 0 54.5 -20.5t19.5 -54.5q0 -37 -22 -60t-59 -23zM93 236l-21 430l12 17l134 22l16 -18l-62 -453l-64 -11z" />
<glyph unicode="&#x22;" horiz-adv-x="321" d="M143 654l8 -10q-15 -110 -38 -216l-48 -20l-15 4q1 51 -0.5 108t-3.5 88l-3 32zM288 654l8 -10q-15 -110 -38 -216l-48 -20l-15 4q1 51 -0.5 108t-4.5 88l-2 32z" />
<glyph unicode="#" horiz-adv-x="526" d="M49 351l-6 11l15 70l99 -1l27 139l73 7l11 -6l-31 -140h47l47 -1l27 140l73 7l11 -6l-31 -140l97 2l5 -12l-14 -70h-104l-5 -28l-13 -65l97 1l5 -12l-14 -69h-102l-26 -134l-71 -11l-10 8l28 137l-56 1l-38 -1l-26 -134l-71 -11l-10 8l28 137l-96 -1l-6 12l15 69l101 -1 l10 52l9 42h-95zM216 323l-13 -66h44l52 -1l10 53l8 43h-95z" />
<glyph unicode="$" horiz-adv-x="466" d="M154 -159l-6 7l15 144q-32 2 -62.5 9.5t-44.5 13.5l-14 6l-8 12q13 71 15 131l77 6q0 -56 19 -77.5t67 -21.5q36 0 57 14t21 37q0 8 -3 15.5t-11 14.5t-13.5 12t-20 12t-21.5 10.5t-25.5 11.5t-25.5 11q-62 28 -96 59.5t-34 82.5q0 61 49 103t130 53l16 142l69 9l6 -9 l-15 -140q31 -1 61 -6t44 -9l14 -5l7 -12q-15 -64 -21 -134l-70 -6l-8 6q1 11 1 22q0 32 -18 46.5t-57 14.5q-32 0 -52.5 -13.5t-20.5 -35.5q0 -13 7.5 -24t27 -22.5t31.5 -17t42 -18.5q32 -14 52.5 -24.5t44.5 -28.5t36 -41t12 -52q0 -64 -51 -105.5t-139 -49.5l-16 -145z " />
<glyph unicode="%" horiz-adv-x="713" d="M172 408q82 0 82 66q0 35 -24 56t-69 21q-80 0 -80 -65q0 -39 25.5 -58.5t65.5 -19.5zM160 309q-67 0 -104.5 44.5t-37.5 120.5q0 81 43 130.5t115 49.5q69 0 105 -44.5t36 -117.5q0 -81 -42 -132t-115 -51zM562 88q81 0 81 65q0 35 -24 56.5t-69 21.5q-39 0 -59.5 -17.5 t-20.5 -48.5q0 -39 25.5 -58t66.5 -19zM550 -12q-67 0 -104.5 44.5t-37.5 121.5q0 81 43 130t115 49q68 0 104.5 -44.5t36.5 -117.5q0 -81 -42 -132t-115 -51zM607 653l7 -19q-176 -267 -266 -407l-202 -320l-65 27l-5 14q121 180 207 316l262 414z" />
<glyph unicode="&#x26;" horiz-adv-x="650" d="M639 208l-71 7q-25 -99 -104 -163t-176 -64q-117 0 -187.5 71.5t-70.5 188.5q0 91 56.5 158t133.5 67q40 0 65.5 -20.5t25.5 -52.5l-5 -23l5 -3q68 64 100.5 122.5t36.5 129.5l10 10h34q48 -78 48 -103q0 -16 -27 -51q-57 -88 -140 -160t-226 -155q50 -89 164 -89 q72 0 116.5 38t53.5 107l-36 4q-9 0 -23 -9.5t-23 -19.5l-9 -10h-6l-34 39v4l73 80l15 5q19 0 95 -9.5t91 -9.5q10 0 26 10t27 20l11 10h7l31 -38l1 -5l-71 -80zM116 275q0 -29 6 -56q63 39 85 62.5t22 52.5q0 41 -38 41q-33 0 -54 -28t-21 -72z" />
<glyph unicode="'" horiz-adv-x="176" d="M143 654l8 -10q-15 -110 -38 -216l-48 -20l-15 4q1 51 -0.5 108t-3.5 88l-3 32z" />
<glyph unicode="(" horiz-adv-x="309" d="M70 163v173q0 69 18.5 126.5t44.5 90.5t52 56t45 31l18 9h11l31 -46l-1 -6q-4 -2 -11.5 -7t-26.5 -24.5t-33 -44.5t-26 -70.5t-12 -99.5v-173q0 -59 11.5 -108.5t28.5 -78.5t34 -50t28 -29l12 -8v-8l-41 -42h-8q-7 3 -19 9t-42 30.5t-53 56t-42 88.5t-19 125z" />
<glyph unicode=")" horiz-adv-x="309" d="M239 340v-173q0 -69 -18.5 -126.5t-44.5 -90.5t-52 -56t-44 -32l-19 -8h-11l-31 46l1 6q4 2 11.5 7t26.5 24.5t33 44.5t26 70.5t12 99.5v173q0 59 -11.5 108.5t-28.5 78.5t-34 50t-29 29l-11 8v8l41 42h8q7 -3 19 -9t42 -30.5t53 -56t42 -88.5t19 -125z" />
<glyph unicode="*" horiz-adv-x="412" d="M62 673q50 -26 103 -66l-8 -41l-7 -6l-109 30q0 45 12 80zM62 469q40 39 95 77l36 -20l3 -8l-61 -95q-43 14 -73 36v10zM256 406q-25 50 -44 114l30 29h10l70 -88q-26 -37 -56 -58zM376 571q-6 -1 -17.5 -2t-43.5 -3t-61 -2l-18 37l3 10l105 40q27 -37 38 -72zM257 736 q-11 -55 -32 -118l-42 -5l-7 4l-6 113q44 14 80 14z" />
<glyph unicode="+" horiz-adv-x="506" d="M292 497l13 -7q-5 -106 -6 -184l183 6l7 -12l-10 -92l-180 -1l1 -168l-88 -15l-11 8q0 93 1 175l-178 -1l-7 11l14 90q90 -1 171 -1l1 180z" />
<glyph unicode="," horiz-adv-x="238" d="M45 94l3 14q45 34 79 34q30 0 48.5 -24t18.5 -65q0 -52 -44 -104t-109 -89l-37 30v17q32 22 52 53t20 61q0 40 -31 73z" />
<glyph unicode="-" horiz-adv-x="324" d="M280 313l9 -13l-8 -80l-237 -26l-9 12l7 78l164 19z" />
<glyph unicode="." horiz-adv-x="238" d="M116 -11q-37 0 -56 20.5t-19 55.5q0 36 22 59t59 23q35 0 55 -20.5t20 -54.5q0 -37 -22 -60t-59 -23z" />
<glyph unicode="/" horiz-adv-x="329" d="M306 675l13 -15q-79 -283 -122 -445l-83 -325h-85l-9 11q51 173 90 325l115 449h81z" />
<glyph unicode="0" horiz-adv-x="501" d="M239 -12q-99 0 -156 66.5t-57 182.5q0 123 65.5 198t172.5 75q98 0 154.5 -66t56.5 -181q0 -124 -65 -199.5t-171 -75.5zM255 119q66 0 102.5 32t36.5 89q0 62 -40 98t-110 36q-64 0 -100.5 -32.5t-36.5 -90.5q0 -60 40 -96t108 -36z" />
<glyph unicode="1" horiz-adv-x="365" d="M256 402q-10 -113 -10 -270q0 -37 9.5 -52t34.5 -15l49 3l2 -5l-11 -67q-93 4 -143 4q-28 0 -67 -3t-64 -5l-25 -3l8 63q51 5 70 24t19 68v215q0 35 -11 46t-40 11l-50 -5l-6 7l6 57q52 5 121 15q43 6 76.5 11t46.5 7l13 2l10 -30q-32 -26 -38 -78z" />
<glyph unicode="2" horiz-adv-x="484" d="M23 -9l-8 33l75 83q80 92 114 146.5t34 89.5q0 61 -62 61q-29 0 -59.5 -20.5t-52.5 -56.5h-14l-17 74q39 51 90.5 80t104.5 29q70 0 113 -35.5t43 -93.5q0 -47 -38 -103.5t-149 -176.5l4 -8h96q47 0 66.5 18.5t29.5 72.5l76 7q-21 -107 -28 -188l-14 -12q-246 9 -340 9z " />
<glyph unicode="3" horiz-adv-x="431" d="M11 2l14 14q38 -13 85 -13q63 0 104.5 27t41.5 68t-36 60.5t-112 19.5l-9 10l-7 62l65 14q34 15 54.5 41.5t20.5 54.5q0 24 -17.5 39t-43.5 15q-53 0 -110 -49q-2 0 -6 -0.5t-6 -0.5l-21 71q30 23 85.5 49t100.5 26q67 0 107.5 -32t40.5 -85q0 -41 -30 -78t-80 -58v-8 q139 -37 139 -132q0 -79 -95 -148t-204 -69q-42 0 -59.5 23t-21.5 79z" />
<glyph unicode="4" horiz-adv-x="468" d="M2 73l3 67l265 368q1 0 4 1l2 1l84 -11v-342h82l8 -11l-9 -83q-32 1 -80 3l6 -145l-8 -9l-115 -12l-8 10q4 87 6 159q-158 4 -240 4zM232 335l-125 -178h135v178h-10z" />
<glyph unicode="5" horiz-adv-x="427" d="M383 130q0 -87 -96.5 -158.5t-205.5 -71.5q-40 0 -58 22.5t-22 79.5l13 14q39 -13 86 -13q65 0 108 27t43 69q0 39 -42 61.5t-147 37.5l-9 11l20 270l8 8l193 7q29 2 42 10t21 30l55 4l-26 -147l-13 -13q-91 8 -199 8l-8 -89q120 -24 178.5 -62t58.5 -105z" />
<glyph unicode="6" horiz-adv-x="464" d="M405 538q-7 -2 -18.5 -7t-43 -23t-58.5 -40t-57.5 -59t-47.5 -79l5 -6q3 1 19.5 9.5t35.5 17t30 10.5q78 0 123.5 -49.5t45.5 -120.5q0 -89 -59.5 -146t-157.5 -57q-88 0 -141 60t-53 156q0 62 19 117t49.5 93.5t67.5 71t74.5 52.5t68 34.5t49.5 19.5l19 6l10 -5z M232 273q-41 0 -80 -28q-2 -28 -2 -42q0 -63 23.5 -98.5t66.5 -35.5q38 0 59 25t21 72t-24 77t-64 30z" />
<glyph unicode="7" horiz-adv-x="427" d="M201 -100h-17l-91 27l-11 25l224 442l-134 -8q-47 -4 -62.5 -20t-24.5 -68l-60 -6q14 114 19 205l6 5q60 -4 122 -4h217l39 -48q-109 -226 -196 -437z" />
<glyph unicode="8" horiz-adv-x="479" d="M38 130q0 98 112 148q-99 62 -99 151q0 69 57.5 119t143.5 50q71 0 122 -39t51 -101q0 -88 -90 -135q48 -28 76 -63t28 -86q0 -79 -61.5 -132.5t-153.5 -53.5q-79 0 -132.5 39t-53.5 103zM241 62q36 0 59.5 22t23.5 56q0 32 -27 53.5t-80 47.5q-9 4 -13 6 q-57 -35 -57 -91q0 -39 26.5 -66.5t67.5 -27.5zM168 453q0 -23 17 -42t34.5 -29t55.5 -29q39 33 39 82q0 40 -21 62t-55 22q-31 0 -50.5 -19t-19.5 -47z" />
<glyph unicode="9" horiz-adv-x="464" d="M59 -40q7 2 18 7t42.5 23t59 39.5t57.5 58.5t47 79l-4 7q-2 -1 -19.5 -10t-36.5 -17.5t-30 -9.5q-78 0 -123.5 49t-45.5 121q0 89 60 146t157 57q88 0 141.5 -60t53.5 -156q0 -62 -19 -117t-49.5 -93.5t-68 -71.5t-74.5 -53t-67.5 -34t-49.5 -20l-19 -6l-10 6zM231 225 q38 0 80 27q3 21 3 43q0 62 -24 98t-66 36q-38 0 -59 -25t-21 -72q0 -48 23.5 -77.5t63.5 -29.5z" />
<glyph unicode=":" horiz-adv-x="238" d="M114 -11q-37 0 -56 20.5t-19 55.5q0 36 22 59t59 23q35 0 55 -20.5t20 -54.5q0 -37 -22 -60t-59 -23zM114 262q-37 0 -56 20.5t-19 55.5q0 36 22 59t59 23q35 0 55 -20.5t20 -54.5q0 -37 -22 -60t-59 -23z" />
<glyph unicode=";" horiz-adv-x="238" d="M45 94l3 14q45 34 79 34q30 0 48.5 -24t18.5 -65q0 -52 -44 -104t-109 -89l-37 30v17q32 22 52 53t20 61q0 40 -31 73zM114 262q-37 0 -56 20.5t-19 55.5q0 36 22 59t59 23q35 0 55 -20.5t20 -54.5q0 -37 -22 -60t-59 -23z" />
<glyph unicode="&#x3c;" horiz-adv-x="470" d="M36 213l-8 13l1 97l191 82l177 76l13 -8l20 -76q-102 -38 -180 -71l-123 -50v-7l136 -60l164 -72l4 -15l-42 -65q-87 39 -164 74z" />
<glyph unicode="=" horiz-adv-x="506" d="M482 224l7 -12l-10 -92l-227 -1l-228 -1l-7 11l14 90q145 -1 234 -1zM482 402l7 -12l-10 -92l-227 -1l-228 -1l-7 11l14 90q145 -1 234 -1z" />
<glyph unicode="&#x3e;" horiz-adv-x="470" d="M434 325l8 -13l-1 -98l-191 -82l-177 -75l-13 7l-20 77q102 37 180 70l123 50v7l-136 60l-164 72l-4 16l42 65q87 -40 164 -75z" />
<glyph unicode="?" horiz-adv-x="370" d="M101 221l-24 126l3 14l108 63q52 32 52 72q0 94 -183 104l-8 14l37 84l15 7q110 -3 184.5 -52.5t74.5 -121.5q0 -31 -9 -55t-31 -46.5t-44 -39t-63 -44.5l-18 -12l-3 -7l15 -83l-6 -11l-88 -18zM152 -11q-36 0 -55.5 20.5t-19.5 55.5q0 36 22.5 59t59.5 23 q35 0 54.5 -20.5t19.5 -54.5q0 -37 -22 -60t-59 -23z" />
<glyph unicode="@" horiz-adv-x="863" d="M493 -12q-21 0 -32.5 11t-11.5 30q0 31 34 164l-8 1q-83 -151 -161 -206q-55 0 -85 39t-30 107q0 122 77.5 227t163.5 105l87 -18l7 22l12 7l80 -14l8 -17q-53 -204 -77 -362l6 -6q88 0 138.5 59.5t50.5 156.5q0 126 -80.5 197t-218.5 71q-149 0 -244.5 -103.5 t-95.5 -253.5q0 -163 96.5 -260.5t283.5 -102.5q0 -2 -0.5 -8t-0.5 -8l-31 -50q-205 4 -321 115t-116 288q0 90 35.5 174.5t95.5 148t145.5 102t180.5 38.5q162 0 260 -88t98 -228q0 -147 -92.5 -242.5t-253.5 -95.5zM346 105q21 0 67 75.5t85 177.5q-51 29 -88 29 q-32 0 -59 -62t-27 -136q0 -35 6 -59.5t16 -24.5z" />
<glyph unicode="A" horiz-adv-x="625" d="M552 132q11 -36 28 -51t50 -18l4 -7l-7 -59q-79 3 -123 3q-38 0 -80.5 -2t-65.5 -4l-23 -2l-6 8l5 60q49 4 63 11t14 26q0 10 -5 33l-20 76q-26 1 -91 1q-39 0 -95 -7l-25 -75q-6 -21 -6 -31q0 -17 10 -23.5t36 -6.5h43l4 -7l-7 -63q-82 6 -146 6l-121 -3l8 67 q24 4 38.5 18.5t26.5 47.5l178 507l159 16l11 -5q90 -347 143 -516zM296 510l-72 -224h70q32 0 74 4l-58 220h-14z" />
<glyph unicode="B" horiz-adv-x="629" d="M183 0q-25 0 -62 -2.5t-61 -5.5l-24 -2l8 68q43 8 58 24t15 55l1 390q0 28 -7 39t-26 11l-34 -2l-6 8l9 61q104 -2 139 -2l153 5q104 0 158 -39.5t54 -115.5q0 -97 -107 -153q64 -17 102.5 -54t38.5 -95q0 -91 -71.5 -145.5t-189.5 -54.5q-16 0 -71.5 5t-76.5 5zM343 281 l-92 -1l-4 -145q0 -32 21.5 -45.5t72.5 -13.5q49 0 76 26.5t27 73.5q0 82 -101 105zM253 369q76 -9 95 -9q3 1 7.5 3t16.5 10.5t21 19.5t16.5 30.5t7.5 42.5q0 98 -138 98q-10 0 -13.5 -4t-4.5 -14q-6 -79 -8 -177z" />
<glyph unicode="C" horiz-adv-x="617" d="M325 -12q-138 0 -217.5 84.5t-79.5 231.5q0 160 95 255t255 95q37 0 85 -6t77 -12l29 -7l6 -13q-20 -83 -26 -189l-99 -7q2 27 2 53q0 43 -26.5 63.5t-82.5 20.5q-159 0 -159 -219q0 -122 44 -189t122 -67q54 0 84 32.5t42 105.5l99 7q-17 -104 -20 -187l-10 -12 q-96 -40 -220 -40z" />
<glyph unicode="D" horiz-adv-x="693" d="M318 -12q-94 12 -151 12q-24 0 -56 -2.5t-53 -5.5l-20 -2l7 68q43 8 57.5 25.5t14.5 59.5l1 379q0 32 -6.5 43t-25.5 11l-33 -2l-6 9l8 62q89 -3 128 -3l159 5q152 0 237.5 -79.5t85.5 -220.5q0 -158 -97 -258.5t-250 -100.5zM289 560q-16 0 -22 -5t-7 -19 q-13 -273 -13 -390q0 -43 16.5 -57t66.5 -14q178 0 178 241q0 127 -53.5 185.5t-165.5 58.5z" />
<glyph unicode="E" horiz-adv-x="597" d="M247 139q0 -40 10.5 -50t53.5 -10q49 0 75 3.5t44 16.5t24.5 33.5t12.5 60.5l85 7l7 -10q-18 -90 -28 -186l-9 -11q-188 7 -312 7q-40 0 -83.5 -2.5t-66.5 -5.5l-24 -2l8 68q41 6 56.5 24.5t15.5 61.5l1 379q0 33 -6.5 43.5t-26.5 10.5l-30 -2l-7 9l8 61q110 -3 185 -3 q213 0 304 12l8 -11q-18 -89 -23 -182l-92 -6q2 26 2 40q0 41 -21 52t-105 11q-35 0 -43.5 -5.5t-9.5 -27.5l-7 -155q9 0 43 -0.5t50 -0.5l116 8l8 -9l-14 -86q-80 3 -130 3q-25 0 -76 -6q-3 -110 -3 -140z" />
<glyph unicode="F" horiz-adv-x="532" d="M247 142q0 -38 8.5 -51t34.5 -13l65 5l9 -10l-11 -77q-105 4 -156 4q-33 0 -73.5 -3t-63.5 -5l-24 -3l8 68q42 8 57 26t15 61l1 379q0 33 -6.5 43.5t-26.5 10.5l-30 -2l-7 9l8 61q110 -3 185 -3q194 0 281 12l7 -11q-15 -91 -20 -183l-91 -6q2 28 2 41q0 41 -18.5 52 t-87.5 11q-35 0 -43.5 -5.5t-9.5 -27.5l-7 -172l93 -1l105 8l8 -9l-14 -86q-74 3 -119 3q-36 0 -76 -7z" />
<glyph unicode="G" horiz-adv-x="654" d="M598 332l7 -39q-26 -17 -33.5 -48t-7.5 -117q0 -60 7 -87l-9 -13q-10 -4 -29.5 -11t-81 -18t-125.5 -11q-138 0 -218 84.5t-80 231.5q0 163 95 256.5t261 93.5q39 0 88.5 -6t79.5 -12l30 -7l7 -13q-20 -80 -26 -184l-99 -6q3 25 3 54q0 42 -24.5 59.5t-82.5 17.5 q-90 0 -133.5 -54t-43.5 -165q0 -123 44 -189.5t124 -66.5q26 0 50 6.5t35 13.5l11 6v93q0 29 -8.5 38.5t-35.5 9.5h-51l-6 8l11 72q8 0 58 -1t81 -1q102 0 102 5z" />
<glyph unicode="H" horiz-adv-x="747" d="M641 528q-12 -230 -12 -395q0 -39 9 -53t33 -14l36 3l5 -8l-9 -64q-83 3 -146 3l-139 -2l8 66q42 1 57 19.5t15 72.5v127q-72 1 -108 1l-140 -10l-2 -141q0 -41 7.5 -54.5t30.5 -13.5l36 3l5 -7l-9 -64q-84 3 -122 3q-29 0 -67 -1.5t-65 -4t-27 -3.5l7 65q44 9 58 25.5 t14 58.5l1 385q0 31 -7 41.5t-29 10.5l-31 -1l-5 8l8 59q79 -1 119 -1l151 7l-5 -67q-38 -6 -48 -18.5t-12 -52.5l-6 -143l128 -2q62 0 118 7v152q0 31 -7 41.5t-29 10.5l-31 -1l-5 8l8 59q85 -1 128 -1l147 7l-6 -66q-37 -5 -48.5 -15.5t-13.5 -39.5z" />
<glyph unicode="I" horiz-adv-x="365" d="M260 528q-12 -207 -12 -395q0 -41 7.5 -54.5t30.5 -13.5l43 3l5 -7l-9 -64q-104 3 -149 3q-25 0 -60 -2t-58 -4l-22 -3l7 65q44 9 58.5 26t14.5 58l1 385q0 31 -7 41.5t-29 10.5l-35 -1l-5 8l7 59q10 0 61.5 -0.5t78.5 -0.5l142 7l-6 -67q-38 -5 -50 -15.5t-14 -38.5z " />
<glyph unicode="J" horiz-adv-x="333" d="M107 123v402q0 32 -6.5 42t-28.5 10l-41 -3l-6 8l8 60h124l151 8l-6 -68q-32 -6 -41 -15.5t-11 -38.5q-12 -218 -12 -427q-1 -99 -48.5 -160t-151.5 -95l-28 41l2 11q57 41 76 86.5t19 138.5z" />
<glyph unicode="K" horiz-adv-x="659" d="M116 140l1 385q0 31 -7 41.5t-29 10.5l-31 -1l-5 8l8 60q106 -2 135 -2l138 7l-6 -67q-37 -8 -49.5 -19t-13.5 -39l-9 -391q-1 -41 6.5 -54.5t31.5 -13.5l39 3l4 -7l-9 -64q-101 3 -144 3l-139 -3l9 64q43 7 56.5 22t13.5 57zM267 316l3 22l147 160q26 26 26 49 q0 28 -53 31l-3 7l8 62q84 -5 125 -5l117 4l7 -11l-8 -57q-31 -13 -59.5 -37.5t-71.5 -76.5l-103 -116l132 -202q30 -45 55.5 -65t58.5 -22l6 -9l-8 -53q-99 -12 -117 -12q-59 0 -111 84z" />
<glyph unicode="L" horiz-adv-x="531" d="M213 0q-40 0 -82.5 -2.5t-65.5 -5.5l-23 -2l7 68q38 6 52.5 24.5t14.5 61.5v381q0 31 -7 41.5t-29 10.5l-30 -1l-5 8l7 59q10 0 60 -0.5t76 -0.5l155 7l-8 -71q-49 -6 -61.5 -19t-14.5 -54q-11 -148 -11 -366q0 -38 11.5 -49t50.5 -11q71 0 94.5 27.5t33.5 124.5l85 9 l7 -10q-17 -109 -27 -227l-9 -11q-163 8 -281 8z" />
<glyph unicode="M" horiz-adv-x="841" d="M441 -7l-73 -9q-85 272 -153 461h-8q-20 -323 -20 -347q0 -33 32 -33l33 2l6 -6l-11 -65q-86 4 -119 4l-101 -8l7 67q30 4 43.5 19.5t16.5 52.5q5 36 22.5 208.5t17.5 191.5q0 27 -14.5 36t-60.5 14l-5 6l9 60q90 -5 127 -5l109 4q27 -99 58 -202t49 -156l17 -53h8 q64 189 131 408q2 0 57.5 -1.5t65.5 0.5l101 6l4 -4l-6 -62q-43 -3 -58 -14t-15 -39q0 -91 24 -372q5 -54 15 -72.5t33 -18.5l29 2l4 -6l-9 -65q-61 3 -102 3q-23 0 -82 -3t-64 -5l8 68q29 3 42 14.5t13 34.5l-20 336h-9q-85 -236 -152 -452z" />
<glyph unicode="N" horiz-adv-x="729" d="M520 235h10l-2 299q-1 43 -33 43q-8 0 -20.5 -0.5t-13.5 -0.5l-4 8l7 62q85 -4 129 -4l118 5l-5 -67q-33 -5 -47.5 -19t-15.5 -44l-13 -531l-106 -13q-69 110 -141.5 221t-110.5 167l-39 56h-10l-1 -308q0 -25 7.5 -35t26.5 -10l43 3l6 -7l-10 -64q-86 4 -129 4 q-24 0 -55 -2t-49 -4l-19 -2l8 67q58 7 59 63l13 395q0 32 -16 44.5t-65 17.5l-8 10l7 58q67 -5 116 -5l96 4q58 -94 124.5 -197t104.5 -159z" />
<glyph unicode="O" horiz-adv-x="674" d="M340 75q71 0 110.5 55.5t39.5 157.5q0 132 -42 200.5t-120 68.5q-69 0 -107 -55.5t-38 -157.5q0 -131 41 -200t116 -69zM315 -12q-133 0 -210 85t-77 231q0 158 90 254t238 96q136 0 213 -83t77 -230q0 -159 -91 -256t-240 -97z" />
<glyph unicode="P" horiz-adv-x="577" d="M45 583l8 60q9 0 55.5 -0.5t70.5 -0.5l152 5q67 0 116 -16t75.5 -44t38.5 -61t12 -72q0 -90 -72 -158.5t-167 -68.5h-85l-1 -74q0 -56 8 -72t38 -16l44 3l4 -6l-10 -65q-88 3 -126 3q-23 0 -64 -2t-71.5 -3.5t-31.5 -2.5l8 68q41 7 55 24t14 59l1 380q0 32 -6.5 43 t-25.5 11l-35 -2zM251 316l88 -12q91 19 91 136q0 63 -35 92t-112 29q-14 0 -17.5 -2.5t-4.5 -15.5q-6 -88 -10 -227z" />
<glyph unicode="Q" horiz-adv-x="679" d="M315 -12q-133 0 -210 85t-77 231q0 158 90 254t238 96q136 0 213 -83t77 -230q0 -114 -55 -201.5t-147 -124.5v-9q161 -112 268 -112q20 0 41.5 2.5t32.5 5.5l11 2l8 -7l11 -42q-106 -83 -134 -83q-67 0 -134 39.5t-233 176.5zM340 75q71 0 110.5 55.5t39.5 157.5 q0 132 -42 200.5t-120 68.5q-69 0 -107 -55.5t-38 -157.5q0 -131 41 -200t116 -69z" />
<glyph unicode="R" horiz-adv-x="643" d="M319 251h-70l-1 -110q0 -50 11.5 -63t59.5 -14l4 -6l-10 -62q0 3 -134 3l-143 -5l9 67q42 6 56.5 22.5t14.5 59.5l1 385q0 29 -6.5 39t-25.5 10l-35 -2l-5 8l8 61q87 -2 126 -2l153 5q115 0 176 -44.5t61 -127.5q0 -121 -134 -191l87 -140q28 -46 54 -66.5t57 -20.5l7 -9 l-7 -53l-119 -11q-66 0 -109 93zM252 341l90 -10q85 36 85 125q0 108 -149 108q-10 0 -13.5 -4t-4.5 -18q-6 -102 -8 -201z" />
<glyph unicode="S" horiz-adv-x="540" d="M220 -12q-47 0 -91 9.5t-65 18.5l-20 10l-8 14q15 88 16 170l84 7q0 -82 23 -111t87 -29q47 0 75.5 21t28.5 56q0 11 -3.5 21.5t-13.5 20.5t-17 16.5t-25 16.5t-26 14t-32 15.5t-31 15.5q-74 36 -116 76t-42 104q0 88 75 144t192 56q44 0 87 -7t64 -13l21 -7l7 -13 q-17 -81 -24 -172l-76 -6l-9 7q1 16 1 35q0 44 -22.5 62.5t-74.5 18.5q-41 0 -68 -20t-27 -51q0 -18 9.5 -33.5t31.5 -30.5t39 -23.5t51 -24.5q42 -20 65 -33t53.5 -36.5t45 -52t14.5 -64.5q0 -92 -76 -147t-203 -55z" />
<glyph unicode="T" horiz-adv-x="569" d="M216 165v398q-43 -1 -64 -4.5t-35 -20t-18 -37t-10 -68.5l-84 -6q9 117 11 215l11 11l101 -11h311l103 11l11 -11l10 -209l-84 -6q-11 93 -28.5 113.5t-92.5 22.5q-11 -163 -11 -428q0 -37 12.5 -52.5t42.5 -15.5l53 3l4 -5l-9 -69q-122 4 -174 4l-168 -6l8 66 q66 6 83 23.5t17 81.5z" />
<glyph unicode="U" horiz-adv-x="655" d="M219 236q0 -75 32 -116t92 -41q122 0 122 130l-4 314q-1 33 -7 43.5t-25 10.5l-33 -2l-2 4l8 66q79 -3 117 -3l119 6l-6 -67q-37 -8 -47.5 -17t-10.5 -33v-311q0 -113 -66.5 -172.5t-191.5 -59.5q-232 0 -232 216v319q0 33 -6 43.5t-26 10.5l-32 -2l-2 4l9 66 q86 -3 143 -3l119 6l-7 -68q-31 -4 -42.5 -15t-13.5 -38z" />
<glyph unicode="V" horiz-adv-x="625" d="M72 515q-9 31 -26.5 45.5t-48.5 16.5l-4 7l7 60q83 -2 126 -2q33 0 75.5 2t68.5 4l26 2l6 -8l-5 -61q-50 -4 -63.5 -11t-13.5 -27q0 -16 23 -119t45 -198l23 -95h15q23 59 74.5 226.5t51.5 189.5q0 17 -11.5 24t-39.5 7h-39l-5 7l7 62q84 -5 148 -5l116 2l-7 -66 q-24 -4 -34 -13.5t-20 -38.5l-184 -521l-165 -20q-89 343 -146 530z" />
<glyph unicode="W" horiz-adv-x="964" d="M731 5l-159 -20q-16 92 -86 357h-10l-104 -337l-161 -20q-85 343 -141 530q-9 31 -26 45.5t-46 16.5l-4 7l7 60q80 -2 122 -2q36 0 77 2t64 4l23 2l5 -8l-5 -61q-48 -5 -61.5 -11.5t-13.5 -25.5q0 -18 22 -121t44 -197l23 -95h13q32 86 110 360q-2 20 -8 42 q-5 24 -21 33.5t-52 10.5l-5 7l8 60q91 -2 137 -2q33 0 74 2t65 4l24 2l5 -8l-5 -61q-49 -5 -62 -11t-13 -27q0 -16 22.5 -119t44.5 -198l22 -95h13q22 60 72.5 228.5t50.5 190.5q0 16 -11 22t-39 6h-38l-5 7l8 62q82 -5 143 -5l112 2l-7 -66q-23 -4 -32.5 -13.5 t-19.5 -38.5z" />
<glyph unicode="X" horiz-adv-x="682" d="M158 200l99 131l-107 160q-27 40 -56 58t-72 26l-4 5l8 64q84 -2 159 -2l153 7l5 -9l-5 -58q-60 -3 -60 -30q0 -8 5.5 -20t21 -37t25.5 -40t37 -55q8 12 23.5 34t27 38t23 34.5t18 31t6.5 19.5q0 22 -49 25l-2 5l6 58q10 0 59 -1.5t73 -1.5l112 3l4 -7l-5 -61 q-45 -15 -71 -37t-61 -70l-108 -149l117 -169q30 -42 60.5 -62t71.5 -22l3 -4l-8 -66q-88 3 -130 3l-180 -8l-5 7l6 61q54 3 54 28q0 13 -15 36l-86 127l-66 -93q-35 -49 -35 -66q0 -27 49 -30l4 -7l-6 -62q-95 7 -130 7l-116 -5l-4 10l6 60q58 21 145 134z" />
<glyph unicode="Y" horiz-adv-x="598" d="M227 552q0 -10 18 -54t42 -97t25 -55h10l79 165q14 28 14 48t-51 23l-2 5l7 58q10 0 59.5 -2t73.5 -2l102 4l4 -7l-7 -61q-39 -13 -63 -39.5t-58 -88.5l-96 -179q-17 -33 -18 -123v-15q-1 -37 9 -51t38 -14l50 3l3 -5l-9 -69q-115 4 -165 4q-25 0 -64 -3t-66 -5l-26 -3 l7 69q57 7 73.5 25t16.5 69v30q0 47 -29 102l-98 191q-24 48 -46.5 69.5t-66.5 30.5l-3 5l8 64q89 -3 129 -3l160 8l5 -9l-5 -58q-34 -1 -47 -8t-13 -22z" />
<glyph unicode="Z" horiz-adv-x="580" d="M531 16l-17 -19l-395 6l-75 -8l-25 45l351 529l-127 -8q-64 -8 -87 -33t-28 -94l-85 -6q14 124 17 216l10 10l178 -11l293 -3l18 -41q-153 -203 -361 -526l156 11q50 4 77.5 40.5t39.5 113.5l85 7q-21 -131 -25 -229z" />
<glyph unicode="[" horiz-adv-x="317" d="M296 -132l-215 11q11 276 11 376l-11 379l218 11l4 -8l-7 -57l-104 -20v-607l107 -21l4 -9z" />
<glyph unicode="\" horiz-adv-x="329" d="M12 660l12 15h81l115 -449q17 -68 40 -149t37 -129l14 -47l-9 -11h-85q-42 160 -84 325z" />
<glyph unicode="]" horiz-adv-x="317" d="M21 645l215 -11q-11 -276 -11 -376l11 -379l-218 -11l-4 8l7 56l104 21v607l-107 20l-4 9z" />
<glyph unicode="^" horiz-adv-x="489" d="M286 482l13 -8q51 -121 82 -192l76 -164l-65 -42l-16 5q-39 87 -73 163l-60 137h-7l-50 -124l-70 -180l-77 20l-7 13q39 93 75 177l82 191z" />
<glyph unicode="_" horiz-adv-x="453" d="M455 -87l8 -14l-11 -77q-86 0 -250 -1t-202 -1l-9 14l11 76q14 0 103.5 -0.5t137.5 -0.5q44 0 130 2z" />
<glyph unicode="`" d="M66 651l-1 14l54 70l13 1q86 -90 168 -170l-30 -39l-15 -4q-41 31 -88.5 63t-74.5 48z" />
<glyph unicode="a" horiz-adv-x="544" d="M477 108q8 -27 21.5 -39t39.5 -14l3 -7l-6 -50q-66 2 -104 2l-145 -6l-5 6l4 54q41 4 51.5 8t10.5 19q0 6 -4 22l-14 50q-21 1 -72 1q-14 0 -45 -2l-30 -2l-18 -51q-4 -20 -4 -21q0 -13 7 -17.5t28 -4.5h31l6 -7l-7 -53q-70 4 -122 4l-102 -2l6 57q33 6 50 49l143 393 l153 13l10 -6q75 -280 114 -396zM258 390l-54 -163h53q23 0 57 2l-43 161h-13z" />
<glyph unicode="b" horiz-adv-x="544" d="M162 0l-128 -7l7 58q34 6 46 18.5t12 41.5l1 296q0 38 -25 38l-28 -1l-7 6l8 53q93 -2 121 -2l135 5q86 0 132 -31.5t46 -90.5q0 -46 -30 -78t-56 -41q37 -7 75 -36t38 -79q0 -74 -59.5 -116t-161.5 -42q-120 8 -126 8zM297 213h-73l-4 -102q0 -23 17 -32.5t57 -9.5 q38 0 58 18t20 52q0 59 -75 74zM226 292q58 -7 75 -7q6 2 14.5 7t22.5 24.5t14 45.5q0 68 -106 68q-13 0 -14 -13q-6 -60 -6 -125z" />
<glyph unicode="c" horiz-adv-x="524" d="M274 -9q-114 0 -179.5 66t-65.5 181q0 126 77.5 199t211.5 73q31 0 71.5 -5t65.5 -10l25 -5l6 -11q-17 -67 -23 -154l-92 -5q1 20 1 42q0 33 -19.5 48t-62.5 15q-117 0 -117 -160q0 -92 32 -140.5t91 -48.5q41 0 63.5 24t30.5 78l93 6q-13 -84 -15 -152l-9 -10 q-82 -31 -185 -31z" />
<glyph unicode="d" horiz-adv-x="587" d="M271 -9q-77 9 -126 9l-108 -8l5 60q34 5 46 19t12 46v285q0 25 -5 33.5t-19 8.5l-27 -2l-6 8l7 53q78 -2 110 -2l132 4q127 0 196.5 -61t69.5 -173q0 -125 -79.5 -202.5t-207.5 -77.5zM252 428q-12 0 -16.5 -4t-5.5 -16q-10 -188 -10 -290q0 -30 12 -40.5t47 -10.5 q135 0 135 179q0 97 -38.5 139.5t-123.5 42.5z" />
<glyph unicode="e" horiz-adv-x="512" d="M221 117q0 -31 8 -39t41 -8q70 0 91 15t30 72l78 6l7 -9q-15 -72 -22 -150l-10 -9q-150 5 -259 5q-34 0 -71.5 -2t-58.5 -4l-21 -2l7 59q33 4 45 18.5t12 49.5l1 284q0 25 -5 33.5t-20 8.5l-24 -1l-7 7l7 52q97 -2 162 -2q177 0 252 9l7 -9q-14 -73 -19 -146l-85 -6 q2 20 2 31q0 31 -17 39t-81 8q-27 0 -33.5 -4t-6.5 -20l-5 -111q7 0 34 -0.5t40 -0.5l94 7l8 -9l-12 -74q-65 2 -105 2q-3 0 -63 -4q-1 -24 -1 -96z" />
<glyph unicode="f" horiz-adv-x="461" d="M221 119q0 -30 6.5 -39.5t28.5 -9.5l52 5l8 -10l-9 -68q-89 3 -130 3q-30 0 -66 -2t-57 -4l-20 -2l7 59q34 5 45.5 19t11.5 49l1 284q0 25 -5 33.5t-20 8.5l-24 -1l-7 7l7 52q97 -2 162 -2q163 0 232 9l7 -9q-13 -75 -17 -147l-84 -5q1 21 1 31q0 30 -14.5 38.5 t-65.5 8.5q-27 0 -33.5 -4t-6.5 -20l-6 -124l75 -1l86 6l8 -8l-11 -74q-61 2 -98 2q-28 0 -63 -5z" />
<glyph unicode="g" horiz-adv-x="554" d="M505 265l6 -35q-23 -14 -29.5 -38t-6.5 -94q0 -40 5 -67l-8 -11q-73 -29 -195 -29q-116 0 -182 66t-66 181q0 129 78 200.5t217 71.5q33 0 74 -5t66 -10l25 -5l6 -11q-18 -64 -22 -147l-92 -6q2 19 2 42q0 31 -18 44t-61 13q-68 0 -100 -38.5t-32 -121.5q0 -93 32.5 -141 t93.5 -48q20 0 37.5 4t24.5 8l8 4v65q0 22 -7 29t-27 7h-38l-6 8l10 61q10 0 51.5 -0.5t65.5 -0.5z" />
<glyph unicode="h" horiz-adv-x="632" d="M543 406q-10 -133 -10 -297q0 -30 7 -41t27 -11l28 2l5 -7l-8 -54q-69 2 -125 2l-120 -1l7 56q33 1 45 15t12 53v93q-51 1 -78 1l-111 -8l-1 -100q0 -32 6 -42.5t25 -10.5l27 2l5 -6l-7 -54q-77 2 -109 2q-23 0 -55.5 -1.5t-54.5 -2.5t-23 -2l6 56q35 6 46.5 19t11.5 46 v289q0 25 -6 33t-23 8l-24 -1l-6 8l7 50q67 -1 101 -1l134 5l-5 -58q-30 -4 -38 -13t-10 -38l-5 -105l97 -2q55 0 90 5l1 109q0 25 -6 33t-24 8l-25 -1l-5 8l7 50q0 -1 112 -1l127 5l-5 -57q-30 -4 -39.5 -12t-10.5 -31z" />
<glyph unicode="i" horiz-adv-x="320" d="M230 406q-9 -157 -9 -297q0 -32 6 -42.5t25 -10.5l32 2l5 -6l-7 -54q-90 2 -127 2l-120 -6l6 56q35 7 46.5 19.5t11.5 45.5v289q0 25 -6 33t-23 8l-27 -1l-5 8l6 50q12 0 55 -0.5t65 -0.5l123 5l-5 -58q-31 -4 -40.5 -11.5t-11.5 -30.5z" />
<glyph unicode="j" horiz-adv-x="294" d="M91 98l1 306q0 25 -5.5 33t-22.5 8l-33 -2l-6 8l7 50h105l133 6l-5 -59q-26 -4 -33 -11.5t-9 -30.5q-10 -175 -10 -331q-1 -77 -42.5 -124t-131.5 -73l-25 33l2 10q45 34 60 69t15 108z" />
<glyph unicode="k" horiz-adv-x="568" d="M99 115v289q0 25 -6 33t-23 8l-24 -1l-6 8l7 50q95 -1 117 -1l120 5l-4 -58q-31 -6 -41 -14.5t-11 -29.5l-7 -295q-1 -32 5.5 -42.5t25.5 -10.5l30 2l4 -6l-7 -54q-88 2 -124 2l-120 -2l7 54q35 6 46 17.5t11 45.5zM235 246l3 19l114 119q20 18 20 37q0 23 -41 24l-3 7 l7 52q72 -3 106 -3l103 3l6 -9l-7 -49q-46 -20 -111 -97l-73 -76l101 -152q24 -35 43.5 -50.5t46.5 -18.5l7 -9l-7 -46q-88 -9 -104 -9q-51 0 -92 65z" />
<glyph unicode="l" horiz-adv-x="461" d="M187 0q-34 0 -71.5 -2t-57.5 -4l-21 -2l7 59q31 4 42.5 18.5t11.5 49.5l1 285q0 25 -6 33t-24 8l-23 -1l-6 8l6 50q12 0 54 -0.5t64 -0.5l138 5l-7 -62q-41 -4 -52 -13.5t-13 -37.5q-10 -133 -10 -280q0 -26 9.5 -34.5t37.5 -8.5q54 0 72.5 22.5t27.5 99.5l78 7l7 -9 q-13 -89 -21 -186l-10 -10q-132 6 -234 6z" />
<glyph unicode="m" horiz-adv-x="710" d="M377 -4l-70 -7q-79 247 -117 337h-9q-13 -226 -13 -244q0 -25 27 -25h26l5 -4l-9 -56q-76 3 -103 3l-86 -6l5 58q24 2 35.5 14.5t13.5 39.5q3 19 17.5 154t14.5 149q0 21 -10.5 27.5t-48.5 9.5l-5 6l8 53q77 -4 108 -4l100 3q19 -69 42 -143t36 -113l14 -40h8 q49 141 98 293q13 0 54.5 -0.5t59.5 0.5l82 5l4 -3l-6 -55q-35 -2 -46.5 -10.5t-11.5 -30.5q0 -78 19 -280q4 -40 12 -55t27 -15l24 1l4 -5l-7 -55q-51 2 -86 2q-88 0 -130 -6l7 58q24 3 34.5 11.5t10.5 27.5l-13 235h-8q-47 -110 -117 -330z" />
<glyph unicode="n" horiz-adv-x="622" d="M432 208h9l-3 203q-1 19 -7 26.5t-20 7.5h-27l-4 6l6 53q75 -3 114 -3q102 0 102 4l-4 -58q-28 -4 -39.5 -15t-12.5 -34l-11 -405l-103 -10q-53 79 -109 158t-85 119l-30 39h-9v-207q1 -21 7.5 -29t22.5 -8l33 2l6 -5l-9 -55q-76 3 -111 3l-108 -6l7 58q25 3 36 14t12 35 l11 296q0 25 -13 34.5t-53 14.5l-7 8l6 51q56 -4 102 -4l86 3q44 -68 95 -142t80 -114z" />
<glyph unicode="o" horiz-adv-x="570" d="M288 68q52 0 80.5 39t28.5 115q0 203 -119 203q-105 0 -105 -153q0 -204 115 -204zM269 -9q-113 0 -176.5 65.5t-63.5 182.5q0 125 73 198t198 73q115 0 178 -64t63 -181q0 -126 -74 -200t-198 -74z" />
<glyph unicode="p" horiz-adv-x="500" d="M40 450l7 52q11 0 49.5 -0.5t58.5 -0.5l131 4q112 0 158.5 -45t46.5 -109q0 -71 -60 -125t-139 -54h-71v-51q0 -39 7.5 -51.5t31.5 -12.5l35 1l3 -5l-8 -55q-80 2 -112 2q-11 0 -30 -0.5t-37.5 -1.5t-35.5 -2t-28 -2h-11l7 58q32 5 44 19t12 46v286q0 24 -5 33t-19 9 l-29 -1zM223 250l69 -9q68 15 68 100q0 46 -27 67t-85 21q-10 0 -13 -2.5t-4 -12.5q-5 -86 -8 -164z" />
<glyph unicode="q" horiz-adv-x="574" d="M269 -9q-113 0 -176.5 65.5t-63.5 182.5q0 125 73 198t198 73q115 0 178 -64t63 -181q0 -86 -42.5 -152t-114.5 -97v-8q122 -82 212 -82q16 0 34 2t28 4l9 2l8 -7l10 -39q-94 -70 -119 -70q-54 0 -107.5 31.5t-189.5 141.5zM288 68q52 0 80.5 39t28.5 115q0 203 -119 203 q-105 0 -105 -153q0 -204 115 -204z" />
<glyph unicode="r" horiz-adv-x="555" d="M277 190h-55l-1 -76q0 -38 9.5 -47.5t49.5 -10.5l3 -5l-8 -54q0 2 -116 2l-124 -5l7 59q33 5 45 18t12 46v291q0 22 -5 29.5t-19 7.5l-29 -1l-6 6l8 52q74 -1 107 -1l132 4q100 0 152 -35.5t52 -102.5q0 -94 -107 -148l66 -100q44 -68 89 -68l7 -9l-7 -46l-105 -8 q-58 0 -91 72zM224 269l71 -8q66 26 66 91q0 78 -116 78q-8 0 -11 -3.5t-3 -13.5q-5 -75 -7 -144z" />
<glyph unicode="s" horiz-adv-x="466" d="M191 -9q-40 0 -77 7.5t-54 15.5l-18 7l-8 12q13 71 15 131l77 6q0 -56 19 -77.5t67 -21.5q36 0 57 14t21 37q0 8 -3 15.5t-11 14.5t-13.5 12t-20 12t-21.5 10.5t-25.5 11.5t-25.5 11q-62 28 -96 59.5t-34 82.5q0 70 64 114.5t165 44.5q37 0 73.5 -5t53.5 -11l18 -5l7 -12 q-15 -64 -21 -134l-70 -6l-8 6q1 11 1 22q0 32 -18 46.5t-57 14.5q-32 0 -52.5 -13.5t-20.5 -35.5q0 -13 7.5 -24t27 -22.5t31.5 -17t42 -18.5q32 -14 52.5 -24.5t44.5 -28.5t36 -41t12 -52q0 -72 -64 -115t-173 -43z" />
<glyph unicode="t" horiz-adv-x="492" d="M184 129v301q-55 -1 -71 -18.5t-24 -85.5l-77 -5q7 99 9 179l9 10l87 -9h258l87 9l10 -10l7 -174l-77 -5q-9 74 -23 90.5t-66 18.5q-8 -146 -8 -319q0 -29 10 -41t35 -12l43 2l4 -4l-8 -60q-106 4 -149 4l-145 -6l6 59q54 4 68.5 17.5t14.5 58.5z" />
<glyph unicode="u" horiz-adv-x="552" d="M197 179q0 -51 24 -80t69 -29q90 0 90 91l-2 242q-1 25 -6 33.5t-19 8.5l-26 -1l-2 3l8 56q66 -2 97 -2l103 4l-5 -58q-30 -7 -38 -13.5t-8 -24.5v-234q0 -90 -55 -137t-159 -47q-99 0 -146.5 41t-47.5 126v245q0 26 -5.5 34t-21.5 8l-25 -1l-2 3l8 56q73 -2 125 -2 l101 4l-6 -59q-25 -2 -34.5 -11t-10.5 -29z" />
<glyph unicode="v" horiz-adv-x="537" d="M65 396q-14 46 -57 49l-4 6l6 52q68 -2 106 -2l144 5l5 -6l-4 -53q-41 -4 -51 -8.5t-10 -19.5q0 -13 17 -90t34 -147l17 -71h14q14 31 54.5 162.5t40.5 149.5q0 13 -8 17.5t-30 4.5h-30l-4 6l5 53q72 -3 124 -3l97 1l-6 -56q-18 -3 -26 -11t-16 -30l-144 -401l-159 -16 q-74 282 -115 408z" />
<glyph unicode="w" horiz-adv-x="820" d="M630 4l-153 -16q-14 83 -63 261h-8l-78 -245l-154 -16q-70 282 -110 408q-14 46 -56 49q-2 4 -4 6l7 52q65 -2 102 -2l139 5l5 -6l-5 -53q-39 -4 -48.5 -8.5t-9.5 -19.5q0 -14 16 -91t32 -147l17 -70h12q14 31 85 274q-1 3 -2.5 13.5t-2.5 15.5q-4 18 -16 24.5t-41 6.5 l-4 6l7 52q77 -2 117 -2l139 5l5 -6l-4 -53q-40 -4 -49.5 -8t-9.5 -20q0 -13 16.5 -90t32.5 -147l16 -71h13q13 30 52.5 163t39.5 151q0 12 -8 16t-30 4h-28l-4 6l6 53q70 -3 119 -3l94 1l-6 -56q-17 -3 -25 -10.5t-16 -30.5z" />
<glyph unicode="x" horiz-adv-x="587" d="M134 160l80 102l-84 114q-23 32 -45 45.5t-58 20.5l-3 4l6 56q67 -1 135 -1l130 5l4 -8l-5 -50q-44 -1 -44 -22q0 -17 68 -109q8 11 29.5 40.5t32.5 47t11 25.5q0 17 -38 18l-2 4l5 51q12 0 52.5 -1t61.5 -1l96 2l3 -6l-4 -53q-38 -14 -60 -31t-49 -53l-85 -115l90 -120 q47 -63 107 -66l3 -3l-7 -57q-74 2 -108 2l-154 -6l-4 6l4 53q40 1 40 19q0 9 -12 26l-66 89l-49 -64q-24 -32 -24 -46q0 -22 38 -23l4 -6l-5 -53q-83 5 -111 5l-100 -4l-3 9l4 51q46 16 116 103z" />
<glyph unicode="y" horiz-adv-x="524" d="M211 425q0 -7 13.5 -37t30.5 -65t20 -43h9l57 115q12 24 12 36q0 16 -40 17l-2 4l6 51q12 0 53.5 -1.5t61.5 -1.5l87 3l3 -6l-6 -53q-31 -11 -52 -33.5t-46 -65.5l-78 -140q-14 -28 -14 -97q-1 -28 8 -39t31 -11l42 2l2 -4l-7 -60q-101 4 -145 4l-138 -8l6 59q49 5 63 18 t14 52v20q0 34 -23 77l-83 150q-18 33 -37 49t-53 25l-3 4l7 56q79 -2 111 -2l136 6l5 -8l-6 -50q-45 -1 -45 -23z" />
<glyph unicode="z" horiz-adv-x="500" d="M455 13l-15 -15l-332 4l-64 -6l-22 38l283 402l-94 -7q-51 -6 -68.5 -24.5t-20.5 -70.5l-79 -5q11 101 13 174l9 8l147 -9l249 -2l17 -35q-148 -183 -292 -400l118 10q41 5 62.5 32t30.5 85l78 7q-17 -109 -20 -186z" />
<glyph unicode="{" horiz-adv-x="321" d="M44 241l4 48q81 23 81 74q0 20 -23.5 82.5t-23.5 92.5q0 50 40.5 83t108.5 33q15 0 33.5 -2t29.5 -4l10 -3l7 -10l-13 -56q-25 5 -41 5q-27 0 -41.5 -16.5t-14.5 -43.5q0 -18 13.5 -75t13.5 -79q0 -37 -20.5 -60.5t-52.5 -32.5v-6q73 -24 73 -97q0 -25 -13.5 -85.5 t-13.5 -80.5q0 -28 15 -45.5t44 -17.5l41 6l8 -10l-11 -54q-30 -15 -80 -15q-60 0 -98 33.5t-38 82.5q0 31 23.5 92.5t23.5 79.5q0 61 -85 81z" />
<glyph unicode="|" horiz-adv-x="334" d="M204 807l16 -11q-6 -339 -6 -505l1 -549l-87 -11l-12 11q0 355 1 534l1 520z" />
<glyph unicode="}" horiz-adv-x="321" d="M278 289l-4 -47q-36 -10 -58.5 -29.5t-22.5 -45.5q0 -21 23.5 -83t23.5 -91q0 -53 -41 -87t-109 -34q-15 0 -33 2t-29 4l-11 3l-6 10l13 55q24 -5 40 -5q28 0 42 16.5t14 43.5q0 19 -13.5 78t-13.5 82q0 70 73 92v6q-73 25 -73 98q0 24 13.5 82.5t13.5 77.5 q0 28 -15 45.5t-43 17.5l-41 -5l-8 9l11 55q30 15 80 15q60 0 98 -34t38 -82q0 -31 -23.5 -91t-23.5 -77q0 -32 23 -52.5t62 -28.5z" />
<glyph unicode="~" horiz-adv-x="506" d="M73 178h-11l-35 37v11l91 101l19 4q26 0 113.5 -19.5t108.5 -19.5q12 0 31 14t32 28l12 15h11l35 -38v-10l-91 -102l-19 -4q-26 0 -113.5 19.5t-108.5 19.5q-12 0 -31 -14t-31 -28z" />
<glyph unicode="&#xa1;" horiz-adv-x="285" d="M160 474q36 0 55.5 -20.5t19.5 -55.5q0 -36 -22.5 -59t-59.5 -23q-35 0 -54.5 20.5t-19.5 54.5q0 37 22 60t59 23zM192 227l20 -430l-12 -17l-133 -22l-17 18l62 453l64 11z" />
<glyph unicode="&#xa2;" horiz-adv-x="432" d="M373 118l8 -3l16 -52q-83 -67 -142 -74l-15 -140l-69 -8l-6 7l16 148q-74 17 -115 75.5t-41 147.5q0 102 57 171t150 81l20 178l70 9l6 -9l-20 -177q24 -2 46 -7t32 -9l10 -3l4 -9q-17 -71 -22 -155l-65 -4v33q0 71 -62 71q-93 0 -93 -132q0 -82 28 -125t81 -43 q24 0 50.5 7.5t40.5 14.5z" />
<glyph unicode="&#xa3;" horiz-adv-x="518" d="M443 178l25 -2q21 -37 21 -83t-27.5 -75.5t-69.5 -29.5q-33 0 -111 24.5t-114 24.5q-53 0 -109 -36l-11 5l-20 61q92 56 92 136v41q-1 23 -13.5 30.5t-50.5 9.5l-4 6l7 52l61 10v21q0 92 68 158.5t161 66.5q74 0 112 -15l5 -11l-32 -96l-19 -3q-68 38 -109 38 q-69 0 -70 -95l-3 -68l151 3l4 -5l-11 -68q-68 3 -146 3l-2 -60q-2 -72 -47 -111l57 12q21 0 71 -9.5t69 -9.5q62 0 65 75z" />
<glyph unicode="&#xa4;" horiz-adv-x="444" d="M68 351q0 41 20 75l-75 71l3 17l70 50q48 -52 67 -72q34 18 73 18q38 0 74 -18l68 77l18 -4l51 -71l-72 -67q21 -36 21 -76t-19 -73l74 -67l-4 -17l-71 -52l-65 70q-34 -20 -75 -20q-40 0 -77 21l-68 -73l-17 4l-49 71q7 5 71 63q-18 33 -18 73zM140 351q0 -36 25 -61.5 t61 -25.5t62 25.5t26 61.5t-26 61.5t-62 25.5t-61 -25.5t-25 -61.5z" />
<glyph unicode="&#xa5;" horiz-adv-x="568" d="M229 429q0 -11 16 -46l9 -23l47 -81l65 129q8 14 8 24q0 7 -5.5 9t-17 3t-20.5 6q1 6 1 20l5 35q10 0 52 -1.5t64 -1.5l88 3l4 -6l-6 -55q-34 -11 -49.5 -24.5t-37.5 -48.5l-24 -40q80 2 95 2l7 -9l-4 -57h-136l-26 -45q-7 -11 -10 -27q75 1 168 4l7 -10l-5 -57h-181 q0 -26 1 -38q2 -18 7.5 -25.5t19.5 -8.5q5 -1 19 -1l34 2l3 -6l-8 -58q-99 3 -142 3l-137 -9l6 60q47 6 60 20.5t15 60.5q-41 0 -101.5 -0.5t-70.5 -0.5l-7 8l8 56h163q-11 27 -17 37l-19 35q-31 0 -75 -0.5t-52 -0.5l-7 7l8 56h88q-56 98 -118 115v24l6 37q65 -3 104 -3 q14 0 77.5 3t67.5 4l5 -10l-5 -51q-29 -2 -38 -6t-9 -13z" />
<glyph unicode="&#xa6;" horiz-adv-x="334" d="M117 158l87 15l10 -10l1 -421l-87 -11l-12 11q0 254 1 416zM214 375l-88 -12l-9 7q0 71 0.5 213t0.5 213l86 11l16 -11q-5 -246 -6 -421z" />
<glyph unicode="&#xa7;" horiz-adv-x="500" d="M388 54q1 -59 -55.5 -106.5t-136.5 -47.5q-55 0 -95.5 23.5t-40.5 54.5q0 68 27 105l21 -1q7 -44 37 -72.5t68 -28.5q24 0 40 13.5t16 35.5q0 26 -25 50t-60.5 45t-70.5 45t-60 59.5t-25 78.5q0 82 99 143q-12 24 -12 52q0 63 50.5 107t123.5 44q48 0 85 -15t37 -35 q0 -24 -10 -59t-20 -44h-19q-12 30 -35.5 49t-48.5 19q-19 0 -31.5 -12.5t-12.5 -31.5q0 -25 24.5 -49.5t60 -46.5t70.5 -46.5t59.5 -59.5t24.5 -75q0 -42 -26 -80.5t-70 -65.5q11 -24 11 -48zM132 350q0 -29 23.5 -56.5t53.5 -46.5t70.5 -46.5t62.5 -49.5q23 25 23 57 q0 28 -23 55.5t-52.5 47t-69.5 47t-62 50.5q-26 -24 -26 -58z" />
<glyph unicode="&#xa8;" d="M284 563q-29 0 -44.5 16.5t-15.5 43.5q0 30 18.5 49t49.5 19q28 0 43.5 -16.5t15.5 -44.5q0 -29 -18.5 -48t-48.5 -19zM105 563q-28 0 -43.5 16.5t-15.5 43.5q0 30 18.5 49t48.5 19q28 0 44 -17t16 -44q0 -30 -18.5 -48.5t-49.5 -18.5z" />
<glyph unicode="&#xa9;" horiz-adv-x="696" d="M337 129q-74 0 -114 43.5t-40 116.5q0 81 48 128t133 47q20 0 46.5 -3t43.5 -7l16 -3l3 -7q-11 -43 -14 -101l-61 -3q1 13 1 26q0 41 -49 41q-69 0 -69 -101q0 -120 72 -120q26 0 40 15.5t18 49.5l59 5q-8 -56 -8 -100l-6 -8q-53 -19 -119 -19zM43 293q0 126 89 215.5 t215 89.5q127 0 216 -89.5t89 -215.5t-89 -215.5t-216 -89.5q-126 0 -215 89.5t-89 215.5zM94 293q0 -106 74 -181t179 -75q106 0 180.5 75t74.5 181t-74.5 181t-180.5 75q-105 0 -179 -75t-74 -181z" />
<glyph unicode="&#xaa;" horiz-adv-x="341" d="M192 517v9q0 25 -14.5 39.5t-40.5 14.5q-17 0 -36.5 -7t-30.5 -15l-11 -7l-6 3l-14 44q96 52 128 52q62 0 91 -25.5t29 -65.5q0 -11 -6.5 -62t-6.5 -63q0 -25 21 -25q6 0 13.5 2.5t11.5 4.5l4 2l10 -16q-36 -62 -67 -71q-65 0 -70 50l-7 2q-49 -49 -74 -49 q-39 0 -66 29.5t-27 72.5q0 20 11 35t29 20zM189 418l2 59l-61 -15q-14 -4 -14 -19q0 -16 9 -26.5t23 -10.5q20 0 41 12z" />
<glyph unicode="&#xab;" horiz-adv-x="451" d="M365 411l41 -25l4 -16q-18 -27 -48.5 -76t-40.5 -65q0 -1 35 -57.5t54 -86.5l-4 -16l-41 -25q-32 36 -73.5 79t-66.5 67l-25 25v21q92 92 165 175zM180 411l41 -25l4 -16q-18 -27 -48.5 -76t-40.5 -65q0 -1 35 -57.5t54 -86.5l-4 -16l-41 -25q-32 36 -73.5 79t-66.5 67 l-25 25v21q92 92 165 175z" />
<glyph unicode="&#xac;" horiz-adv-x="506" d="M452 327l7 -13q-9 -70 -10 -143l1 -136l-91 -14l-11 7q1 102 1 194h-97l-228 -1l-7 10l14 91q145 -1 234 -1z" />
<glyph unicode="&#xae;" horiz-adv-x="468" d="M30 507q0 85 59.5 144.5t144.5 59.5t144.5 -59.5t59.5 -144.5t-59.5 -144.5t-144.5 -59.5t-144.5 59.5t-59.5 144.5zM68 507q0 -68 49 -117t117 -49t117 49t49 117t-49 117t-117 49t-117 -49t-49 -117zM137 412l3 24q14 2 18 8.5t4 24.5v107q0 18 -10 18h-11l-2 3l3 21 q2 0 18.5 -0.5t24.5 -0.5h11q22 2 35 2q86 0 86 -56q0 -38 -42 -61l24 -38q18 -29 36 -30l2 -3q-1 -14 -6 -17.5t-33 -4.5q-15 0 -24 6t-17 24l-25 51h-21v-27q0 -17 3.5 -21t19.5 -4l2 -3l-3 -22q-25 2 -39 2h-12zM215 580q0 -2 -1.5 -24.5t-1.5 -33.5q3 0 12.5 -1t14.5 -1 q25 9 25 36q0 32 -44 32q-5 0 -5 -8z" />
<glyph unicode="&#xaf;" d="M345 672l8 -14l-12 -76l-141 -1l-139 -1l-11 11l14 76q95 -1 154 -1z" />
<glyph unicode="&#xb0;" horiz-adv-x="302" d="M21 523q0 55 38 93t92 38t92 -38t38 -93q0 -54 -38 -92t-92 -38t-92 38t-38 92zM79 523q0 -31 20.5 -51.5t51.5 -20.5t51.5 20.5t20.5 51.5t-20.5 52t-51.5 21t-51.5 -21t-20.5 -52z" />
<glyph unicode="&#xb1;" horiz-adv-x="506" d="M292 509l13 -7q-5 -101 -6 -178l183 6l7 -13l-10 -92q-30 0 -90.5 -0.5t-89.5 -0.5l1 -163l-88 -14l-11 7q0 89 1 170l-178 -1l-7 11l14 91q90 -1 171 -1q0 29 0.5 87t0.5 87zM473 -5l8 -15l-11 -77q-83 0 -242 -1t-195 -1l-9 14l11 76h232q84 0 125 1q81 2 81 3z" />
<glyph unicode="&#xb2;" horiz-adv-x="352" d="M28 334l-6 48l81 87q77 91 76 135q0 37 -42 37q-46 0 -86 -54h-10l-13 63q24 35 62.5 56.5t76.5 21.5q54 0 87 -25.5t33 -67.5t-29.5 -90.5t-103.5 -128.5l3 -6h57q29 0 41.5 12.5t17.5 46.5l61 5q-14 -77 -18 -132l-11 -9q-157 6 -222 6z" />
<glyph unicode="&#xb3;" horiz-adv-x="310" d="M22 407l12 12q27 -11 58 -11q36 0 58.5 14t22.5 36q0 45 -89 45l-7 8l-6 48l44 9q45 20 45 56q0 14 -10 23t-26 9q-33 0 -72 -28h-8l-17 55q23 16 61 30.5t68 14.5q47 0 75.5 -21.5t28.5 -56.5q0 -29 -19.5 -52.5t-53.5 -35.5v-7q92 -29 92 -94q0 -48 -61.5 -89 t-136.5 -41q-30 0 -43 17t-16 59z" />
<glyph unicode="&#xb4;" d="M350 666l-1 -14q-96 -60 -189 -129l-15 4l-30 39q36 36 78 78.5t65 67.5l24 25l14 -1z" />
<glyph unicode="&#xb6;" horiz-adv-x="567" d="M330 121v441q0 10 -4.5 12.5t-22.5 2.5q-39 0 -59 -38t-20 -106q0 -65 14.5 -110.5t49.5 -93.5v-24q-117 5 -190.5 64.5t-73.5 164.5q0 91 63 151.5t164 60.5q27 0 78 -2t66 -2l144 3l-6 -62l-2 -4q-37 -3 -49 -11.5t-14 -34.5q-12 -87 -12 -362q0 -121 -60 -196 t-171 -75q-57 0 -98.5 27t-41.5 70q0 23 12.5 55t29.5 53h16q3 -61 29.5 -95t67.5 -34q52 0 71 32t19 113z" />
<glyph unicode="&#xb7;" horiz-adv-x="238" d="M116 161q-37 0 -56 20.5t-19 55.5q0 36 22 59t59 23q35 0 55 -21t20 -55q0 -36 -22 -59t-59 -23z" />
<glyph unicode="&#xb8;" d="M141 -86l32 115h52l-21 -73q27 -16 43.5 -26.5t34.5 -31t18 -39.5q0 -39 -40.5 -67.5t-92.5 -28.5q-28 0 -53 12t-25 31t37 63h9q1 -27 15 -41.5t37 -14.5q17 0 28.5 8.5t11.5 21.5q0 26 -86 71z" />
<glyph unicode="&#xb9;" horiz-adv-x="265" d="M190 656q-8 -62 -8 -225q0 -43 29 -43l30 1l3 -3l-9 -49q-64 2 -98 2l-112 -7l5 47q31 2 45 12.5t14 34.5v197q0 23 -6.5 30t-25.5 7l-33 -2l-4 4l4 43q28 3 83 10q28 3 52.5 6.5t36.5 4.5l11 2l9 -23q-21 -17 -26 -49z" />
<glyph unicode="&#xba;" horiz-adv-x="354" d="M169 331q-67 0 -106.5 41t-39.5 111q0 76 44.5 121.5t118.5 45.5q69 0 107 -40t38 -111q0 -76 -44 -122t-118 -46zM180 390q46 0 46 76q0 119 -53 119q-46 0 -46 -76q0 -119 53 -119z" />
<glyph unicode="&#xbb;" horiz-adv-x="451" d="M271 44l-41 25l-4 16q36 56 88 141q-66 108 -88 143l4 16l41 26q32 -36 73 -79t66 -68l25 -25v-20q-92 -92 -164 -175zM86 44l-41 25l-4 16q36 56 88 141q-66 108 -88 143l4 16l41 26q32 -36 73 -79t66 -68l25 -25v-20q-92 -92 -164 -175z" />
<glyph unicode="&#xbc;" horiz-adv-x="762" d="M190 577q-8 -62 -8 -225q0 -43 29 -43l30 2l3 -4l-9 -49q-64 3 -98 3l-112 -7l5 46q31 2 45 13t14 34v197q0 23 -6.5 30t-25.5 7l-33 -2l-4 5l4 42q28 3 83 10q28 3 52.5 6.5t36.5 5.5l11 1l9 -23q-21 -15 -26 -49zM626 653l7 -19q-176 -267 -266 -407l-202 -320l-65 27 l-5 14q121 180 207 316l262 414zM434 96l2 53l170 238l5 2l71 -8v-221h50l7 -8l-7 -62l-49 1l4 -84l-7 -7l-90 -7l-5 6q3 50 4 95zM582 264l-71 -104h78v104h-7z" />
<glyph unicode="&#xbd;" horiz-adv-x="792" d="M190 577q-8 -62 -8 -225q0 -43 29 -43l30 2l3 -4l-9 -49q-64 3 -98 3l-112 -7l5 46q31 2 45 13t14 34v197q0 23 -6.5 30t-25.5 7l-33 -2l-4 5l4 42q28 3 83 10q28 3 52.5 6.5t36.5 5.5l11 1l9 -23q-21 -15 -26 -49zM626 653l7 -19q-176 -267 -266 -407l-202 -320l-65 27 l-5 14q121 180 207 316l262 414zM468 -6l-6 48l81 87q77 91 76 136q0 36 -42 36q-47 0 -86 -53h-10l-13 62q24 35 62.5 57t76.5 22q54 0 87 -26t33 -68q0 -41 -29.5 -90t-103.5 -129l3 -5h57q29 0 41.5 12.5t17.5 46.5l61 5q-14 -77 -18 -132l-11 -9q-157 6 -222 6z" />
<glyph unicode="&#xbe;" horiz-adv-x="762" d="M22 328l12 12q27 -11 58 -11q36 0 58.5 14t22.5 36q0 45 -89 45l-7 8l-6 48l44 9q45 20 45 56q0 14 -10 23t-26 9q-32 0 -72 -27h-8l-17 54q23 16 61 30.5t68 14.5q47 0 75.5 -21.5t28.5 -56.5q0 -28 -19.5 -51.5t-53.5 -36.5v-7q92 -28 92 -94q0 -48 -61.5 -88.5 t-136.5 -40.5q-30 0 -43 17t-16 58zM626 653l7 -19q-176 -267 -266 -407l-202 -320l-65 27l-5 14q121 180 207 316l262 414zM434 96l2 53l170 238l5 2l71 -8v-221h50l7 -8l-7 -62l-49 1l4 -84l-7 -7l-90 -7l-5 6q3 50 4 95zM582 264l-71 -104h78v104h-7z" />
<glyph unicode="&#xbf;" horiz-adv-x="370" d="M269 242l24 -126l-3 -14l-108 -63q-52 -32 -52 -72q0 -47 48.5 -73t134.5 -31l8 -14l-37 -84l-15 -7q-110 3 -184.5 52.5t-74.5 121.5q0 31 8.5 54.5t30.5 46t42 37.5t62 44q14 10 22 15l3 7l-15 83l6 11l88 18zM218 474q36 0 55.5 -20.5t19.5 -55.5q0 -36 -22.5 -59 t-59.5 -23q-35 0 -54.5 20.5t-19.5 54.5q0 37 22 60t59 23z" />
<glyph unicode="&#xc0;" horiz-adv-x="625" d="M552 132q11 -36 28 -51t50 -18l4 -7l-7 -59q-79 3 -123 3q-38 0 -80.5 -2t-65.5 -4l-23 -2l-6 8l5 60q49 4 63 11t14 26q0 10 -5 33l-20 76q-26 1 -91 1q-39 0 -95 -7l-25 -75q-6 -21 -6 -31q0 -17 10 -23.5t36 -6.5h43l4 -7l-7 -63q-82 6 -146 6l-121 -3l8 67 q24 4 38.5 18.5t26.5 47.5l178 507l159 16l11 -5q90 -347 143 -516zM296 510l-72 -224h70q32 0 74 4l-58 220h-14zM169 762l-5 13l26 77l12 5q115 -57 223 -104l-13 -47l-14 -9q-51 16 -108 32.5t-89 24.5z" />
<glyph unicode="&#xc1;" horiz-adv-x="625" d="M552 132q11 -36 28 -51t50 -18l4 -7l-7 -59q-79 3 -123 3q-38 0 -80.5 -2t-65.5 -4l-23 -2l-6 8l5 60q49 4 63 11t14 26q0 10 -5 33l-20 76q-26 1 -91 1q-39 0 -95 -7l-25 -75q-6 -21 -6 -31q0 -17 10 -23.5t36 -6.5h43l4 -7l-7 -63q-82 6 -146 6l-121 -3l8 67 q24 4 38.5 18.5t26.5 47.5l178 507l159 16l11 -5q90 -347 143 -516zM296 510l-72 -224h70q32 0 74 4l-58 220h-14zM491 775l-6 -13q-115 -29 -229 -65l-13 9l-13 47l223 104l12 -5z" />
<glyph unicode="&#xc2;" horiz-adv-x="625" d="M552 132q11 -36 28 -51t50 -18l4 -7l-7 -59q-79 3 -123 3q-38 0 -80.5 -2t-65.5 -4l-23 -2l-6 8l5 60q49 4 63 11t14 26q0 10 -5 33l-20 76q-26 1 -91 1q-39 0 -95 -7l-25 -75q-6 -21 -6 -31q0 -17 10 -23.5t36 -6.5h43l4 -7l-7 -63q-82 6 -146 6l-121 -3l8 67 q24 4 38.5 18.5t26.5 47.5l178 507l159 16l11 -5q90 -347 143 -516zM296 510l-72 -224h70q32 0 74 4l-58 220h-14zM176 711l-25 41q33 24 72.5 55t62.5 50l22 19h20q0 1 22.5 -17t63 -50.5t71.5 -56.5l-24 -41l-16 -4q-50 25 -127 58q-48 -20 -126 -58z" />
<glyph unicode="&#xc3;" horiz-adv-x="625" d="M552 132q11 -36 28 -51t50 -18l4 -7l-7 -59q-79 3 -123 3q-38 0 -80.5 -2t-65.5 -4l-23 -2l-6 8l5 60q49 4 63 11t14 26q0 10 -5 33l-20 76q-26 1 -91 1q-39 0 -95 -7l-25 -75q-6 -21 -6 -31q0 -17 10 -23.5t36 -6.5h43l4 -7l-7 -63q-82 6 -146 6l-121 -3l8 67 q24 4 38.5 18.5t26.5 47.5l178 507l159 16l11 -5q90 -347 143 -516zM296 510l-72 -224h70q32 0 74 4l-58 220h-14zM189 687h-11l-39 37v11l78 96l17 4q17 0 76 -17t73 -17q11 0 27 13t27 26l11 13h11l40 -37v-10l-79 -97l-16 -4q-18 0 -77 17t-73 17q-11 0 -27 -13t-27 -26z " />
<glyph unicode="&#xc4;" horiz-adv-x="625" d="M552 132q11 -36 28 -51t50 -18l4 -7l-7 -59q-79 3 -123 3q-38 0 -80.5 -2t-65.5 -4l-23 -2l-6 8l5 60q49 4 63 11t14 26q0 10 -5 33l-20 76q-26 1 -91 1q-39 0 -95 -7l-25 -75q-6 -21 -6 -31q0 -17 10 -23.5t36 -6.5h43l4 -7l-7 -63q-82 6 -146 6l-121 -3l8 67 q24 4 38.5 18.5t26.5 47.5l178 507l159 16l11 -5q90 -347 143 -516zM296 510l-72 -224h70q32 0 74 4l-58 220h-14zM403 706q-29 0 -44.5 16.5t-15.5 44.5q0 29 18.5 48t49.5 19q28 0 43.5 -16.5t15.5 -43.5q0 -30 -18.5 -49t-48.5 -19zM224 706q-28 0 -43.5 16.5t-15.5 44.5 q0 29 18.5 48t48.5 19q28 0 44 -16.5t16 -43.5q0 -30 -18.5 -49t-49.5 -19z" />
<glyph unicode="&#xc5;" horiz-adv-x="625" d="M552 132q11 -36 28 -51t50 -18l4 -7l-7 -59q-79 3 -123 3q-38 0 -80.5 -2t-65.5 -4l-23 -2l-6 8l5 60q49 4 63 11t14 26q0 10 -5 33l-20 76q-26 1 -91 1q-39 0 -95 -7l-25 -75q-6 -21 -6 -31q0 -17 10 -23.5t36 -6.5h43l4 -7l-7 -63q-82 6 -146 6l-121 -3l8 67 q24 4 38.5 18.5t26.5 47.5l178 507l159 16l11 -5q90 -347 143 -516zM296 510l-72 -224h70q32 0 74 4l-58 220h-14zM320 731q40 0 40 36q0 19 -12 30.5t-34 11.5q-39 0 -39 -36q0 -21 14 -31.5t31 -10.5zM313 678q-42 0 -65 25t-23 66t26.5 68t69.5 27q45 0 67 -25t22 -62 q0 -41 -26.5 -70t-70.5 -29z" />
<glyph unicode="&#xc6;" horiz-adv-x="871" d="M319 60q51 4 67 13.5t16 34.5q0 13 -4 49l-12 92l-87 -11l-84 -16l-45 -97q-11 -25 -11 -37q0 -14 11.5 -19t43.5 -5l33 -5l-6 -65q-1 1 -30 2t-69.5 2.5t-66.5 1.5l-74 -3l-5 60q10 2 27.5 22.5t32.5 50.5l208 425q-4 22 -25 22l-31 -2l-6 9l8 61q111 -3 242 -3 q236 0 320 12l8 -11q-18 -89 -23 -182l-91 -6q2 26 2 40q0 41 -22 52t-107 11q-34 0 -43 -5t-10 -22l26 -182l96 12l96 19l11 -10l-13 -84l-91 -7l-88 -10l20 -123q6 -36 22.5 -52t47.5 -16q84 0 108.5 20t34.5 95l85 7l7 -10q-18 -90 -28 -186l-9 -11l-45 1q-45 2 -119.5 4 t-129.5 2h-38q-36 0 -75.5 -2t-61.5 -4l-22 -2l-5 8zM252 317l65 4l62 8l-23 181h-15z" />
<glyph unicode="&#xc7;" horiz-adv-x="617" d="M280 -86l21 75q-128 8 -200.5 91t-72.5 224q0 160 95 255t255 95q37 0 85 -6t77 -12l29 -7l6 -13q-20 -83 -26 -189l-99 -7q2 27 2 53q0 43 -26.5 63.5t-82.5 20.5q-159 0 -159 -219q0 -122 44 -189t122 -67q54 0 84 32.5t42 105.5l99 7q-17 -104 -20 -187l-10 -12 q-83 -34 -193 -39l-9 -33q27 -16 43.5 -26.5t34.5 -31t18 -39.5q0 -39 -40.5 -67.5t-92.5 -28.5q-28 0 -53 12t-25 31t37 63h9q1 -27 15 -41.5t37 -14.5q17 0 28.5 8.5t11.5 21.5q0 26 -86 71z" />
<glyph unicode="&#xc8;" horiz-adv-x="597" d="M247 139q0 -40 10.5 -50t53.5 -10q49 0 75 3.5t44 16.5t24.5 33.5t12.5 60.5l85 7l7 -10q-18 -90 -28 -186l-9 -11q-188 7 -312 7q-40 0 -83.5 -2.5t-66.5 -5.5l-24 -2l8 68q41 6 56.5 24.5t15.5 61.5l1 379q0 33 -6.5 43.5t-26.5 10.5l-30 -2l-7 9l8 61q110 -3 185 -3 q213 0 304 12l8 -11q-18 -89 -23 -182l-92 -6q2 26 2 40q0 41 -21 52t-105 11q-35 0 -43.5 -5.5t-9.5 -27.5l-7 -155q9 0 43 -0.5t50 -0.5l116 8l8 -9l-14 -86q-80 3 -130 3q-25 0 -76 -6q-3 -110 -3 -140zM155 762l-5 13l26 77l12 5q115 -57 223 -104l-13 -47l-14 -9 q-51 16 -108 32.5t-89 24.5z" />
<glyph unicode="&#xc9;" horiz-adv-x="597" d="M247 139q0 -40 10.5 -50t53.5 -10q49 0 75 3.5t44 16.5t24.5 33.5t12.5 60.5l85 7l7 -10q-18 -90 -28 -186l-9 -11q-188 7 -312 7q-40 0 -83.5 -2.5t-66.5 -5.5l-24 -2l8 68q41 6 56.5 24.5t15.5 61.5l1 379q0 33 -6.5 43.5t-26.5 10.5l-30 -2l-7 9l8 61q110 -3 185 -3 q213 0 304 12l8 -11q-18 -89 -23 -182l-92 -6q2 26 2 40q0 41 -21 52t-105 11q-35 0 -43.5 -5.5t-9.5 -27.5l-7 -155q9 0 43 -0.5t50 -0.5l116 8l8 -9l-14 -86q-80 3 -130 3q-25 0 -76 -6q-3 -110 -3 -140zM492 775l-6 -13q-115 -29 -229 -65l-13 9l-13 47l223 104l12 -5z " />
<glyph unicode="&#xca;" horiz-adv-x="597" d="M247 139q0 -40 10.5 -50t53.5 -10q49 0 75 3.5t44 16.5t24.5 33.5t12.5 60.5l85 7l7 -10q-18 -90 -28 -186l-9 -11q-188 7 -312 7q-40 0 -83.5 -2.5t-66.5 -5.5l-24 -2l8 68q41 6 56.5 24.5t15.5 61.5l1 379q0 33 -6.5 43.5t-26.5 10.5l-30 -2l-7 9l8 61q110 -3 185 -3 q213 0 304 12l8 -11q-18 -89 -23 -182l-92 -6q2 26 2 40q0 41 -21 52t-105 11q-35 0 -43.5 -5.5t-9.5 -27.5l-7 -155q9 0 43 -0.5t50 -0.5l116 8l8 -9l-14 -86q-80 3 -130 3q-25 0 -76 -6q-3 -110 -3 -140zM177 711l-25 41q33 24 72.5 55t61.5 50l23 19h20q0 1 22.5 -17 t63 -50.5t71.5 -56.5l-24 -41l-16 -4q-50 25 -127 58q-48 -20 -126 -58z" />
<glyph unicode="&#xcb;" horiz-adv-x="597" d="M247 139q0 -40 10.5 -50t53.5 -10q49 0 75 3.5t44 16.5t24.5 33.5t12.5 60.5l85 7l7 -10q-18 -90 -28 -186l-9 -11q-188 7 -312 7q-40 0 -83.5 -2.5t-66.5 -5.5l-24 -2l8 68q41 6 56.5 24.5t15.5 61.5l1 379q0 33 -6.5 43.5t-26.5 10.5l-30 -2l-7 9l8 61q110 -3 185 -3 q213 0 304 12l8 -11q-18 -89 -23 -182l-92 -6q2 26 2 40q0 41 -21 52t-105 11q-35 0 -43.5 -5.5t-9.5 -27.5l-7 -155q9 0 43 -0.5t50 -0.5l116 8l8 -9l-14 -86q-80 3 -130 3q-25 0 -76 -6q-3 -110 -3 -140zM403 706q-29 0 -44.5 16.5t-15.5 44.5q0 29 18.5 48t49.5 19 q28 0 43.5 -16.5t15.5 -43.5q0 -30 -18.5 -49t-48.5 -19zM224 706q-28 0 -43.5 16.5t-15.5 44.5q0 29 18.5 48t48.5 19q28 0 44 -16.5t16 -43.5q0 -30 -18.5 -49t-49.5 -19z" />
<glyph unicode="&#xcc;" horiz-adv-x="365" d="M260 528q-12 -207 -12 -395q0 -41 7.5 -54.5t30.5 -13.5l43 3l5 -7l-9 -64q-104 3 -149 3q-25 0 -60 -2t-58 -4l-22 -3l7 65q44 9 58.5 26t14.5 58l1 385q0 31 -7 41.5t-29 10.5l-35 -1l-5 8l7 59q10 0 61.5 -0.5t78.5 -0.5l142 7l-6 -67q-38 -5 -50 -15.5t-14 -38.5z M23 762l-5 13l26 77l12 5q115 -57 223 -104l-13 -47l-14 -9q-51 16 -108 32.5t-89 24.5z" />
<glyph unicode="&#xcd;" horiz-adv-x="365" d="M260 528q-12 -207 -12 -395q0 -41 7.5 -54.5t30.5 -13.5l43 3l5 -7l-9 -64q-104 3 -149 3q-25 0 -60 -2t-58 -4l-22 -3l7 65q44 9 58.5 26t14.5 58l1 385q0 31 -7 41.5t-29 10.5l-35 -1l-5 8l7 59q10 0 61.5 -0.5t78.5 -0.5l142 7l-6 -67q-38 -5 -50 -15.5t-14 -38.5z M360 775l-6 -13q-115 -29 -229 -65l-13 9l-13 47l223 104l12 -5z" />
<glyph unicode="&#xce;" horiz-adv-x="365" d="M260 528q-12 -207 -12 -395q0 -41 7.5 -54.5t30.5 -13.5l43 3l5 -7l-9 -64q-104 3 -149 3q-25 0 -60 -2t-58 -4l-22 -3l7 65q44 9 58.5 26t14.5 58l1 385q0 31 -7 41.5t-29 10.5l-35 -1l-5 8l7 59q10 0 61.5 -0.5t78.5 -0.5l142 7l-6 -67q-38 -5 -50 -15.5t-14 -38.5z M44 711l-25 41q33 24 72.5 55t62.5 50l22 19h20q0 1 22.5 -17t63 -50.5t71.5 -56.5l-24 -41l-16 -4q-50 25 -127 58q-48 -20 -126 -58z" />
<glyph unicode="&#xcf;" horiz-adv-x="365" d="M260 528q-12 -207 -12 -395q0 -41 7.5 -54.5t30.5 -13.5l43 3l5 -7l-9 -64q-104 3 -149 3q-25 0 -60 -2t-58 -4l-22 -3l7 65q44 9 58.5 26t14.5 58l1 385q0 31 -7 41.5t-29 10.5l-35 -1l-5 8l7 59q10 0 61.5 -0.5t78.5 -0.5l142 7l-6 -67q-38 -5 -50 -15.5t-14 -38.5z M271 706q-29 0 -44.5 16.5t-15.5 44.5q0 29 18.5 48t49.5 19q28 0 43.5 -16.5t15.5 -43.5q0 -30 -18.5 -49t-48.5 -19zM92 706q-28 0 -43.5 16.5t-15.5 44.5q0 29 18.5 48t48.5 19q28 0 44 -16.5t16 -43.5q0 -30 -18.5 -49t-49.5 -19z" />
<glyph unicode="&#xd0;" horiz-adv-x="709" d="M333 -12q-95 12 -152 12q-23 0 -55 -2.5t-52 -5.5l-21 -2l7 68q45 8 58.5 27.5t13.5 76.5v124h-116l-8 7l10 60h114v169q0 32 -6 43t-25 11l-33 -2l-6 9l8 62q88 -3 128 -3l158 5q151 0 237.5 -80t86.5 -220q0 -158 -97.5 -258.5t-249.5 -100.5zM274 536l-8 -183l125 2 l6 -9l-6 -60h-127l-2 -140q0 -43 16.5 -57t66.5 -14q177 0 177 241q0 127 -53.5 185.5t-165.5 58.5q-16 0 -22 -5t-7 -19z" />
<glyph unicode="&#xd1;" horiz-adv-x="729" d="M520 235h10l-2 299q-1 43 -33 43q-8 0 -20.5 -0.5t-13.5 -0.5l-4 8l7 62q85 -4 129 -4l118 5l-5 -67q-33 -5 -47.5 -19t-15.5 -44l-13 -531l-106 -13q-69 110 -141.5 221t-110.5 167l-39 56h-10l-1 -308q0 -25 7.5 -35t26.5 -10l43 3l6 -7l-10 -64q-86 4 -129 4 q-24 0 -55 -2t-49 -4l-19 -2l8 67q58 7 59 63l13 395q0 32 -16 44.5t-65 17.5l-8 10l7 58q67 -5 116 -5l96 4q58 -94 124.5 -197t104.5 -159zM249 687h-11l-39 37v11l78 96l17 4q17 0 76 -17t73 -17q11 0 27 13t27 26l11 13h11l40 -37v-10l-79 -97l-16 -4q-18 0 -77 17 t-73 17q-11 0 -27 -13t-27 -26z" />
<glyph unicode="&#xd2;" horiz-adv-x="674" d="M340 75q71 0 110.5 55.5t39.5 157.5q0 132 -42 200.5t-120 68.5q-69 0 -107 -55.5t-38 -157.5q0 -131 41 -200t116 -69zM315 -12q-133 0 -210 85t-77 231q0 158 90 254t238 96q136 0 213 -83t77 -230q0 -159 -91 -256t-240 -97zM171 762l-5 13l26 77l12 5 q115 -57 223 -104l-13 -47l-14 -9q-51 16 -108 32.5t-89 24.5z" />
<glyph unicode="&#xd3;" horiz-adv-x="674" d="M340 75q71 0 110.5 55.5t39.5 157.5q0 132 -42 200.5t-120 68.5q-69 0 -107 -55.5t-38 -157.5q0 -131 41 -200t116 -69zM315 -12q-133 0 -210 85t-77 231q0 158 90 254t238 96q136 0 213 -83t77 -230q0 -159 -91 -256t-240 -97zM508 775l-6 -13q-115 -29 -229 -65l-13 9 l-13 47l223 104l12 -5z" />
<glyph unicode="&#xd4;" horiz-adv-x="674" d="M340 75q71 0 110.5 55.5t39.5 157.5q0 132 -42 200.5t-120 68.5q-69 0 -107 -55.5t-38 -157.5q0 -131 41 -200t116 -69zM315 -12q-133 0 -210 85t-77 231q0 158 90 254t238 96q136 0 213 -83t77 -230q0 -159 -91 -256t-240 -97zM192 711l-25 41q33 24 72.5 55t62.5 50 l22 19h20q0 1 22.5 -17t63 -50.5t71.5 -56.5l-24 -41l-16 -4q-50 25 -127 58q-48 -20 -126 -58z" />
<glyph unicode="&#xd5;" horiz-adv-x="674" d="M340 75q71 0 110.5 55.5t39.5 157.5q0 132 -42 200.5t-120 68.5q-69 0 -107 -55.5t-38 -157.5q0 -131 41 -200t116 -69zM315 -12q-133 0 -210 85t-77 231q0 158 90 254t238 96q136 0 213 -83t77 -230q0 -159 -91 -256t-240 -97zM205 687h-11l-39 37v11l78 96l17 4 q17 0 76 -17t73 -17q11 0 27 13t27 26l11 13h11l40 -37v-10l-79 -97l-16 -4q-18 0 -77 17t-73 17q-11 0 -27 -13t-27 -26z" />
<glyph unicode="&#xd6;" horiz-adv-x="674" d="M340 75q71 0 110.5 55.5t39.5 157.5q0 132 -42 200.5t-120 68.5q-69 0 -107 -55.5t-38 -157.5q0 -131 41 -200t116 -69zM315 -12q-133 0 -210 85t-77 231q0 158 90 254t238 96q136 0 213 -83t77 -230q0 -159 -91 -256t-240 -97zM419 706q-29 0 -44.5 16.5t-15.5 44.5 q0 29 18.5 48t49.5 19q28 0 43.5 -16.5t15.5 -43.5q0 -30 -18.5 -49t-48.5 -19zM240 706q-28 0 -43.5 16.5t-15.5 44.5q0 29 18.5 48t48.5 19q28 0 44 -16.5t16 -43.5q0 -30 -18.5 -49t-49.5 -19z" />
<glyph unicode="&#xd7;" horiz-adv-x="506" d="M379 452l12 -5l57 -70l-127 -128l131 -122l-5 -13l-72 -58l-124 123l-123 -125l-14 3l-51 72q63 62 119 118l-130 129l3 14l74 53q66 -68 124 -125z" />
<glyph unicode="&#xd8;" horiz-adv-x="674" d="M63 -68l69 115q-104 84 -104 257q0 158 90 254t238 96q66 0 119 -21l59 96l62 -29l3 -13l-57 -91q104 -82 104 -255q0 -159 -91 -256t-240 -97q-62 0 -119 21l-70 -116l-60 29zM340 75q71 0 110.5 55.5t39.5 157.5q0 107 -29 174l-207 -355q35 -32 86 -32zM183 344 q0 -103 26 -169l204 353q-35 29 -85 29q-69 0 -107 -55.5t-38 -157.5z" />
<glyph unicode="&#xd9;" horiz-adv-x="655" d="M219 236q0 -75 32 -116t92 -41q122 0 122 130l-4 314q-1 33 -7 43.5t-25 10.5l-33 -2l-2 4l8 66q79 -3 117 -3l119 6l-6 -67q-37 -8 -47.5 -17t-10.5 -33v-311q0 -113 -66.5 -172.5t-191.5 -59.5q-232 0 -232 216v319q0 33 -6 43.5t-26 10.5l-32 -2l-2 4l9 66 q86 -3 143 -3l119 6l-7 -68q-31 -4 -42.5 -15t-13.5 -38zM177 762l-5 13l26 77l12 5q115 -57 223 -104l-13 -47l-14 -9q-51 16 -108 32.5t-89 24.5z" />
<glyph unicode="&#xda;" horiz-adv-x="655" d="M219 236q0 -75 32 -116t92 -41q122 0 122 130l-4 314q-1 33 -7 43.5t-25 10.5l-33 -2l-2 4l8 66q79 -3 117 -3l119 6l-6 -67q-37 -8 -47.5 -17t-10.5 -33v-311q0 -113 -66.5 -172.5t-191.5 -59.5q-232 0 -232 216v319q0 33 -6 43.5t-26 10.5l-32 -2l-2 4l9 66 q86 -3 143 -3l119 6l-7 -68q-31 -4 -42.5 -15t-13.5 -38zM514 775l-6 -13q-115 -29 -229 -65l-13 9l-13 47l223 104l12 -5z" />
<glyph unicode="&#xdb;" horiz-adv-x="655" d="M219 236q0 -75 32 -116t92 -41q122 0 122 130l-4 314q-1 33 -7 43.5t-25 10.5l-33 -2l-2 4l8 66q79 -3 117 -3l119 6l-6 -67q-37 -8 -47.5 -17t-10.5 -33v-311q0 -113 -66.5 -172.5t-191.5 -59.5q-232 0 -232 216v319q0 33 -6 43.5t-26 10.5l-32 -2l-2 4l9 66 q86 -3 143 -3l119 6l-7 -68q-31 -4 -42.5 -15t-13.5 -38zM199 711l-25 41q33 24 72.5 55t61.5 50l23 19h20q0 1 22.5 -17t63 -50.5t71.5 -56.5l-24 -41l-16 -4q-50 25 -127 58q-48 -20 -126 -58z" />
<glyph unicode="&#xdc;" horiz-adv-x="655" d="M219 236q0 -75 32 -116t92 -41q122 0 122 130l-4 314q-1 33 -7 43.5t-25 10.5l-33 -2l-2 4l8 66q79 -3 117 -3l119 6l-6 -67q-37 -8 -47.5 -17t-10.5 -33v-311q0 -113 -66.5 -172.5t-191.5 -59.5q-232 0 -232 216v319q0 33 -6 43.5t-26 10.5l-32 -2l-2 4l9 66 q86 -3 143 -3l119 6l-7 -68q-31 -4 -42.5 -15t-13.5 -38zM425 706q-29 0 -44.5 16.5t-15.5 44.5q0 29 18.5 48t49.5 19q28 0 43.5 -16.5t15.5 -43.5q0 -30 -18.5 -49t-48.5 -19zM246 706q-28 0 -43.5 16.5t-15.5 44.5q0 29 18.5 48t48.5 19q28 0 44 -16.5t16 -43.5 q0 -30 -18.5 -49t-49.5 -19z" />
<glyph unicode="&#xdd;" horiz-adv-x="598" d="M227 552q0 -10 18 -54t42 -97t25 -55h10l79 165q14 28 14 48t-51 23l-2 5l7 58q10 0 59.5 -2t73.5 -2l102 4l4 -7l-7 -61q-39 -13 -63 -39.5t-58 -88.5l-96 -179q-17 -33 -18 -123v-15q-1 -37 9 -51t38 -14l50 3l3 -5l-9 -69q-115 4 -165 4q-25 0 -64 -3t-66 -5l-26 -3 l7 69q57 7 73.5 25t16.5 69v30q0 47 -29 102l-98 191q-24 48 -46.5 69.5t-66.5 30.5l-3 5l8 64q89 -3 129 -3l160 8l5 -9l-5 -58q-34 -1 -47 -8t-13 -22zM497 775l-6 -13q-115 -29 -229 -65l-13 9l-13 47l223 104l12 -5z" />
<glyph unicode="&#xde;" horiz-adv-x="573" d="M260 536l-2 -24h76q227 0 227 -176q0 -82 -70 -137t-172 -55h-71v-30q0 -30 7.5 -39.5t30.5 -9.5l48 3l4 -7l-9 -64q-107 3 -153 3q-25 0 -60 -2t-58 -4l-22 -3l7 65q44 9 58.5 25.5t14.5 58.5l1 385q0 31 -7 41.5t-29 10.5l-35 -1l-5 8l7 59q10 0 61.5 -0.5t78.5 -0.5 l142 7l-6 -67q-39 -6 -50.5 -14.5t-13.5 -31.5zM254 417q-5 -122 -5 -185q50 -14 83 -14q87 14 87 108q0 55 -34 80t-108 25q-13 0 -17.5 -3t-5.5 -11z" />
<glyph unicode="&#xdf;" horiz-adv-x="932" d="M191 -9q-40 0 -77 7.5t-54 15.5l-18 7l-8 12q13 71 15 131l77 6q0 -56 19 -77.5t67 -21.5q36 0 57 14t21 37q0 8 -3 15.5t-11 14.5t-13.5 12t-20 12t-21.5 10.5t-25.5 11.5t-25.5 11q-62 28 -96 59.5t-34 82.5q0 70 64 114.5t165 44.5q37 0 73.5 -5t53.5 -11l18 -5l7 -12 q-15 -64 -21 -134l-70 -6l-8 6q1 11 1 22q0 32 -18 46.5t-57 14.5q-32 0 -52.5 -13.5t-20.5 -35.5q0 -13 7.5 -24t27 -22.5t31.5 -17t42 -18.5q32 -14 52.5 -24.5t44.5 -28.5t36 -41t12 -52q0 -72 -64 -115t-173 -43zM658 -9q-40 0 -77.5 7.5t-54.5 15.5l-18 7l-8 12 q13 71 15 131l77 6q0 -56 19 -77.5t67 -21.5q36 0 57 14t21 37q0 8 -3 15.5t-11 14.5t-13.5 12t-20 12t-21.5 10.5t-25.5 11.5t-25.5 11q-29 14 -48 25t-39.5 28t-31 39.5t-10.5 49.5q0 71 63.5 115t164.5 44q37 0 73.5 -5t53.5 -11l18 -5l7 -12q-15 -64 -20 -134l-71 -6 l-8 6q1 11 1 22q0 32 -18 46.5t-57 14.5q-32 0 -52.5 -13.5t-20.5 -35.5q0 -13 7.5 -24t27 -22.5t31.5 -17t42 -18.5q32 -14 52.5 -24.5t44.5 -28.5t36 -41t12 -52q0 -72 -64 -115t-172 -43z" />
<glyph unicode="&#xe0;" horiz-adv-x="544" d="M477 108q8 -27 21.5 -39t39.5 -14l3 -7l-6 -50q-66 2 -104 2l-145 -6l-5 6l4 54q41 4 51.5 8t10.5 19q0 6 -4 22l-14 50q-21 1 -72 1q-14 0 -45 -2l-30 -2l-18 -51q-4 -20 -4 -21q0 -13 7 -17.5t28 -4.5h31l6 -7l-7 -53q-70 4 -122 4l-102 -2l6 57q33 6 50 49l143 393 l153 13l10 -6q75 -280 114 -396zM258 390l-54 -163h53q23 0 57 2l-43 161h-13zM127 620l-5 13l26 77l12 5q115 -57 223 -104l-13 -47l-14 -9q-51 16 -108 32t-89 25z" />
<glyph unicode="&#xe1;" horiz-adv-x="544" d="M477 108q8 -27 21.5 -39t39.5 -14l3 -7l-6 -50q-66 2 -104 2l-145 -6l-5 6l4 54q41 4 51.5 8t10.5 19q0 6 -4 22l-14 50q-21 1 -72 1q-14 0 -45 -2l-30 -2l-18 -51q-4 -20 -4 -21q0 -13 7 -17.5t28 -4.5h31l6 -7l-7 -53q-70 4 -122 4l-102 -2l6 57q33 6 50 49l143 393 l153 13l10 -6q75 -280 114 -396zM258 390l-54 -163h53q23 0 57 2l-43 161h-13zM439 633l-6 -13q-115 -29 -229 -65l-13 9l-13 47l223 104l12 -5z" />
<glyph unicode="&#xe2;" horiz-adv-x="544" d="M477 108q8 -27 21.5 -39t39.5 -14l3 -7l-6 -50q-66 2 -104 2l-145 -6l-5 6l4 54q41 4 51.5 8t10.5 19q0 6 -4 22l-14 50q-21 1 -72 1q-14 0 -45 -2l-30 -2l-18 -51q-4 -20 -4 -21q0 -13 7 -17.5t28 -4.5h31l6 -7l-7 -53q-70 4 -122 4l-102 -2l6 57q33 6 50 49l143 393 l153 13l10 -6q75 -280 114 -396zM258 390l-54 -163h53q23 0 57 2l-43 161h-13zM134 569l-25 41q33 24 72.5 55t62.5 50l22 19h20q0 1 22.5 -17t63 -50.5t71.5 -56.5l-24 -41l-16 -4q-50 25 -127 58q-48 -20 -126 -58z" />
<glyph unicode="&#xe3;" horiz-adv-x="544" d="M477 108q8 -27 21.5 -39t39.5 -14l3 -7l-6 -50q-66 2 -104 2l-145 -6l-5 6l4 54q41 4 51.5 8t10.5 19q0 6 -4 22l-14 50q-21 1 -72 1q-14 0 -45 -2l-30 -2l-18 -51q-4 -20 -4 -21q0 -13 7 -17.5t28 -4.5h31l6 -7l-7 -53q-70 4 -122 4l-102 -2l6 57q33 6 50 49l143 393 l153 13l10 -6q75 -280 114 -396zM258 390l-54 -163h53q23 0 57 2l-43 161h-13zM146 545h-11l-39 37v11l78 96l17 4q17 0 76 -17t73 -17q11 0 27 13t27 26l11 13h11l40 -37v-10l-79 -97l-16 -4q-18 0 -77 17t-73 17q-11 0 -27 -13t-27 -26z" />
<glyph unicode="&#xe4;" horiz-adv-x="544" d="M477 108q8 -27 21.5 -39t39.5 -14l3 -7l-6 -50q-66 2 -104 2l-145 -6l-5 6l4 54q41 4 51.5 8t10.5 19q0 6 -4 22l-14 50q-21 1 -72 1q-14 0 -45 -2l-30 -2l-18 -51q-4 -20 -4 -21q0 -13 7 -17.5t28 -4.5h31l6 -7l-7 -53q-70 4 -122 4l-102 -2l6 57q33 6 50 49l143 393 l153 13l10 -6q75 -280 114 -396zM258 390l-54 -163h53q23 0 57 2l-43 161h-13zM361 564q-29 0 -44.5 16.5t-15.5 44.5q0 29 18.5 48t49.5 19q28 0 43.5 -16.5t15.5 -43.5q0 -30 -18.5 -49t-48.5 -19zM182 564q-28 0 -43.5 16.5t-15.5 44.5q0 29 18.5 48t48.5 19 q28 0 44 -16.5t16 -43.5q0 -30 -18.5 -49t-49.5 -19z" />
<glyph unicode="&#xe5;" horiz-adv-x="544" d="M477 108q8 -27 21.5 -39t39.5 -14l3 -7l-6 -50q-66 2 -104 2l-145 -6l-5 6l4 54q41 4 51.5 8t10.5 19q0 6 -4 22l-14 50q-21 1 -72 1q-14 0 -45 -2l-30 -2l-18 -51q-4 -20 -4 -21q0 -13 7 -17.5t28 -4.5h31l6 -7l-7 -53q-70 4 -122 4l-102 -2l6 57q33 6 50 49l143 393 l153 13l10 -6q75 -280 114 -396zM258 390l-54 -163h53q23 0 57 2l-43 161h-13zM278 589q40 0 40 36q0 19 -12 30.5t-34 11.5q-39 0 -39 -36q0 -21 14 -31.5t31 -10.5zM271 536q-42 0 -65 25t-23 66t26.5 68t69.5 27q45 0 67 -25t22 -62q0 -41 -26.5 -70t-70.5 -29z" />
<glyph unicode="&#xe6;" horiz-adv-x="751" d="M277 54q40 3 52.5 10t12.5 25q0 7 -1.5 18.5t-1.5 15.5l-8 63l-70 -8l-68 -15l-30 -65q-9 -15 -9 -25q0 -11 9 -14t36 -3l23 -5l-6 -55h-11q-11 1 -27.5 1.5t-35 1t-38 1t-31.5 0.5l-63 -2l-3 54q23 4 49 52l163 322q-4 19 -21 19l-24 -1l-7 7l7 52q102 -2 218 -2 q200 0 270 9l7 -9q-15 -73 -19 -146l-85 -6q2 20 2 31q0 31 -17.5 39t-82.5 8q-25 0 -32 -3.5t-8 -17.5l20 -129l74 10l81 17l9 -10l-10 -73l-75 -7l-68 -9l14 -83q9 -53 55 -53q64 0 83 15.5t27 72.5l79 6l7 -9q-15 -72 -23 -150l-9 -9l-37 1q-38 1 -100.5 2.5t-110.5 1.5 h-33l-133 -6l-4 6zM227 248l48 4l49 6l-17 131h-13z" />
<glyph unicode="&#xe7;" horiz-adv-x="524" d="M230 -86l21 78q-104 6 -163 71t-59 175q0 126 77.5 199t211.5 73q31 0 71.5 -5t65.5 -10l25 -5l6 -11q-17 -67 -23 -154l-92 -5q1 20 1 42q0 33 -19.5 48t-62.5 15q-117 0 -117 -160q0 -92 32 -140.5t91 -48.5q41 0 63.5 24t30.5 78l93 6q-13 -84 -15 -152l-9 -10 q-67 -25 -156 -30l-10 -36q27 -16 43.5 -26.5t34.5 -31t18 -39.5q0 -39 -40.5 -67.5t-92.5 -28.5q-28 0 -53 12t-25 31t37 63h9q1 -27 15 -41.5t37 -14.5q17 0 28.5 8.5t11.5 21.5q0 26 -86 71z" />
<glyph unicode="&#xe8;" horiz-adv-x="512" d="M221 117q0 -31 8 -39t41 -8q70 0 91 15t30 72l78 6l7 -9q-15 -72 -22 -150l-10 -9q-150 5 -259 5q-34 0 -71.5 -2t-58.5 -4l-21 -2l7 59q33 4 45 18.5t12 49.5l1 284q0 25 -5 33.5t-20 8.5l-24 -1l-7 7l7 52q97 -2 162 -2q177 0 252 9l7 -9q-14 -73 -19 -146l-85 -6 q2 20 2 31q0 31 -17 39t-81 8q-27 0 -33.5 -4t-6.5 -20l-5 -111q7 0 34 -0.5t40 -0.5l94 7l8 -9l-12 -74q-65 2 -105 2q-3 0 -63 -4q-1 -24 -1 -96zM119 620l-5 13l26 77l12 5q115 -57 223 -104l-13 -47l-14 -9q-51 16 -108 32t-89 25z" />
<glyph unicode="&#xe9;" horiz-adv-x="512" d="M221 117q0 -31 8 -39t41 -8q70 0 91 15t30 72l78 6l7 -9q-15 -72 -22 -150l-10 -9q-150 5 -259 5q-34 0 -71.5 -2t-58.5 -4l-21 -2l7 59q33 4 45 18.5t12 49.5l1 284q0 25 -5 33.5t-20 8.5l-24 -1l-7 7l7 52q97 -2 162 -2q177 0 252 9l7 -9q-14 -73 -19 -146l-85 -6 q2 20 2 31q0 31 -17 39t-81 8q-27 0 -33.5 -4t-6.5 -20l-5 -111q7 0 34 -0.5t40 -0.5l94 7l8 -9l-12 -74q-65 2 -105 2q-3 0 -63 -4q-1 -24 -1 -96zM436 633l-6 -13q-115 -29 -229 -65l-13 9l-13 47l223 104l12 -5z" />
<glyph unicode="&#xea;" horiz-adv-x="512" d="M221 117q0 -31 8 -39t41 -8q70 0 91 15t30 72l78 6l7 -9q-15 -72 -22 -150l-10 -9q-150 5 -259 5q-34 0 -71.5 -2t-58.5 -4l-21 -2l7 59q33 4 45 18.5t12 49.5l1 284q0 25 -5 33.5t-20 8.5l-24 -1l-7 7l7 52q97 -2 162 -2q177 0 252 9l7 -9q-14 -73 -19 -146l-85 -6 q2 20 2 31q0 31 -17 39t-81 8q-27 0 -33.5 -4t-6.5 -20l-5 -111q7 0 34 -0.5t40 -0.5l94 7l8 -9l-12 -74q-65 2 -105 2q-3 0 -63 -4q-1 -24 -1 -96zM132 569l-25 41q33 24 72.5 55t62.5 50l22 19h20q0 1 22.5 -17t63 -50.5t71.5 -56.5l-24 -41l-16 -4q-50 25 -127 58 q-48 -20 -126 -58z" />
<glyph unicode="&#xeb;" horiz-adv-x="512" d="M221 117q0 -31 8 -39t41 -8q70 0 91 15t30 72l78 6l7 -9q-15 -72 -22 -150l-10 -9q-150 5 -259 5q-34 0 -71.5 -2t-58.5 -4l-21 -2l7 59q33 4 45 18.5t12 49.5l1 284q0 25 -5 33.5t-20 8.5l-24 -1l-7 7l7 52q97 -2 162 -2q177 0 252 9l7 -9q-14 -73 -19 -146l-85 -6 q2 20 2 31q0 31 -17 39t-81 8q-27 0 -33.5 -4t-6.5 -20l-5 -111q7 0 34 -0.5t40 -0.5l94 7l8 -9l-12 -74q-65 2 -105 2q-3 0 -63 -4q-1 -24 -1 -96zM358 564q-29 0 -44.5 16.5t-15.5 44.5q0 29 19 48t49 19q28 0 43.5 -16.5t15.5 -43.5q0 -30 -18.5 -49t-48.5 -19zM179 564 q-28 0 -43.5 16.5t-15.5 44.5q0 29 18.5 48t48.5 19q28 0 44 -16.5t16 -43.5q0 -30 -18.5 -49t-49.5 -19z" />
<glyph unicode="&#xec;" horiz-adv-x="320" d="M230 406q-9 -157 -9 -297q0 -32 6 -42.5t25 -10.5l32 2l5 -6l-7 -54q-90 2 -127 2l-120 -6l6 56q35 7 46.5 19.5t11.5 45.5v289q0 25 -6 33t-23 8l-27 -1l-5 8l6 50q12 0 55 -0.5t65 -0.5l123 5l-5 -58q-31 -4 -40.5 -11.5t-11.5 -30.5zM9 620l-5 13l26 77l12 5 q115 -57 223 -104l-13 -47l-14 -9q-51 16 -108 32t-89 25z" />
<glyph unicode="&#xed;" horiz-adv-x="320" d="M230 406q-9 -157 -9 -297q0 -32 6 -42.5t25 -10.5l32 2l5 -6l-7 -54q-90 2 -127 2l-120 -6l6 56q35 7 46.5 19.5t11.5 45.5v289q0 25 -6 33t-23 8l-27 -1l-5 8l6 50q12 0 55 -0.5t65 -0.5l123 5l-5 -58q-31 -4 -40.5 -11.5t-11.5 -30.5zM325 633l-6 -13 q-115 -29 -229 -65l-13 9l-13 47l223 104l12 -5z" />
<glyph unicode="&#xee;" horiz-adv-x="320" d="M230 406q-9 -157 -9 -297q0 -32 6 -42.5t25 -10.5l32 2l5 -6l-7 -54q-90 2 -127 2l-120 -6l6 56q35 7 46.5 19.5t11.5 45.5v289q0 25 -6 33t-23 8l-27 -1l-5 8l6 50q12 0 55 -0.5t65 -0.5l123 5l-5 -58q-31 -4 -40.5 -11.5t-11.5 -30.5zM21 569l-25 41q33 24 72.5 55 t61.5 50l23 19h20q0 1 22.5 -17t63 -50.5t71.5 -56.5l-24 -41l-16 -4q-50 25 -127 58q-48 -20 -126 -58z" />
<glyph unicode="&#xef;" horiz-adv-x="320" d="M230 406q-9 -157 -9 -297q0 -32 6 -42.5t25 -10.5l32 2l5 -6l-7 -54q-90 2 -127 2l-120 -6l6 56q35 7 46.5 19.5t11.5 45.5v289q0 25 -6 33t-23 8l-27 -1l-5 8l6 50q12 0 55 -0.5t65 -0.5l123 5l-5 -58q-31 -4 -40.5 -11.5t-11.5 -30.5zM247 564q-29 0 -44.5 16.5 t-15.5 44.5q0 29 18.5 48t49.5 19q28 0 43.5 -16.5t15.5 -43.5q0 -30 -18.5 -49t-48.5 -19zM68 564q-28 0 -43.5 16.5t-15.5 44.5q0 29 18.5 48t48.5 19q28 0 44 -16.5t16 -43.5q0 -30 -18.5 -49t-49.5 -19z" />
<glyph unicode="&#xf0;" horiz-adv-x="602" d="M285 -9q-78 9 -126 9l-109 -8l6 60q36 5 47 20t11 56v90h-91l-7 6l9 53h89v125q0 25 -5 33.5t-20 8.5l-26 -2l-6 8l7 53q77 -2 110 -2l132 4q126 0 196 -61.5t70 -172.5q0 -125 -79.5 -202.5t-207.5 -77.5zM244 408l-7 -130l93 1l6 -7l-6 -54h-95l-1 -100q0 -31 12 -41 t47 -10q134 0 134 179q0 97 -38 139.5t-123 42.5q-13 0 -17.5 -4.5t-4.5 -15.5z" />
<glyph unicode="&#xf1;" horiz-adv-x="622" d="M432 208h9l-3 203q-1 19 -7 26.5t-20 7.5h-27l-4 6l6 53q75 -3 114 -3q102 0 102 4l-4 -58q-28 -4 -39.5 -15t-12.5 -34l-11 -405l-103 -10q-53 79 -109 158t-85 119l-30 39h-9v-207q1 -21 7.5 -29t22.5 -8l33 2l6 -5l-9 -55q-76 3 -111 3l-108 -6l7 58q25 3 36 14t12 35 l11 296q0 25 -13 34.5t-53 14.5l-7 8l6 51q56 -4 102 -4l86 3q44 -68 95 -142t80 -114zM193 545h-11l-39 37v11l78 96l17 4q17 0 76 -17t73 -17q11 0 27 13t27 26l11 13h11l40 -37v-10l-79 -97l-16 -4q-18 0 -77 17t-73 17q-11 0 -27 -13t-27 -26z" />
<glyph unicode="&#xf2;" horiz-adv-x="570" d="M288 68q52 0 80.5 39t28.5 115q0 203 -119 203q-105 0 -105 -153q0 -204 115 -204zM269 -9q-113 0 -176.5 65.5t-63.5 182.5q0 125 73 198t198 73q115 0 178 -64t63 -181q0 -126 -74 -200t-198 -74zM139 620l-5 13l26 77l12 5q115 -57 223 -104l-13 -47l-14 -9 q-51 16 -108 32t-89 25z" />
<glyph unicode="&#xf3;" horiz-adv-x="570" d="M288 68q52 0 80.5 39t28.5 115q0 203 -119 203q-105 0 -105 -153q0 -204 115 -204zM269 -9q-113 0 -176.5 65.5t-63.5 182.5q0 125 73 198t198 73q115 0 178 -64t63 -181q0 -126 -74 -200t-198 -74zM446 633l-6 -13q-115 -29 -229 -65l-13 9l-13 47l223 104l12 -5z" />
<glyph unicode="&#xf4;" horiz-adv-x="570" d="M288 68q52 0 80.5 39t28.5 115q0 203 -119 203q-105 0 -105 -153q0 -204 115 -204zM269 -9q-113 0 -176.5 65.5t-63.5 182.5q0 125 73 198t198 73q115 0 178 -64t63 -181q0 -126 -74 -200t-198 -74zM146 569l-25 41q33 24 72.5 55t62.5 50l22 19h20q0 1 22.5 -17 t63 -50.5t71.5 -56.5l-24 -41l-16 -4q-50 25 -127 58q-48 -20 -126 -58z" />
<glyph unicode="&#xf5;" horiz-adv-x="570" d="M288 68q52 0 80.5 39t28.5 115q0 203 -119 203q-105 0 -105 -153q0 -204 115 -204zM269 -9q-113 0 -176.5 65.5t-63.5 182.5q0 125 73 198t198 73q115 0 178 -64t63 -181q0 -126 -74 -200t-198 -74zM158 545h-11l-39 37v11l78 96l17 4q17 0 76 -17t73 -17q11 0 27 13 t27 26l11 13h11l40 -37v-10l-79 -97l-16 -4q-18 0 -77 17t-73 17q-11 0 -27 -13t-27 -26z" />
<glyph unicode="&#xf6;" horiz-adv-x="570" d="M288 68q52 0 80.5 39t28.5 115q0 203 -119 203q-105 0 -105 -153q0 -204 115 -204zM269 -9q-113 0 -176.5 65.5t-63.5 182.5q0 125 73 198t198 73q115 0 178 -64t63 -181q0 -126 -74 -200t-198 -74zM373 564q-29 0 -44.5 16.5t-15.5 44.5q0 29 18.5 48t49.5 19 q28 0 43.5 -16.5t15.5 -43.5q0 -30 -18.5 -49t-48.5 -19zM194 564q-28 0 -43.5 16.5t-15.5 44.5q0 29 18.5 48t48.5 19q28 0 44 -16.5t16 -43.5q0 -30 -18.5 -49t-49.5 -19z" />
<glyph unicode="&#xf7;" horiz-adv-x="506" d="M482 312l7 -12l-10 -92l-227 -1l-228 -1l-7 11l14 90q145 -1 234 -1zM245 7q-33 0 -50.5 19t-17.5 49q0 34 20.5 55t54.5 21q32 0 50 -19t18 -50q0 -33 -20.5 -54t-54.5 -21zM245 362q-33 0 -50.5 19t-17.5 49q0 34 20.5 55t54.5 21q32 0 50 -19t18 -50q0 -33 -20.5 -54 t-54.5 -21z" />
<glyph unicode="&#xf8;" horiz-adv-x="570" d="M45 -48l62 91q-78 66 -78 196q0 125 73 198t198 73q54 0 96 -15l54 80l60 -30l1 -11l-50 -74q80 -63 80 -195q0 -126 -74 -200t-198 -74q-54 0 -100 16l-64 -94l-58 31zM288 68q52 0 80.5 39t28.5 115q0 72 -15 117l-158 -249q25 -22 64 -22zM173 272q0 -63 11 -109 l154 243q-27 19 -60 19q-105 0 -105 -153z" />
<glyph unicode="&#xf9;" horiz-adv-x="552" d="M197 179q0 -51 24 -80t69 -29q90 0 90 91l-2 242q-1 25 -6 33.5t-19 8.5l-26 -1l-2 3l8 56q66 -2 97 -2l103 4l-5 -58q-30 -7 -38 -13.5t-8 -24.5v-234q0 -90 -55 -137t-159 -47q-99 0 -146.5 41t-47.5 126v245q0 26 -5.5 34t-21.5 8l-25 -1l-2 3l8 56q73 -2 125 -2 l101 4l-6 -59q-25 -2 -34.5 -11t-10.5 -29zM134 620l-5 13l26 77l12 5q115 -57 223 -104l-13 -47l-14 -9q-51 16 -108 32t-89 25z" />
<glyph unicode="&#xfa;" horiz-adv-x="552" d="M197 179q0 -51 24 -80t69 -29q90 0 90 91l-2 242q-1 25 -6 33.5t-19 8.5l-26 -1l-2 3l8 56q66 -2 97 -2l103 4l-5 -58q-30 -7 -38 -13.5t-8 -24.5v-234q0 -90 -55 -137t-159 -47q-99 0 -146.5 41t-47.5 126v245q0 26 -5.5 34t-21.5 8l-25 -1l-2 3l8 56q73 -2 125 -2 l101 4l-6 -59q-25 -2 -34.5 -11t-10.5 -29zM446 633l-6 -13q-115 -29 -229 -65l-13 9l-13 47l223 104l12 -5z" />
<glyph unicode="&#xfb;" horiz-adv-x="552" d="M197 179q0 -51 24 -80t69 -29q90 0 90 91l-2 242q-1 25 -6 33.5t-19 8.5l-26 -1l-2 3l8 56q66 -2 97 -2l103 4l-5 -58q-30 -7 -38 -13.5t-8 -24.5v-234q0 -90 -55 -137t-159 -47q-99 0 -146.5 41t-47.5 126v245q0 26 -5.5 34t-21.5 8l-25 -1l-2 3l8 56q73 -2 125 -2 l101 4l-6 -59q-25 -2 -34.5 -11t-10.5 -29zM146 569l-25 41q33 24 72.5 55t62.5 50l22 19h20q0 1 22.5 -17t63 -50.5t71.5 -56.5l-24 -41l-16 -4q-50 25 -127 58q-48 -20 -126 -58z" />
<glyph unicode="&#xfc;" horiz-adv-x="552" d="M197 179q0 -51 24 -80t69 -29q90 0 90 91l-2 242q-1 25 -6 33.5t-19 8.5l-26 -1l-2 3l8 56q66 -2 97 -2l103 4l-5 -58q-30 -7 -38 -13.5t-8 -24.5v-234q0 -90 -55 -137t-159 -47q-99 0 -146.5 41t-47.5 126v245q0 26 -5.5 34t-21.5 8l-25 -1l-2 3l8 56q73 -2 125 -2 l101 4l-6 -59q-25 -2 -34.5 -11t-10.5 -29zM373 564q-29 0 -44.5 16.5t-15.5 44.5q0 29 18.5 48t49.5 19q28 0 43.5 -16.5t15.5 -43.5q0 -30 -18.5 -49t-48.5 -19zM194 564q-28 0 -43.5 16.5t-15.5 44.5q0 29 18.5 48t48.5 19q28 0 44 -16.5t16 -43.5q0 -30 -18.5 -49 t-49.5 -19z" />
<glyph unicode="&#xfd;" horiz-adv-x="524" d="M211 425q0 -7 13.5 -37t30.5 -65t20 -43h9l57 115q12 24 12 36q0 16 -40 17l-2 4l6 51q12 0 53.5 -1.5t61.5 -1.5l87 3l3 -6l-6 -53q-31 -11 -52 -33.5t-46 -65.5l-78 -140q-14 -28 -14 -97q-1 -28 8 -39t31 -11l42 2l2 -4l-7 -60q-101 4 -145 4l-138 -8l6 59q49 5 63 18 t14 52v20q0 34 -23 77l-83 150q-18 33 -37 49t-53 25l-3 4l7 56q79 -2 111 -2l136 6l5 -8l-6 -50q-45 -1 -45 -23zM443 633l-6 -13q-115 -29 -229 -65l-13 9l-13 47l223 104l12 -5z" />
<glyph unicode="&#xfe;" horiz-adv-x="497" d="M230 415q0 -4 -0.5 -8.5t-0.5 -5.5h61q191 0 191 -141q0 -64 -57.5 -106.5t-144.5 -42.5h-58v-22q0 -20 6 -26.5t25 -6.5l37 2l5 -6l-7 -54q-94 2 -132 2l-120 -6l6 56q35 6 46.5 19t11.5 46v289q0 25 -6 33t-23 8l-27 -1l-5 8l6 50q12 0 55 -0.5t65 -0.5l123 5l-5 -58 q-32 -5 -41 -11t-11 -22zM225 317q0 -17 -1 -45.5t-1.5 -49.5t-0.5 -35q35 -10 64 -10q65 11 65 78q0 39 -25.5 57t-81.5 18q-18 0 -19 -13z" />
<glyph unicode="&#xff;" horiz-adv-x="524" d="M211 425q0 -7 13.5 -37t30.5 -65t20 -43h9l57 115q12 24 12 36q0 16 -40 17l-2 4l6 51q12 0 53.5 -1.5t61.5 -1.5l87 3l3 -6l-6 -53q-31 -11 -52 -33.5t-46 -65.5l-78 -140q-14 -28 -14 -97q-1 -28 8 -39t31 -11l42 2l2 -4l-7 -60q-101 4 -145 4l-138 -8l6 59q49 5 63 18 t14 52v20q0 34 -23 77l-83 150q-18 33 -37 49t-53 25l-3 4l7 56q79 -2 111 -2l136 6l5 -8l-6 -50q-45 -1 -45 -23zM364 564q-29 0 -44.5 16.5t-15.5 44.5q0 29 19 48t49 19q28 0 43.5 -16.5t15.5 -43.5q0 -30 -18.5 -49t-48.5 -19zM185 564q-28 0 -43.5 16.5t-15.5 44.5 q0 29 18.5 48t48.5 19q28 0 44 -16.5t16 -43.5q0 -30 -18.5 -49t-49.5 -19z" />
<glyph unicode="&#x100;" horiz-adv-x="625" d="M552 132q11 -36 28 -51t50 -18l4 -7l-7 -59q-79 3 -123 3q-38 0 -80.5 -2t-65.5 -4l-23 -2l-6 8l5 60q49 4 63 11t14 26q0 10 -5 33l-20 76q-26 1 -91 1q-39 0 -95 -7l-25 -75q-6 -21 -6 -31q0 -17 10 -23.5t36 -6.5h43l4 -7l-7 -63q-82 6 -146 6l-121 -3l8 67 q24 4 38.5 18.5t26.5 47.5l178 507l159 16l11 -5q90 -347 143 -516zM296 510l-72 -224h70q32 0 74 4l-58 220h-14zM463 800l8 -14l-12 -77l-141 -1l-139 -1l-11 12l14 76q95 -1 154 -1z" />
<glyph unicode="&#x101;" horiz-adv-x="544" d="M477 108q8 -27 21.5 -39t39.5 -14l3 -7l-6 -50q-66 2 -104 2l-145 -6l-5 6l4 54q41 4 51.5 8t10.5 19q0 6 -4 22l-14 50q-21 1 -72 1q-14 0 -45 -2l-30 -2l-18 -51q-4 -20 -4 -21q0 -13 7 -17.5t28 -4.5h31l6 -7l-7 -53q-70 4 -122 4l-102 -2l6 57q33 6 50 49l143 393 l153 13l10 -6q75 -280 114 -396zM258 390l-54 -163h53q23 0 57 2l-43 161h-13zM420 658l8 -14l-12 -77l-141 -1l-139 -1l-11 12l14 76q95 -1 154 -1z" />
<glyph unicode="&#x102;" horiz-adv-x="625" d="M552 132q11 -36 28 -51t50 -18l4 -7l-7 -59q-79 3 -123 3q-38 0 -80.5 -2t-65.5 -4l-23 -2l-6 8l5 60q49 4 63 11t14 26q0 10 -5 33l-20 76q-26 1 -91 1q-39 0 -95 -7l-25 -75q-6 -21 -6 -31q0 -17 10 -23.5t36 -6.5h43l4 -7l-7 -63q-82 6 -146 6l-121 -3l8 67 q24 4 38.5 18.5t26.5 47.5l178 507l159 16l11 -5q90 -347 143 -516zM296 510l-72 -224h70q32 0 74 4l-58 220h-14zM317 788q76 0 103 60l17 -4l28 -35q-15 -50 -52 -83t-96 -33t-96 33t-52 83l28 35l17 4q27 -60 103 -60z" />
<glyph unicode="&#x103;" horiz-adv-x="544" d="M477 108q8 -27 21.5 -39t39.5 -14l3 -7l-6 -50q-66 2 -104 2l-145 -6l-5 6l4 54q41 4 51.5 8t10.5 19q0 6 -4 22l-14 50q-21 1 -72 1q-14 0 -45 -2l-30 -2l-18 -51q-4 -20 -4 -21q0 -13 7 -17.5t28 -4.5h31l6 -7l-7 -53q-70 4 -122 4l-102 -2l6 57q33 6 50 49l143 393 l153 13l10 -6q75 -280 114 -396zM258 390l-54 -163h53q23 0 57 2l-43 161h-13zM275 651q76 0 103 60l17 -4l28 -35q-15 -50 -52 -83t-96 -33t-96 33t-52 83l28 35l17 4q27 -60 103 -60z" />
<glyph unicode="&#x104;" horiz-adv-x="625" d="M615 -146l18 -29q-52 -49 -102 -66q-54 0 -86.5 24.5t-32.5 66.5q0 32 22 66.5t69 83.5q-38 0 -80 -2t-65 -4l-23 -2l-6 8l5 60q49 4 63 11t14 26q0 10 -5 33l-20 76q-26 1 -91 1q-39 0 -95 -7l-25 -75q-6 -21 -6 -31q0 -17 10 -23.5t36 -6.5h43l4 -7l-7 -63 q-82 6 -146 6l-121 -3l8 67q24 4 38.5 18.5t26.5 47.5l178 507l159 16l11 -5q90 -347 143 -516q11 -36 28 -51t50 -18l4 -7l-7 -59q-32 2 -65 3q-39 -47 -54 -73t-15 -49q0 -21 14 -34.5t36 -13.5q16 0 34 6t28 12zM296 510l-72 -224h70q32 0 74 4l-58 220h-14z" />
<glyph unicode="&#x105;" horiz-adv-x="544" d="M534 -148l17 -28q-51 -49 -100 -65q-54 0 -85.5 23.5t-31.5 65.5q0 32 22.5 67t70.5 85l-141 -6l-5 6l4 54q41 4 51.5 8t10.5 19q0 6 -4 22l-14 50q-21 1 -72 1q-14 0 -45 -2l-30 -2l-18 -51q-4 -20 -4 -21q0 -13 7 -17.5t28 -4.5h31l6 -7l-7 -53q-70 4 -122 4l-102 -2 l6 57q33 6 50 49l143 393l153 13l10 -6q75 -280 114 -396q8 -27 21.5 -39t39.5 -14l3 -7l-6 -50q-24 1 -50 2q-40 -47 -55.5 -73.5t-15.5 -50.5q0 -21 13.5 -34.5t35.5 -13.5q15 0 33 6t28 12zM258 390l-54 -163h53q23 0 57 2l-43 161h-13z" />
<glyph unicode="&#x106;" horiz-adv-x="617" d="M325 -12q-138 0 -217.5 84.5t-79.5 231.5q0 160 95 255t255 95q37 0 85 -6t77 -12l29 -7l6 -13q-20 -83 -26 -189l-99 -7q2 27 2 53q0 43 -26.5 63.5t-82.5 20.5q-159 0 -159 -219q0 -122 44 -189t122 -67q54 0 84 32.5t42 105.5l99 7q-17 -104 -20 -187l-10 -12 q-96 -40 -220 -40zM522 775l-6 -13q-115 -29 -229 -65l-13 9l-13 47l223 104l12 -5z" />
<glyph unicode="&#x107;" horiz-adv-x="524" d="M274 -9q-114 0 -179.5 66t-65.5 181q0 126 77.5 199t211.5 73q31 0 71.5 -5t65.5 -10l25 -5l6 -11q-17 -67 -23 -154l-92 -5q1 20 1 42q0 33 -19.5 48t-62.5 15q-117 0 -117 -160q0 -92 32 -140.5t91 -48.5q41 0 63.5 24t30.5 78l93 6q-13 -84 -15 -152l-9 -10 q-82 -31 -185 -31zM456 633l-6 -13q-115 -29 -229 -65l-13 9l-13 47l223 104l12 -5z" />
<glyph unicode="&#x108;" horiz-adv-x="617" d="M325 -12q-138 0 -217.5 84.5t-79.5 231.5q0 160 95 255t255 95q37 0 85 -6t77 -12l29 -7l6 -13q-20 -83 -26 -189l-99 -7q2 27 2 53q0 43 -26.5 63.5t-82.5 20.5q-159 0 -159 -219q0 -122 44 -189t122 -67q54 0 84 32.5t42 105.5l99 7q-17 -104 -20 -187l-10 -12 q-96 -40 -220 -40zM208 709l-29 41q32 30 70 68.5t60 61.5l22 24h20q80 -86 151 -154l-29 -41l-15 -4q-20 16 -117 83q-71 -46 -117 -83z" />
<glyph unicode="&#x109;" horiz-adv-x="524" d="M274 -9q-114 0 -179.5 66t-65.5 181q0 126 77.5 199t211.5 73q31 0 71.5 -5t65.5 -10l25 -5l6 -11q-17 -67 -23 -154l-92 -5q1 20 1 42q0 33 -19.5 48t-62.5 15q-117 0 -117 -160q0 -92 32 -140.5t91 -48.5q41 0 63.5 24t30.5 78l93 6q-13 -84 -15 -152l-9 -10 q-82 -31 -185 -31zM157 567l-29 41q32 30 70 68.5t60 61.5l22 24h20q80 -86 151 -154l-29 -41l-15 -4q-20 16 -117 83q-71 -46 -117 -83z" />
<glyph unicode="&#x10a;" horiz-adv-x="617" d="M325 -12q-138 0 -217.5 84.5t-79.5 231.5q0 160 95 255t255 95q37 0 85 -6t77 -12l29 -7l6 -13q-20 -83 -26 -189l-99 -7q2 27 2 53q0 43 -26.5 63.5t-82.5 20.5q-159 0 -159 -219q0 -122 44 -189t122 -67q54 0 84 32.5t42 105.5l99 7q-17 -104 -20 -187l-10 -12 q-96 -40 -220 -40zM344 702q-34 0 -52 20t-18 52q0 35 22 57.5t58 22.5q33 0 51.5 -19.5t18.5 -52.5q0 -35 -22 -57.5t-58 -22.5z" />
<glyph unicode="&#x10b;" horiz-adv-x="524" d="M274 -9q-114 0 -179.5 66t-65.5 181q0 126 77.5 199t211.5 73q31 0 71.5 -5t65.5 -10l25 -5l6 -11q-17 -67 -23 -154l-92 -5q1 20 1 42q0 33 -19.5 48t-62.5 15q-117 0 -117 -160q0 -92 32 -140.5t91 -48.5q41 0 63.5 24t30.5 78l93 6q-13 -84 -15 -152l-9 -10 q-82 -31 -185 -31zM289 565q-34 0 -52 20t-18 52q0 35 22 57.5t58 22.5q33 0 51.5 -19.5t18.5 -52.5q0 -35 -22 -57.5t-58 -22.5z" />
<glyph unicode="&#x10c;" horiz-adv-x="617" d="M325 -12q-138 0 -217.5 84.5t-79.5 231.5q0 160 95 255t255 95q37 0 85 -6t77 -12l29 -7l6 -13q-20 -83 -26 -189l-99 -7q2 27 2 53q0 43 -26.5 63.5t-82.5 20.5q-159 0 -159 -219q0 -122 44 -189t122 -67q54 0 84 32.5t42 105.5l99 7q-17 -104 -20 -187l-10 -12 q-96 -40 -220 -40zM489 861l25 -41q-33 -24 -72.5 -55t-61.5 -50l-23 -19h-20q-83 70 -157 124l24 41l16 4q50 -25 127 -58q48 20 126 58z" />
<glyph unicode="&#x10d;" horiz-adv-x="524" d="M274 -9q-114 0 -179.5 66t-65.5 181q0 126 77.5 199t211.5 73q31 0 71.5 -5t65.5 -10l25 -5l6 -11q-17 -67 -23 -154l-92 -5q1 20 1 42q0 33 -19.5 48t-62.5 15q-117 0 -117 -160q0 -92 32 -140.5t91 -48.5q41 0 63.5 24t30.5 78l93 6q-13 -84 -15 -152l-9 -10 q-82 -31 -185 -31zM435 719l25 -41q-33 -24 -72.5 -55t-61.5 -50l-23 -19h-20q-83 70 -157 124l24 41l16 4q50 -25 127 -58q48 20 126 58z" />
<glyph unicode="&#x10e;" horiz-adv-x="693" d="M318 -12q-94 12 -151 12q-24 0 -56 -2.5t-53 -5.5l-20 -2l7 68q43 8 57.5 25.5t14.5 59.5l1 379q0 32 -6.5 43t-25.5 11l-33 -2l-6 9l8 62q89 -3 128 -3l159 5q152 0 237.5 -79.5t85.5 -220.5q0 -158 -97 -258.5t-250 -100.5zM289 560q-16 0 -22 -5t-7 -19 q-13 -273 -13 -390q0 -43 16.5 -57t66.5 -14q178 0 178 241q0 127 -53.5 185.5t-165.5 58.5zM481 861l25 -41q-33 -24 -72.5 -55t-61.5 -50l-23 -19h-20q-83 70 -157 124l24 41l16 4q50 -25 127 -58q48 20 126 58z" />
<glyph unicode="&#x10f;" horiz-adv-x="587" d="M271 -9q-77 9 -126 9l-108 -8l5 60q34 5 46 19t12 46v285q0 25 -5 33.5t-19 8.5l-27 -2l-6 8l7 53q78 -2 110 -2l132 4q127 0 196.5 -61t69.5 -173q0 -125 -79.5 -202.5t-207.5 -77.5zM252 428q-12 0 -16.5 -4t-5.5 -16q-10 -188 -10 -290q0 -30 12 -40.5t47 -10.5 q135 0 135 179q0 97 -38.5 139.5t-123.5 42.5zM432 719l25 -41q-33 -24 -72.5 -55t-62.5 -50l-22 -19h-20q-83 70 -157 124l24 41l16 4q50 -25 127 -58q48 20 126 58z" />
<glyph unicode="&#x110;" horiz-adv-x="709" d="M333 -12q-95 12 -152 12q-23 0 -55 -2.5t-52 -5.5l-21 -2l7 68q45 8 58.5 27.5t13.5 76.5v124h-116l-8 7l10 60h114v169q0 32 -6 43t-25 11l-33 -2l-6 9l8 62q88 -3 128 -3l158 5q151 0 237.5 -80t86.5 -220q0 -158 -97.5 -258.5t-249.5 -100.5zM274 536l-8 -183l125 2 l6 -9l-6 -60h-127l-2 -140q0 -43 16.5 -57t66.5 -14q177 0 177 241q0 127 -53.5 185.5t-165.5 58.5q-16 0 -22 -5t-7 -19z" />
<glyph unicode="&#x111;" horiz-adv-x="602" d="M285 -9q-78 9 -126 9l-109 -8l6 60q36 5 47 20t11 56v90h-91l-7 6l9 53h89v125q0 25 -5 33.5t-20 8.5l-26 -2l-6 8l7 53q77 -2 110 -2l132 4q126 0 196 -61.5t70 -172.5q0 -125 -79.5 -202.5t-207.5 -77.5zM244 408l-7 -130l93 1l6 -7l-6 -54h-95l-1 -100q0 -31 12 -41 t47 -10q134 0 134 179q0 97 -38 139.5t-123 42.5q-13 0 -17.5 -4.5t-4.5 -15.5z" />
<glyph unicode="&#x112;" horiz-adv-x="597" d="M247 139q0 -40 10.5 -50t53.5 -10q49 0 75 3.5t44 16.5t24.5 33.5t12.5 60.5l85 7l7 -10q-18 -90 -28 -186l-9 -11q-188 7 -312 7q-40 0 -83.5 -2.5t-66.5 -5.5l-24 -2l8 68q41 6 56.5 24.5t15.5 61.5l1 379q0 33 -6.5 43.5t-26.5 10.5l-30 -2l-7 9l8 61q110 -3 185 -3 q213 0 304 12l8 -11q-18 -89 -23 -182l-92 -6q2 26 2 40q0 41 -21 52t-105 11q-35 0 -43.5 -5.5t-9.5 -27.5l-7 -155q9 0 43 -0.5t50 -0.5l116 8l8 -9l-14 -86q-80 3 -130 3q-25 0 -76 -6q-3 -110 -3 -140zM463 800l8 -14l-12 -77l-141 -1l-139 -1l-11 12l14 76 q95 -1 154 -1z" />
<glyph unicode="&#x113;" horiz-adv-x="512" d="M221 117q0 -31 8 -39t41 -8q70 0 91 15t30 72l78 6l7 -9q-15 -72 -22 -150l-10 -9q-150 5 -259 5q-34 0 -71.5 -2t-58.5 -4l-21 -2l7 59q33 4 45 18.5t12 49.5l1 284q0 25 -5 33.5t-20 8.5l-24 -1l-7 7l7 52q97 -2 162 -2q177 0 252 9l7 -9q-14 -73 -19 -146l-85 -6 q2 20 2 31q0 31 -17 39t-81 8q-27 0 -33.5 -4t-6.5 -20l-5 -111q7 0 34 -0.5t40 -0.5l94 7l8 -9l-12 -74q-65 2 -105 2q-3 0 -63 -4q-1 -24 -1 -96zM418 658l8 -14l-12 -77l-141 -1l-139 -1l-11 12l14 76q95 -1 154 -1z" />
<glyph unicode="&#x114;" horiz-adv-x="597" d="M247 139q0 -40 10.5 -50t53.5 -10q49 0 75 3.5t44 16.5t24.5 33.5t12.5 60.5l85 7l7 -10q-18 -90 -28 -186l-9 -11q-188 7 -312 7q-40 0 -83.5 -2.5t-66.5 -5.5l-24 -2l8 68q41 6 56.5 24.5t15.5 61.5l1 379q0 33 -6.5 43.5t-26.5 10.5l-30 -2l-7 9l8 61q110 -3 185 -3 q213 0 304 12l8 -11q-18 -89 -23 -182l-92 -6q2 26 2 40q0 41 -21 52t-105 11q-35 0 -43.5 -5.5t-9.5 -27.5l-7 -155q9 0 43 -0.5t50 -0.5l116 8l8 -9l-14 -86q-80 3 -130 3q-25 0 -76 -6q-3 -110 -3 -140zM327 812q76 0 103 68l17 -4l28 -34q-15 -54 -52 -89.5t-96 -35.5 t-96 35.5t-52 89.5l28 34l17 4q27 -68 103 -68z" />
<glyph unicode="&#x115;" horiz-adv-x="512" d="M221 117q0 -31 8 -39t41 -8q70 0 91 15t30 72l78 6l7 -9q-15 -72 -22 -150l-10 -9q-150 5 -259 5q-34 0 -71.5 -2t-58.5 -4l-21 -2l7 59q33 4 45 18.5t12 49.5l1 284q0 25 -5 33.5t-20 8.5l-24 -1l-7 7l7 52q97 -2 162 -2q177 0 252 9l7 -9q-14 -73 -19 -146l-85 -6 q2 20 2 31q0 31 -17 39t-81 8q-27 0 -33.5 -4t-6.5 -20l-5 -111q7 0 34 -0.5t40 -0.5l94 7l8 -9l-12 -74q-65 2 -105 2q-3 0 -63 -4q-1 -24 -1 -96zM279 665q76 0 103 68l17 -4l28 -34q-15 -54 -52 -89.5t-96 -35.5t-96 35.5t-52 89.5l28 34l17 4q27 -68 103 -68z" />
<glyph unicode="&#x116;" horiz-adv-x="597" d="M247 139q0 -40 10.5 -50t53.5 -10q49 0 75 3.5t44 16.5t24.5 33.5t12.5 60.5l85 7l7 -10q-18 -90 -28 -186l-9 -11q-188 7 -312 7q-40 0 -83.5 -2.5t-66.5 -5.5l-24 -2l8 68q41 6 56.5 24.5t15.5 61.5l1 379q0 33 -6.5 43.5t-26.5 10.5l-30 -2l-7 9l8 61q110 -3 185 -3 q213 0 304 12l8 -11q-18 -89 -23 -182l-92 -6q2 26 2 40q0 41 -21 52t-105 11q-35 0 -43.5 -5.5t-9.5 -27.5l-7 -155q9 0 43 -0.5t50 -0.5l116 8l8 -9l-14 -86q-80 3 -130 3q-25 0 -76 -6q-3 -110 -3 -140zM314 702q-34 0 -52 20t-18 52q0 35 22 57.5t58 22.5 q33 0 51.5 -19.5t18.5 -52.5q0 -35 -22 -57.5t-58 -22.5z" />
<glyph unicode="&#x117;" horiz-adv-x="512" d="M221 117q0 -31 8 -39t41 -8q70 0 91 15t30 72l78 6l7 -9q-15 -72 -22 -150l-10 -9q-150 5 -259 5q-34 0 -71.5 -2t-58.5 -4l-21 -2l7 59q33 4 45 18.5t12 49.5l1 284q0 25 -5 33.5t-20 8.5l-24 -1l-7 7l7 52q97 -2 162 -2q177 0 252 9l7 -9q-14 -73 -19 -146l-85 -6 q2 20 2 31q0 31 -17 39t-81 8q-27 0 -33.5 -4t-6.5 -20l-5 -111q7 0 34 -0.5t40 -0.5l94 7l8 -9l-12 -74q-65 2 -105 2q-3 0 -63 -4q-1 -24 -1 -96zM269 560q-34 0 -52 20t-18 52q0 35 22 57.5t58 22.5q33 0 51.5 -19.5t18.5 -52.5q0 -35 -22 -57.5t-58 -22.5z" />
<glyph unicode="&#x118;" horiz-adv-x="597" d="M538 -146l18 -29q-52 -49 -102 -66q-54 0 -86.5 24.5t-32.5 66.5q0 31 21 65t67 82q-96 3 -213 3q-40 0 -83.5 -2.5t-66.5 -5.5l-24 -2l8 68q41 6 56.5 24.5t15.5 61.5l1 379q0 33 -6.5 43.5t-26.5 10.5l-30 -2l-7 9l8 61q110 -3 185 -3q213 0 304 12l8 -11 q-18 -89 -23 -182l-92 -6q2 26 2 40q0 41 -21 52t-105 11q-35 0 -43.5 -5.5t-9.5 -27.5l-7 -155q9 0 43 -0.5t50 -0.5l116 8l8 -9l-14 -86q-80 3 -130 3q-25 0 -76 -6q-3 -110 -3 -140q0 -40 10.5 -50t53.5 -10q49 0 75 3.5t44 16.5t24.5 33.5t12.5 60.5l85 7l7 -10 q-18 -90 -28 -186l-9 -11q-16 1 -41 2q-37 -44 -51 -69t-14 -48q0 -21 14 -34.5t36 -13.5q16 0 34 6t28 12z" />
<glyph unicode="&#x119;" horiz-adv-x="512" d="M471 -146l18 -29q-52 -49 -102 -66q-54 0 -86.5 24.5t-32.5 66.5q0 56 89 148q-104 2 -172 2q-34 0 -71.5 -2t-58.5 -4l-21 -2l7 59q33 4 45 18.5t12 49.5l1 284q0 25 -5 33.5t-20 8.5l-24 -1l-7 7l7 52q97 -2 162 -2q177 0 252 9l7 -9q-14 -73 -19 -146l-85 -6 q2 20 2 31q0 31 -17 39t-81 8q-27 0 -33.5 -4t-6.5 -20l-5 -111q7 0 34 -0.5t40 -0.5l94 7l8 -9l-12 -74q-65 2 -105 2q-3 0 -63 -4q-1 -24 -1 -96q0 -31 8 -39t41 -8q70 0 91 15t30 72l78 6l7 -9q-15 -72 -22 -150l-10 -9q-11 1 -29 1q-38 -44 -52 -69t-14 -49 q0 -21 14 -34.5t36 -13.5q16 0 34 6t28 12z" />
<glyph unicode="&#x11a;" horiz-adv-x="597" d="M247 139q0 -40 10.5 -50t53.5 -10q49 0 75 3.5t44 16.5t24.5 33.5t12.5 60.5l85 7l7 -10q-18 -90 -28 -186l-9 -11q-188 7 -312 7q-40 0 -83.5 -2.5t-66.5 -5.5l-24 -2l8 68q41 6 56.5 24.5t15.5 61.5l1 379q0 33 -6.5 43.5t-26.5 10.5l-30 -2l-7 9l8 61q110 -3 185 -3 q213 0 304 12l8 -11q-18 -89 -23 -182l-92 -6q2 26 2 40q0 41 -21 52t-105 11q-35 0 -43.5 -5.5t-9.5 -27.5l-7 -155q9 0 43 -0.5t50 -0.5l116 8l8 -9l-14 -86q-80 3 -130 3q-25 0 -76 -6q-3 -110 -3 -140zM460 861l25 -41q-33 -24 -72.5 -55t-62.5 -50l-22 -19h-20 q-83 70 -157 124l24 41l16 4q50 -25 127 -58q48 20 126 58z" />
<glyph unicode="&#x11b;" horiz-adv-x="512" d="M221 117q0 -31 8 -39t41 -8q70 0 91 15t30 72l78 6l7 -9q-15 -72 -22 -150l-10 -9q-150 5 -259 5q-34 0 -71.5 -2t-58.5 -4l-21 -2l7 59q33 4 45 18.5t12 49.5l1 284q0 25 -5 33.5t-20 8.5l-24 -1l-7 7l7 52q97 -2 162 -2q177 0 252 9l7 -9q-14 -73 -19 -146l-85 -6 q2 20 2 31q0 31 -17 39t-81 8q-27 0 -33.5 -4t-6.5 -20l-5 -111q7 0 34 -0.5t40 -0.5l94 7l8 -9l-12 -74q-65 2 -105 2q-3 0 -63 -4q-1 -24 -1 -96zM414 719l25 -41q-33 -24 -72.5 -55t-62.5 -50l-22 -19h-20q-83 70 -157 124l24 41l16 4q50 -25 127 -58q48 20 126 58z" />
<glyph unicode="&#x11c;" horiz-adv-x="654" d="M598 332l7 -39q-26 -17 -33.5 -48t-7.5 -117q0 -60 7 -87l-9 -13q-10 -4 -29.5 -11t-81 -18t-125.5 -11q-138 0 -218 84.5t-80 231.5q0 163 95 256.5t261 93.5q39 0 88.5 -6t79.5 -12l30 -7l7 -13q-20 -80 -26 -184l-99 -6q3 25 3 54q0 42 -24.5 59.5t-82.5 17.5 q-90 0 -133.5 -54t-43.5 -165q0 -123 44 -189.5t124 -66.5q26 0 50 6.5t35 13.5l11 6v93q0 29 -8.5 38.5t-35.5 9.5h-51l-6 8l11 72q8 0 58 -1t81 -1q102 0 102 5zM215 709l-29 41q32 30 70 68.5t60 61.5l22 24h20q80 -86 151 -154l-29 -41l-15 -4q-20 16 -117 83 q-71 -46 -117 -83z" />
<glyph unicode="&#x11d;" horiz-adv-x="554" d="M505 265l6 -35q-23 -14 -29.5 -38t-6.5 -94q0 -40 5 -67l-8 -11q-73 -29 -195 -29q-116 0 -182 66t-66 181q0 129 78 200.5t217 71.5q33 0 74 -5t66 -10l25 -5l6 -11q-18 -64 -22 -147l-92 -6q2 19 2 42q0 31 -18 44t-61 13q-68 0 -100 -38.5t-32 -121.5q0 -93 32.5 -141 t93.5 -48q20 0 37.5 4t24.5 8l8 4v65q0 22 -7 29t-27 7h-38l-6 8l10 61q10 0 51.5 -0.5t65.5 -0.5zM163 567l-29 41q32 30 70 68.5t60 61.5l22 24h20q80 -86 151 -154l-29 -41l-15 -4q-20 16 -117 83q-71 -46 -117 -83z" />
<glyph unicode="&#x11e;" horiz-adv-x="654" d="M598 332l7 -39q-26 -17 -33.5 -48t-7.5 -117q0 -60 7 -87l-9 -13q-10 -4 -29.5 -11t-81 -18t-125.5 -11q-138 0 -218 84.5t-80 231.5q0 163 95 256.5t261 93.5q39 0 88.5 -6t79.5 -12l30 -7l7 -13q-20 -80 -26 -184l-99 -6q3 25 3 54q0 42 -24.5 59.5t-82.5 17.5 q-90 0 -133.5 -54t-43.5 -165q0 -123 44 -189.5t124 -66.5q26 0 50 6.5t35 13.5l11 6v93q0 29 -8.5 38.5t-35.5 9.5h-51l-6 8l11 72q8 0 58 -1t81 -1q102 0 102 5zM354 802q76 0 103 60l17 -4l28 -35q-15 -50 -52 -83t-96 -33t-96 33t-52 83l28 35l17 4q27 -60 103 -60z" />
<glyph unicode="&#x11f;" horiz-adv-x="554" d="M505 265l6 -35q-23 -14 -29.5 -38t-6.5 -94q0 -40 5 -67l-8 -11q-73 -29 -195 -29q-116 0 -182 66t-66 181q0 129 78 200.5t217 71.5q33 0 74 -5t66 -10l25 -5l6 -11q-18 -64 -22 -147l-92 -6q2 19 2 42q0 31 -18 44t-61 13q-68 0 -100 -38.5t-32 -121.5q0 -93 32.5 -141 t93.5 -48q20 0 37.5 4t24.5 8l8 4v65q0 22 -7 29t-27 7h-38l-6 8l10 61q10 0 51.5 -0.5t65.5 -0.5zM298 656q76 0 103 60l17 -4l28 -35q-15 -50 -52 -83t-96 -33t-96 33t-52 83l28 35l17 4q27 -60 103 -60z" />
<glyph unicode="&#x120;" horiz-adv-x="654" d="M598 332l7 -39q-26 -17 -33.5 -48t-7.5 -117q0 -60 7 -87l-9 -13q-10 -4 -29.5 -11t-81 -18t-125.5 -11q-138 0 -218 84.5t-80 231.5q0 163 95 256.5t261 93.5q39 0 88.5 -6t79.5 -12l30 -7l7 -13q-20 -80 -26 -184l-99 -6q3 25 3 54q0 42 -24.5 59.5t-82.5 17.5 q-90 0 -133.5 -54t-43.5 -165q0 -123 44 -189.5t124 -66.5q26 0 50 6.5t35 13.5l11 6v93q0 29 -8.5 38.5t-35.5 9.5h-51l-6 8l11 72q8 0 58 -1t81 -1q102 0 102 5zM351 702q-34 0 -52 20t-18 52q0 35 22 57.5t58 22.5q33 0 51.5 -19.5t18.5 -52.5q0 -35 -22 -57.5t-58 -22.5 z" />
<glyph unicode="&#x121;" horiz-adv-x="554" d="M505 265l6 -35q-23 -14 -29.5 -38t-6.5 -94q0 -40 5 -67l-8 -11q-73 -29 -195 -29q-116 0 -182 66t-66 181q0 129 78 200.5t217 71.5q33 0 74 -5t66 -10l25 -5l6 -11q-18 -64 -22 -147l-92 -6q2 19 2 42q0 31 -18 44t-61 13q-68 0 -100 -38.5t-32 -121.5q0 -93 32.5 -141 t93.5 -48q20 0 37.5 4t24.5 8l8 4v65q0 22 -7 29t-27 7h-38l-6 8l10 61q10 0 51.5 -0.5t65.5 -0.5zM295 560q-34 0 -52 20t-18 52q0 35 22 57.5t58 22.5q33 0 51.5 -19.5t18.5 -52.5q0 -35 -22 -57.5t-58 -22.5z" />
<glyph unicode="&#x122;" horiz-adv-x="654" d="M598 332l7 -39q-26 -17 -33.5 -48t-7.5 -117q0 -60 7 -87l-9 -13q-10 -4 -29.5 -11t-81 -18t-125.5 -11q-138 0 -218 84.5t-80 231.5q0 163 95 256.5t261 93.5q39 0 88.5 -6t79.5 -12l30 -7l7 -13q-20 -80 -26 -184l-99 -6q3 25 3 54q0 42 -24.5 59.5t-82.5 17.5 q-90 0 -133.5 -54t-43.5 -165q0 -123 44 -189.5t124 -66.5q26 0 50 6.5t35 13.5l11 6v93q0 29 -8.5 38.5t-35.5 9.5h-51l-6 8l11 72q8 0 58 -1t81 -1q102 0 102 5zM261 -100l3 14q44 35 79 35q30 0 49.5 -23.5t19.5 -62.5q0 -50 -41.5 -98t-105.5 -83l-37 30v17q30 21 49 49 t19 53q0 41 -35 69z" />
<glyph unicode="&#x123;" horiz-adv-x="554" d="M505 265l6 -35q-23 -14 -29.5 -38t-6.5 -94q0 -40 5 -67l-8 -11q-73 -29 -195 -29q-116 0 -182 66t-66 181q0 129 78 200.5t217 71.5q33 0 74 -5t66 -10l25 -5l6 -11q-18 -64 -22 -147l-92 -6q2 19 2 42q0 31 -18 44t-61 13q-68 0 -100 -38.5t-32 -121.5q0 -93 32.5 -141 t93.5 -48q20 0 37.5 4t24.5 8l8 4v65q0 22 -7 29t-27 7h-38l-6 8l10 61q10 0 51.5 -0.5t65.5 -0.5zM216 -100l3 14q44 35 79 35q30 0 49.5 -23.5t19.5 -62.5q0 -50 -41.5 -98t-105.5 -83l-37 30v17q30 21 49 49t19 53q0 41 -35 69z" />
<glyph unicode="&#x124;" horiz-adv-x="747" d="M641 528q-12 -230 -12 -395q0 -39 9 -53t33 -14l36 3l5 -8l-9 -64q-83 3 -146 3l-139 -2l8 66q42 1 57 19.5t15 72.5v127q-72 1 -108 1l-140 -10l-2 -141q0 -41 7.5 -54.5t30.5 -13.5l36 3l5 -7l-9 -64q-84 3 -122 3q-29 0 -67 -1.5t-65 -4t-27 -3.5l7 65q44 9 58 25.5 t14 58.5l1 385q0 31 -7 41.5t-29 10.5l-31 -1l-5 8l8 59q79 -1 119 -1l151 7l-5 -67q-38 -6 -48 -18.5t-12 -52.5l-6 -143l128 -2q62 0 118 7v152q0 31 -7 41.5t-29 10.5l-31 -1l-5 8l8 59q85 -1 128 -1l147 7l-6 -66q-37 -5 -48.5 -15.5t-13.5 -39.5zM241 735l-29 41 q32 30 70 68.5t60 61.5l22 24h20q80 -86 151 -154l-29 -41l-15 -4q-20 16 -117 83q-71 -46 -117 -83z" />
<glyph unicode="&#x125;" horiz-adv-x="632" d="M543 406q-10 -133 -10 -297q0 -30 7 -41t27 -11l28 2l5 -7l-8 -54q-69 2 -125 2l-120 -1l7 56q33 1 45 15t12 53v93q-51 1 -78 1l-111 -8l-1 -100q0 -32 6 -42.5t25 -10.5l27 2l5 -6l-7 -54q-77 2 -109 2q-23 0 -55.5 -1.5t-54.5 -2.5t-23 -2l6 56q35 6 46.5 19t11.5 46 v289q0 25 -6 33t-23 8l-24 -1l-6 8l7 50q67 -1 101 -1l134 5l-5 -58q-30 -4 -38 -13t-10 -38l-5 -105l97 -2q55 0 90 5l1 109q0 25 -6 33t-24 8l-25 -1l-5 8l7 50q0 -1 112 -1l127 5l-5 -57q-30 -4 -39.5 -12t-10.5 -31zM183 593l-29 41q32 30 70 68.5t60 61.5l22 24h20 q80 -86 151 -154l-29 -41l-15 -4q-20 16 -117 83q-71 -46 -117 -83z" />
<glyph unicode="&#x126;" horiz-adv-x="745" d="M640 528l-2 -26l75 2l14 -14l-5 -46h-86q-8 -168 -8 -311q0 -39 9 -53t33 -14l36 3l5 -8l-9 -64q-83 3 -146 3l-139 -2l8 66q42 1 57 19.5t15 72.5v127q-72 1 -108 1l-140 -10l-2 -141q0 -41 7.5 -54.5t30.5 -13.5l36 3l5 -7l-9 -64q-84 3 -122 3q-29 0 -67 -1.5t-65 -4 t-27 -3.5l7 65q44 9 58 25.5t14 58.5l1 302h-87l-10 10l8 48q38 -1 89 -1v26q0 31 -7 41.5t-29 10.5l-31 -1l-5 8l8 59q79 -1 119 -1l151 7l-5 -67q-38 -6 -48 -18.5t-12 -52.5l-1 -12h143h98v26q0 31 -7 41.5t-29 10.5l-31 -1l-5 8l8 59q85 -1 128 -1l147 7l-6 -66 q-37 -5 -48.5 -15.5t-13.5 -39.5zM375 443h-121l-3 -75l128 -2q62 0 118 7v70h-122z" />
<glyph unicode="&#x127;" horiz-adv-x="632" d="M542 406q-1 -5 -1 -15l60 2l12 -11l-4 -37h-71q-6 -114 -6 -236q0 -30 7 -41t27 -11l28 2l5 -7l-8 -54q-69 2 -125 2l-120 -1l7 56q33 1 45 15t12 53v93q-51 1 -78 1l-111 -8l-1 -100q0 -32 6 -42.5t24 -10.5l28 2l5 -6l-7 -54q-77 2 -110 2q-22 0 -54.5 -1.5t-54.5 -2.5 t-23 -2l6 56q35 6 46.5 19t11.5 46v228h-70l-8 7l6 40q30 -1 72 -1v15q0 25 -6 33t-23 8l-24 -1l-6 8l7 50q67 -1 101 -1l134 5l-5 -58q-30 -4 -38 -13t-10 -38l-1 -8h111h22.5h27h23.5v15q0 25 -6 33t-24 8l-25 -1l-5 8l7 50q0 -1 112 -1l127 5l-5 -57q-30 -4 -39.5 -12 t-10.5 -31zM318 344h-93l-2 -52l97 -2q55 0 90 5v49h-92z" />
<glyph unicode="&#x128;" horiz-adv-x="365" d="M260 528q-12 -207 -12 -395q0 -41 7.5 -54.5t30.5 -13.5l43 3l5 -7l-9 -64q-104 3 -149 3q-25 0 -60 -2t-58 -4l-22 -3l7 65q44 9 58.5 26t14.5 58l1 385q0 31 -7 41.5t-29 10.5l-35 -1l-5 8l7 59q10 0 61.5 -0.5t78.5 -0.5l142 7l-6 -67q-38 -5 -50 -15.5t-14 -38.5z M57 714h-11l-40 36v11l79 101l16 4q18 0 77 -16.5t73 -16.5q10 0 26.5 14t27.5 28l11 14h11l39 -37v-10l-78 -102l-17 -4q-17 0 -76 17t-73 17q-11 0 -27.5 -14t-26.5 -28z" />
<glyph unicode="&#x129;" horiz-adv-x="320" d="M230 406q-9 -157 -9 -297q0 -32 6 -42.5t25 -10.5l32 2l5 -6l-7 -54q-90 2 -127 2l-120 -6l6 56q35 7 46.5 19.5t11.5 45.5v289q0 25 -6 33t-23 8l-27 -1l-5 8l6 50q12 0 55 -0.5t65 -0.5l123 5l-5 -58q-31 -4 -40.5 -11.5t-11.5 -30.5zM33 572h-11l-40 36v11l79 101 l16 4q18 0 77 -16.5t73 -16.5q10 0 26.5 14t27.5 28l11 14h11l39 -37v-10l-78 -102l-17 -4q-17 0 -76 17t-73 17q-11 0 -27.5 -14t-26.5 -28z" />
<glyph unicode="&#x12a;" horiz-adv-x="365" d="M260 528q-12 -207 -12 -395q0 -41 7.5 -54.5t30.5 -13.5l43 3l5 -7l-9 -64q-104 3 -149 3q-25 0 -60 -2t-58 -4l-22 -3l7 65q44 9 58.5 26t14.5 58l1 385q0 31 -7 41.5t-29 10.5l-35 -1l-5 8l7 59q10 0 61.5 -0.5t78.5 -0.5l142 7l-6 -67q-38 -5 -50 -15.5t-14 -38.5z M331 800l8 -14l-12 -77l-141 -1l-139 -1l-11 12l14 76q95 -1 154 -1z" />
<glyph unicode="&#x12b;" horiz-adv-x="320" d="M230 406q-9 -157 -9 -297q0 -32 6 -42.5t25 -10.5l32 2l5 -6l-7 -54q-90 2 -127 2l-120 -6l6 56q35 7 46.5 19.5t11.5 45.5v289q0 25 -6 33t-23 8l-27 -1l-5 8l6 50q12 0 55 -0.5t65 -0.5l123 5l-5 -58q-31 -4 -40.5 -11.5t-11.5 -30.5zM307 658l8 -14l-12 -77l-141 -1 l-139 -1l-11 12l14 76q95 -1 154 -1z" />
<glyph unicode="&#x12c;" horiz-adv-x="365" d="M260 528q-12 -207 -12 -395q0 -41 7.5 -54.5t30.5 -13.5l43 3l5 -7l-9 -64q-104 3 -149 3q-25 0 -60 -2t-58 -4l-22 -3l7 65q44 9 58.5 26t14.5 58l1 385q0 31 -7 41.5t-29 10.5l-35 -1l-5 8l7 59q10 0 61.5 -0.5t78.5 -0.5l142 7l-6 -67q-38 -5 -50 -15.5t-14 -38.5z M188 812q76 0 103 68l17 -4l28 -34q-15 -54 -52 -89.5t-96 -35.5t-96 35.5t-52 89.5l28 34l17 4q27 -68 103 -68z" />
<glyph unicode="&#x12d;" horiz-adv-x="320" d="M230 406q-9 -157 -9 -297q0 -32 6 -42.5t25 -10.5l32 2l5 -6l-7 -54q-90 2 -127 2l-120 -6l6 56q35 7 46.5 19.5t11.5 45.5v289q0 25 -6 33t-23 8l-27 -1l-5 8l6 50q12 0 55 -0.5t65 -0.5l123 5l-5 -58q-31 -4 -40.5 -11.5t-11.5 -30.5zM164 675q76 0 103 68l17 -4 l28 -34q-15 -54 -52 -89.5t-96 -35.5t-96 35.5t-52 89.5l28 34l17 4q27 -68 103 -68z" />
<glyph unicode="&#x12e;" horiz-adv-x="365" d="M327 -146l18 -29q-52 -49 -102 -66q-54 0 -86.5 24.5t-32.5 66.5q0 32 22 66.5t69 83.5h-39q-25 0 -60 -2t-58 -4l-22 -3l7 65q44 9 58.5 26t14.5 58l1 385q0 31 -7 41.5t-29 10.5l-35 -1l-5 8l7 59q10 0 61.5 -0.5t78.5 -0.5l142 7l-6 -67q-38 -5 -50 -15.5t-14 -38.5 q-12 -207 -12 -395q0 -41 7.5 -54.5t30.5 -13.5l43 3l5 -7l-9 -64q-24 1 -52 2q-39 -46 -53.5 -72t-14.5 -49q0 -21 14 -34.5t36 -13.5q16 0 34 6t28 12z" />
<glyph unicode="&#x12f;" horiz-adv-x="320" d="M293 -146l18 -29q-52 -49 -102 -66q-54 0 -86.5 24.5t-32.5 66.5q0 32 22 66.5t69 83.5h-26l-120 -6l6 56q35 7 46.5 19.5t11.5 45.5v289q0 25 -6 33t-23 8l-27 -1l-5 8l6 50q12 0 55 -0.5t65 -0.5l123 5l-5 -58q-31 -4 -40.5 -11.5t-11.5 -30.5q-9 -157 -9 -297 q0 -32 6 -42.5t25 -10.5l32 2l5 -6l-7 -54q-20 1 -42 1q-39 -46 -54 -72t-15 -49q0 -21 14 -34.5t36 -13.5q16 0 34 6t28 12z" />
<glyph unicode="&#x130;" horiz-adv-x="365" d="M260 528q-12 -207 -12 -395q0 -41 7.5 -54.5t30.5 -13.5l43 3l5 -7l-9 -64q-104 3 -149 3q-25 0 -60 -2t-58 -4l-22 -3l7 65q44 9 58.5 26t14.5 58l1 385q0 31 -7 41.5t-29 10.5l-35 -1l-5 8l7 59q10 0 61.5 -0.5t78.5 -0.5l142 7l-6 -67q-38 -5 -50 -15.5t-14 -38.5z M182 702q-34 0 -52 20t-18 52q0 35 22 57.5t58 22.5q33 0 51.5 -19.5t18.5 -52.5q0 -35 -22 -57.5t-58 -22.5z" />
<glyph unicode="&#x131;" horiz-adv-x="320" d="M230 406q-9 -157 -9 -297q0 -32 6 -42.5t25 -10.5l32 2l5 -6l-7 -54q-90 2 -127 2l-120 -6l6 56q35 7 46.5 19.5t11.5 45.5v289q0 25 -6 33t-23 8l-27 -1l-5 8l6 50q12 0 55 -0.5t65 -0.5l123 5l-5 -58q-31 -4 -40.5 -11.5t-11.5 -30.5z" />
<glyph unicode="&#x132;" horiz-adv-x="698" d="M260 528q-12 -207 -12 -395q0 -41 7.5 -54.5t30.5 -13.5l43 3l5 -7l-9 -64q-104 3 -149 3q-25 0 -60 -2t-58 -4l-22 -3l7 65q44 9 58.5 26t14.5 58l1 385q0 31 -7 41.5t-29 10.5l-35 -1l-5 8l7 59q10 0 61.5 -0.5t78.5 -0.5l142 7l-6 -67q-38 -5 -50 -15.5t-14 -38.5z M472 123v402q0 32 -6.5 42t-28.5 10l-41 -3l-6 8l8 60h124l151 8l-6 -68q-32 -6 -41 -15.5t-11 -38.5q-12 -218 -12 -427q-1 -99 -48.5 -160t-151.5 -95l-28 41l2 11q57 41 76 86.5t19 138.5z" />
<glyph unicode="&#x133;" horiz-adv-x="596" d="M230 406q-9 -157 -9 -297q0 -32 6 -42.5t25 -10.5l32 2l5 -6l-7 -54q-90 2 -127 2l-120 -6l6 56q35 7 46.5 19.5t11.5 45.5v289q0 25 -6 33t-23 8l-27 -1l-5 8l6 50q12 0 55 -0.5t65 -0.5l123 5l-5 -58q-31 -4 -40.5 -11.5t-11.5 -30.5zM427 98v306q0 25 -5.5 33t-22.5 8 l-33 -2l-5 8l6 50h106l133 6l-5 -59q-26 -4 -33.5 -11.5t-9.5 -30.5q-10 -175 -10 -331q0 -76 -41.5 -123.5t-131.5 -73.5l-25 33l1 10q46 34 61 69t15 108z" />
<glyph unicode="&#x134;" horiz-adv-x="333" d="M107 123v402q0 32 -6.5 42t-28.5 10l-41 -3l-6 8l8 60h124l151 8l-6 -68q-32 -6 -41 -15.5t-11 -38.5q-12 -218 -12 -427q-1 -99 -48.5 -160t-151.5 -95l-28 41l2 11q57 41 76 86.5t19 138.5zM41 709l-29 41q32 30 70 68.5t60 61.5l22 24h20q80 -86 151 -154l-29 -41 l-15 -4q-20 16 -117 83q-71 -46 -117 -83z" />
<glyph unicode="&#x135;" horiz-adv-x="294" d="M91 98l1 306q0 25 -5.5 33t-22.5 8l-33 -2l-6 8l7 50h105l133 6l-5 -59q-26 -4 -33 -11.5t-9 -30.5q-10 -175 -10 -331q-1 -77 -42.5 -124t-131.5 -73l-25 33l2 10q45 34 60 69t15 108zM19 567l-29 41q32 30 70 68.5t60 61.5l22 24h20q80 -86 151 -154l-29 -41l-15 -4 q-20 16 -117 83q-71 -46 -117 -83z" />
<glyph unicode="&#x136;" horiz-adv-x="659" d="M116 140l1 385q0 31 -7 41.5t-29 10.5l-31 -1l-5 8l8 60q106 -2 135 -2l138 7l-6 -67q-37 -8 -49.5 -19t-13.5 -39l-9 -391q-1 -41 6.5 -54.5t31.5 -13.5l39 3l4 -7l-9 -64q-101 3 -144 3l-139 -3l9 64q43 7 56.5 22t13.5 57zM267 316l3 22l147 160q26 26 26 49 q0 28 -53 31l-3 7l8 62q84 -5 125 -5l117 4l7 -11l-8 -57q-31 -13 -59.5 -37.5t-71.5 -76.5l-103 -116l132 -202q30 -45 55.5 -65t58.5 -22l6 -9l-8 -53q-99 -12 -117 -12q-59 0 -111 84zM273 -100l3 14q44 35 79 35q30 0 49.5 -23.5t19.5 -62.5q0 -50 -41.5 -98t-105.5 -83 l-37 30v17q30 21 49 49t19 53q0 41 -35 69z" />
<glyph unicode="&#x137;" horiz-adv-x="568" d="M99 115v289q0 25 -6 33t-23 8l-24 -1l-6 8l7 50q95 -1 117 -1l120 5l-4 -58q-31 -6 -41 -14.5t-11 -29.5l-7 -295q-1 -32 5.5 -42.5t25.5 -10.5l30 2l4 -6l-7 -54q-88 2 -124 2l-120 -2l7 54q35 6 46 17.5t11 45.5zM235 246l3 19l114 119q20 18 20 37q0 23 -41 24l-3 7 l7 52q72 -3 106 -3l103 3l6 -9l-7 -49q-46 -20 -111 -97l-73 -76l101 -152q24 -35 43.5 -50.5t46.5 -18.5l7 -9l-7 -46q-88 -9 -104 -9q-51 0 -92 65zM231 -100l3 14q44 35 79 35q30 0 49.5 -23.5t19.5 -62.5q0 -50 -41.5 -98t-105.5 -83l-37 30v17q30 21 49 49t19 53 q0 41 -35 69z" />
<glyph unicode="&#x138;" horiz-adv-x="568" d="M99 115v289q0 25 -6 33t-23 8l-24 -1l-6 8l7 50q95 -1 117 -1l120 5l-4 -58q-31 -6 -41 -14.5t-11 -29.5l-7 -295q-1 -32 5.5 -42.5t25.5 -10.5l30 2l4 -6l-7 -54q-88 2 -124 2l-120 -2l7 54q35 6 46 17.5t11 45.5zM235 246l3 19l114 119q20 18 20 37q0 23 -41 24l-3 7 l7 52q72 -3 106 -3l103 3l6 -9l-7 -49q-46 -20 -111 -97l-73 -76l101 -152q24 -35 43.5 -50.5t46.5 -18.5l7 -9l-7 -46q-88 -9 -104 -9q-51 0 -92 65z" />
<glyph unicode="&#x139;" horiz-adv-x="531" d="M213 0q-40 0 -82.5 -2.5t-65.5 -5.5l-23 -2l7 68q38 6 52.5 24.5t14.5 61.5v381q0 31 -7 41.5t-29 10.5l-30 -1l-5 8l7 59q10 0 60 -0.5t76 -0.5l155 7l-8 -71q-49 -6 -61.5 -19t-14.5 -54q-11 -148 -11 -366q0 -38 11.5 -49t50.5 -11q71 0 94.5 27.5t33.5 124.5l85 9 l7 -10q-17 -109 -27 -227l-9 -11q-163 8 -281 8zM364 775l-6 -13q-115 -29 -229 -65l-13 9l-13 47l223 104l12 -5z" />
<glyph unicode="&#x13a;" horiz-adv-x="461" d="M187 0q-34 0 -71.5 -2t-57.5 -4l-21 -2l7 59q31 4 42.5 18.5t11.5 49.5l1 285q0 25 -6 33t-24 8l-23 -1l-6 8l6 50q12 0 54 -0.5t64 -0.5l138 5l-7 -62q-41 -4 -52 -13.5t-13 -37.5q-10 -133 -10 -280q0 -26 9.5 -34.5t37.5 -8.5q54 0 72.5 22.5t27.5 99.5l78 7l7 -9 q-13 -89 -21 -186l-10 -10q-132 6 -234 6zM329 633l-6 -13q-115 -29 -229 -65l-13 9l-13 47l223 104l12 -5z" />
<glyph unicode="&#x13b;" horiz-adv-x="531" d="M213 0q-40 0 -82.5 -2.5t-65.5 -5.5l-23 -2l7 68q38 6 52.5 24.5t14.5 61.5v381q0 31 -7 41.5t-29 10.5l-30 -1l-5 8l7 59q10 0 60 -0.5t76 -0.5l155 7l-8 -71q-49 -6 -61.5 -19t-14.5 -54q-11 -148 -11 -366q0 -38 11.5 -49t50.5 -11q71 0 94.5 27.5t33.5 124.5l85 9 l7 -10q-17 -109 -27 -227l-9 -11q-163 8 -281 8zM217 -100l3 14q44 35 79 35q30 0 49.5 -23.5t19.5 -62.5q0 -50 -41.5 -98t-105.5 -83l-37 30v17q30 21 49 49t19 53q0 41 -35 69z" />
<glyph unicode="&#x13c;" horiz-adv-x="461" d="M187 0q-34 0 -71.5 -2t-57.5 -4l-21 -2l7 59q31 4 42.5 18.5t11.5 49.5l1 285q0 25 -6 33t-24 8l-23 -1l-6 8l6 50q12 0 54 -0.5t64 -0.5l138 5l-7 -62q-41 -4 -52 -13.5t-13 -37.5q-10 -133 -10 -280q0 -26 9.5 -34.5t37.5 -8.5q54 0 72.5 22.5t27.5 99.5l78 7l7 -9 q-13 -89 -21 -186l-10 -10q-132 6 -234 6zM178 -100l3 14q44 35 79 35q30 0 49.5 -23.5t19.5 -62.5q0 -50 -41.5 -98t-105.5 -83l-37 30v17q30 21 49 49t19 53q0 41 -35 69z" />
<glyph unicode="&#x13d;" horiz-adv-x="537" d="M521 640l8 -10q-15 -110 -39 -217l-48 -19l-14 4q1 51 -1 108t-5 88l-2 32zM213 0q-40 0 -82.5 -2.5t-65.5 -5.5l-23 -2l7 68q38 6 52.5 24.5t14.5 61.5v381q0 31 -7 41.5t-29 10.5l-30 -1l-5 8l7 59q10 0 60 -0.5t76 -0.5l155 7l-8 -71q-49 -6 -61.5 -19t-14.5 -54 q-11 -148 -11 -366q0 -38 11.5 -49t50.5 -11q71 0 94.5 27.5t33.5 124.5l85 9l7 -10q-17 -109 -27 -227l-9 -11q-163 8 -281 8z" />
<glyph unicode="&#x13e;" horiz-adv-x="483" d="M448 500l7 -8q-13 -86 -33 -170l-45 -16l-13 3q1 40 -0.5 85t-3.5 70l-2 25zM187 0q-34 0 -71.5 -2t-57.5 -4l-21 -2l7 59q31 4 42.5 18.5t11.5 49.5l1 285q0 25 -6 33t-24 8l-23 -1l-6 8l6 50q12 0 54 -0.5t64 -0.5l138 5l-7 -62q-41 -4 -52 -13.5t-13 -37.5 q-10 -133 -10 -280q0 -26 9.5 -34.5t37.5 -8.5q54 0 72.5 22.5t27.5 99.5l78 7l7 -9q-13 -89 -21 -186l-10 -10q-132 6 -234 6z" />
<glyph unicode="&#x13f;" horiz-adv-x="554" d="M213 0q-40 0 -82.5 -2.5t-65.5 -5.5l-23 -2l7 68q38 6 52.5 24.5t14.5 61.5v381q0 31 -7 41.5t-29 10.5l-30 -1l-5 8l7 59q10 0 60 -0.5t76 -0.5l155 7l-8 -71q-49 -6 -61.5 -19t-14.5 -54q-11 -148 -11 -366q0 -38 11.5 -49t50.5 -11q71 0 94.5 27.5t33.5 124.5l85 9 l7 -10q-17 -109 -27 -227l-9 -11q-163 8 -281 8zM453 380q-37 0 -56 20.5t-19 55.5q0 36 22 59t59 23q35 0 55 -21t20 -55q0 -36 -22 -59t-59 -23z" />
<glyph unicode="&#x140;" horiz-adv-x="516" d="M187 0q-34 0 -71.5 -2t-57.5 -4l-21 -2l7 59q31 4 42.5 18.5t11.5 49.5l1 285q0 25 -6 33t-24 8l-23 -1l-6 8l6 50q12 0 54 -0.5t64 -0.5l138 5l-7 -62q-41 -4 -52 -13.5t-13 -37.5q-10 -133 -10 -280q0 -26 9.5 -34.5t37.5 -8.5q54 0 72.5 22.5t27.5 99.5l78 7l7 -9 q-13 -89 -21 -186l-10 -10q-132 6 -234 6zM401 276q-35 0 -53.5 19.5t-18.5 52.5q0 35 21 56.5t56 21.5q34 0 53 -19.5t19 -52.5q0 -35 -21 -56.5t-56 -21.5z" />
<glyph unicode="&#x141;" horiz-adv-x="566" d="M225 0q-40 0 -82.5 -2.5t-65.5 -5.5l-23 -2l7 68q38 6 52.5 24.5t14.5 61.5v122l-62 -31l-10 2l-17 62l89 44v182q0 31 -7 41.5t-29 10.5l-30 -1l-5 8l7 59q10 0 60 -0.5t76 -0.5l155 7l-8 -71q-49 -6 -61.5 -19t-14.5 -54q-5 -51 -6 -108l133 67l8 -4l17 -61l-161 -81 q-2 -60 -2 -179q0 -38 11.5 -49t50.5 -11q71 0 94.5 27.5t33.5 124.5l85 9l7 -10q-17 -109 -27 -227l-9 -11q-163 8 -281 8z" />
<glyph unicode="&#x142;" horiz-adv-x="476" d="M204 0q-33 0 -70.5 -2t-57.5 -4l-21 -2l7 59q31 4 42.5 18.5t11.5 49.5v81l-48 -23l-8 2l-17 56l73 35l1 134q0 25 -6 33t-24 8l-23 -1l-6 8l6 50q12 0 54 -0.5t63 -0.5l139 5l-7 -62q-41 -4 -52 -13.5t-13 -37.5q-4 -46 -5 -76l100 47l7 -3l17 -56l-127 -60 q-2 -42 -2 -132q0 -26 9 -34.5t37 -8.5q55 0 73.5 22.5t26.5 99.5l79 7l6 -9q-13 -89 -21 -186l-9 -10q-132 6 -235 6z" />
<glyph unicode="&#x143;" horiz-adv-x="729" d="M520 235h10l-2 299q-1 43 -33 43q-8 0 -20.5 -0.5t-13.5 -0.5l-4 8l7 62q85 -4 129 -4l118 5l-5 -67q-33 -5 -47.5 -19t-15.5 -44l-13 -531l-106 -13q-69 110 -141.5 221t-110.5 167l-39 56h-10l-1 -308q0 -25 7.5 -35t26.5 -10l43 3l6 -7l-10 -64q-86 4 -129 4 q-24 0 -55 -2t-49 -4l-19 -2l8 67q58 7 59 63l13 395q0 32 -16 44.5t-65 17.5l-8 10l7 58q67 -5 116 -5l96 4q58 -94 124.5 -197t104.5 -159zM552 775l-6 -13q-115 -29 -229 -65l-13 9l-13 47l223 104l12 -5z" />
<glyph unicode="&#x144;" horiz-adv-x="622" d="M432 208h9l-3 203q-1 19 -7 26.5t-20 7.5h-27l-4 6l6 53q75 -3 114 -3q102 0 102 4l-4 -58q-28 -4 -39.5 -15t-12.5 -34l-11 -405l-103 -10q-53 79 -109 158t-85 119l-30 39h-9v-207q1 -21 7.5 -29t22.5 -8l33 2l6 -5l-9 -55q-76 3 -111 3l-108 -6l7 58q25 3 36 14t12 35 l11 296q0 25 -13 34.5t-53 14.5l-7 8l6 51q56 -4 102 -4l86 3q44 -68 95 -142t80 -114zM485 633l-6 -13q-115 -29 -229 -65l-13 9l-13 47l223 104l12 -5z" />
<glyph unicode="&#x145;" horiz-adv-x="729" d="M520 235h10l-2 299q-1 43 -33 43q-8 0 -20.5 -0.5t-13.5 -0.5l-4 8l7 62q85 -4 129 -4l118 5l-5 -67q-33 -5 -47.5 -19t-15.5 -44l-13 -531l-106 -13q-69 110 -141.5 221t-110.5 167l-39 56h-10l-1 -308q0 -25 7.5 -35t26.5 -10l43 3l6 -7l-10 -64q-86 4 -129 4 q-24 0 -55 -2t-49 -4l-19 -2l8 67q58 7 59 63l13 395q0 32 -16 44.5t-65 17.5l-8 10l7 58q67 -5 116 -5l96 4q58 -94 124.5 -197t104.5 -159zM297 -100l3 14q44 35 79 35q30 0 49.5 -23.5t19.5 -62.5q0 -50 -41.5 -98t-105.5 -83l-37 30v17q30 21 49 49t19 53q0 41 -35 69z " />
<glyph unicode="&#x146;" horiz-adv-x="622" d="M432 208h9l-3 203q-1 19 -7 26.5t-20 7.5h-27l-4 6l6 53q75 -3 114 -3q102 0 102 4l-4 -58q-28 -4 -39.5 -15t-12.5 -34l-11 -405l-103 -10q-53 79 -109 158t-85 119l-30 39h-9v-207q1 -21 7.5 -29t22.5 -8l33 2l6 -5l-9 -55q-76 3 -111 3l-108 -6l7 58q25 3 36 14t12 35 l11 296q0 25 -13 34.5t-53 14.5l-7 8l6 51q56 -4 102 -4l86 3q44 -68 95 -142t80 -114zM248 -100l3 14q44 35 79 35q30 0 49.5 -23.5t19.5 -62.5q0 -50 -41.5 -98t-105.5 -83l-37 30v17q30 21 49 49t19 53q0 41 -35 69z" />
<glyph unicode="&#x147;" horiz-adv-x="729" d="M520 235h10l-2 299q-1 43 -33 43q-8 0 -20.5 -0.5t-13.5 -0.5l-4 8l7 62q85 -4 129 -4l118 5l-5 -67q-33 -5 -47.5 -19t-15.5 -44l-13 -531l-106 -13q-69 110 -141.5 221t-110.5 167l-39 56h-10l-1 -308q0 -25 7.5 -35t26.5 -10l43 3l6 -7l-10 -64q-86 4 -129 4 q-24 0 -55 -2t-49 -4l-19 -2l8 67q58 7 59 63l13 395q0 32 -16 44.5t-65 17.5l-8 10l7 58q67 -5 116 -5l96 4q58 -94 124.5 -197t104.5 -159zM519 861l25 -41q-33 -24 -72.5 -55t-61.5 -50l-23 -19h-20q-83 70 -157 124l24 41l16 4q50 -25 127 -58q48 20 126 58z" />
<glyph unicode="&#x148;" horiz-adv-x="622" d="M432 208h9l-3 203q-1 19 -7 26.5t-20 7.5h-27l-4 6l6 53q75 -3 114 -3q102 0 102 4l-4 -58q-28 -4 -39.5 -15t-12.5 -34l-11 -405l-103 -10q-53 79 -109 158t-85 119l-30 39h-9v-207q1 -21 7.5 -29t22.5 -8l33 2l6 -5l-9 -55q-76 3 -111 3l-108 -6l7 58q25 3 36 14t12 35 l11 296q0 25 -13 34.5t-53 14.5l-7 8l6 51q56 -4 102 -4l86 3q44 -68 95 -142t80 -114zM463 719l25 -41q-33 -24 -72.5 -55t-61.5 -50l-23 -19h-20q-83 70 -157 124l24 41l16 4q50 -25 127 -58q48 20 126 58z" />
<glyph unicode="&#x14a;" horiz-adv-x="727" d="M155 642l96 4q52 -87 120 -191.5t110 -165.5l42 -61h9l-1 308q0 43 -33 43l-35 -1l-4 6l8 62q96 -4 128 -4l115 6l-5 -66q-34 -4 -48.5 -18.5t-15.5 -44.5l-10 -433q-3 -99 -49 -157.5t-148 -91.5l-27 40l3 11q43 26 65.5 52.5t32.5 63.5q-67 105 -136.5 210.5 t-105.5 157.5l-36 53h-9l-2 -317q1 -26 8.5 -35.5t26.5 -9.5l43 2l5 -6l-9 -63q-83 4 -145 4l-103 -8l8 65q32 4 45.5 20.5t14.5 55.5l12 386q0 31 -16 43.5t-66 18.5l-7 10l7 56q75 -5 112 -5z" />
<glyph unicode="&#x14b;" horiz-adv-x="619" d="M140 501l84 3q41 -64 93.5 -140t84.5 -120l32 -44h9l-2 213q0 34 -27 34l-28 -1l-3 6l5 52q88 -3 113 -3l99 4l-4 -56q-28 -4 -39.5 -15t-12.5 -34l-8 -333q-2 -78 -42 -124.5t-128 -71.5l-25 32l3 10q64 40 77 89q-52 76 -106 152.5t-81 114.5l-28 38h-8l-1 -217 q0 -20 6.5 -28t22.5 -8l34 2l5 -5l-8 -54q-71 3 -126 3l-89 -6l7 55q26 3 37 15.5t12 41.5l10 293q0 24 -12.5 34t-53.5 14l-7 9l6 49q65 -4 99 -4z" />
<glyph unicode="&#x14c;" horiz-adv-x="674" d="M340 75q71 0 110.5 55.5t39.5 157.5q0 132 -42 200.5t-120 68.5q-69 0 -107 -55.5t-38 -157.5q0 -131 41 -200t116 -69zM315 -12q-133 0 -210 85t-77 231q0 158 90 254t238 96q136 0 213 -83t77 -230q0 -159 -91 -256t-240 -97zM479 800l8 -14l-12 -77l-141 -1l-139 -1 l-11 12l14 76q95 -1 154 -1z" />
<glyph unicode="&#x14d;" horiz-adv-x="570" d="M288 68q52 0 80.5 39t28.5 115q0 203 -119 203q-105 0 -105 -153q0 -204 115 -204zM269 -9q-113 0 -176.5 65.5t-63.5 182.5q0 125 73 198t198 73q115 0 178 -64t63 -181q0 -126 -74 -200t-198 -74zM433 658l8 -14l-12 -77l-141 -1l-139 -1l-11 12l14 76q95 -1 154 -1z " />
<glyph unicode="&#x14e;" horiz-adv-x="674" d="M340 75q71 0 110.5 55.5t39.5 157.5q0 132 -42 200.5t-120 68.5q-69 0 -107 -55.5t-38 -157.5q0 -131 41 -200t116 -69zM315 -12q-133 0 -210 85t-77 231q0 158 90 254t238 96q136 0 213 -83t77 -230q0 -159 -91 -256t-240 -97zM325 812q76 0 103 68l17 -4l28 -34 q-15 -54 -52 -89.5t-96 -35.5t-96 35.5t-52 89.5l28 34l17 4q27 -68 103 -68z" />
<glyph unicode="&#x14f;" horiz-adv-x="570" d="M288 68q52 0 80.5 39t28.5 115q0 203 -119 203q-105 0 -105 -153q0 -204 115 -204zM269 -9q-113 0 -176.5 65.5t-63.5 182.5q0 125 73 198t198 73q115 0 178 -64t63 -181q0 -126 -74 -200t-198 -74zM282 670q76 0 103 68l17 -4l28 -34q-15 -54 -52 -89.5t-96 -35.5 t-96 35.5t-52 89.5l28 34l17 4q27 -68 103 -68z" />
<glyph unicode="&#x150;" horiz-adv-x="674" d="M340 75q71 0 110.5 55.5t39.5 157.5q0 132 -42 200.5t-120 68.5q-69 0 -107 -55.5t-38 -157.5q0 -131 41 -200t116 -69zM315 -12q-133 0 -210 85t-77 231q0 158 90 254t238 96q136 0 213 -83t77 -230q0 -159 -91 -256t-240 -97zM402 794l-1 -12q-84 -46 -168 -98l-14 5 l-23 34l151 134l12 -1zM570 790l-1 -12q-85 -46 -169 -98l-12 4l-24 34l151 134l12 -2z" />
<glyph unicode="&#x151;" horiz-adv-x="570" d="M288 68q52 0 80.5 39t28.5 115q0 203 -119 203q-105 0 -105 -153q0 -204 115 -204zM269 -9q-113 0 -176.5 65.5t-63.5 182.5q0 125 73 198t198 73q115 0 178 -64t63 -181q0 -126 -74 -200t-198 -74zM336 652l-1 -12q-84 -46 -168 -98l-14 5l-23 34l151 134l12 -1z M504 648l-1 -12q-85 -46 -169 -98l-12 4l-24 34l151 134l12 -2z" />
<glyph unicode="&#x152;" horiz-adv-x="940" d="M589 139q0 -40 10.5 -50t53.5 -10q93 0 119.5 19.5t36.5 94.5l85 7l7 -10q-18 -90 -27 -186l-10 -11q-191 9 -314 9q-48 0 -127.5 -6.5t-108.5 -6.5q-132 0 -208.5 84.5t-76.5 230.5q0 158 87.5 251.5t234.5 93.5q31 0 104 -6.5t119 -6.5q184 0 312 18l8 -11 q-18 -89 -23 -182l-91 -6q2 26 2 40q0 41 -22 52t-106 11q-35 0 -43 -5t-9 -28l-7 -155l93 -1l116 8l8 -9l-14 -86q-80 3 -130 3l-77 -6zM337 73q67 0 96.5 30t30.5 99l1 252q0 61 -29.5 84t-104.5 23q-70 0 -109.5 -56.5t-39.5 -159.5q0 -133 40 -202.5t115 -69.5z" />
<glyph unicode="&#x153;" horiz-adv-x="785" d="M495 117q0 -31 8.5 -39t41.5 -8q70 0 91 15t29 72l79 6l6 -9q-14 -72 -22 -150l-9 -9q-153 7 -261 7q-38 0 -103 -5t-87 -5q-112 0 -175.5 65.5t-63.5 181.5q0 125 70.5 196t194.5 71q25 0 86 -5t100 -5q139 0 258 14l8 -9q-15 -73 -19 -146l-85 -6q2 20 2 31 q0 31 -17 39t-82 8q-26 0 -32.5 -4t-7.5 -20l-5 -111l75 -1l94 7l8 -9l-12 -74q-65 2 -106 2l-62 -4zM284 65q49 0 71.5 21.5t22.5 69.5l1 193q0 45 -23 62t-78 17q-108 0 -108 -155q0 -208 114 -208z" />
<glyph unicode="&#x154;" horiz-adv-x="643" d="M319 251h-70l-1 -110q0 -50 11.5 -63t59.5 -14l4 -6l-10 -62q0 3 -134 3l-143 -5l9 67q42 6 56.5 22.5t14.5 59.5l1 385q0 29 -6.5 39t-25.5 10l-35 -2l-5 8l8 61q87 -2 126 -2l153 5q115 0 176 -44.5t61 -127.5q0 -121 -134 -191l87 -140q28 -46 54 -66.5t57 -20.5l7 -9 l-7 -53l-119 -11q-66 0 -109 93zM252 341l90 -10q85 36 85 125q0 108 -149 108q-10 0 -13.5 -4t-4.5 -18q-6 -102 -8 -201zM497 775l-6 -13q-115 -29 -229 -65l-13 9l-13 47l223 104l12 -5z" />
<glyph unicode="&#x155;" horiz-adv-x="555" d="M277 190h-55l-1 -76q0 -38 9.5 -47.5t49.5 -10.5l3 -5l-8 -54q0 2 -116 2l-124 -5l7 59q33 5 45 18t12 46v291q0 22 -5 29.5t-19 7.5l-29 -1l-6 6l8 52q74 -1 107 -1l132 4q100 0 152 -35.5t52 -102.5q0 -94 -107 -148l66 -100q44 -68 89 -68l7 -9l-7 -46l-105 -8 q-58 0 -91 72zM224 269l71 -8q66 26 66 91q0 78 -116 78q-8 0 -11 -3.5t-3 -13.5q-5 -75 -7 -144zM443 633l-6 -13q-115 -29 -229 -65l-13 9l-13 47l223 104l12 -5z" />
<glyph unicode="&#x156;" horiz-adv-x="643" d="M319 251h-70l-1 -110q0 -50 11.5 -63t59.5 -14l4 -6l-10 -62q0 3 -134 3l-143 -5l9 67q42 6 56.5 22.5t14.5 59.5l1 385q0 29 -6.5 39t-25.5 10l-35 -2l-5 8l8 61q87 -2 126 -2l153 5q115 0 176 -44.5t61 -127.5q0 -121 -134 -191l87 -140q28 -46 54 -66.5t57 -20.5l7 -9 l-7 -53l-119 -11q-66 0 -109 93zM252 341l90 -10q85 36 85 125q0 108 -149 108q-10 0 -13.5 -4t-4.5 -18q-6 -102 -8 -201zM257 -100l3 14q44 35 79 35q30 0 49.5 -23.5t19.5 -62.5q0 -50 -41.5 -98t-105.5 -83l-37 30v17q30 21 49 49t19 53q0 41 -35 69z" />
<glyph unicode="&#x157;" horiz-adv-x="555" d="M277 190h-55l-1 -76q0 -38 9.5 -47.5t49.5 -10.5l3 -5l-8 -54q0 2 -116 2l-124 -5l7 59q33 5 45 18t12 46v291q0 22 -5 29.5t-19 7.5l-29 -1l-6 6l8 52q74 -1 107 -1l132 4q100 0 152 -35.5t52 -102.5q0 -94 -107 -148l66 -100q44 -68 89 -68l7 -9l-7 -46l-105 -8 q-58 0 -91 72zM224 269l71 -8q66 26 66 91q0 78 -116 78q-8 0 -11 -3.5t-3 -13.5q-5 -75 -7 -144zM216 -100l3 14q44 35 79 35q30 0 49.5 -23.5t19.5 -62.5q0 -50 -41.5 -98t-105.5 -83l-37 30v17q30 21 49 49t19 53q0 41 -35 69z" />
<glyph unicode="&#x158;" horiz-adv-x="643" d="M319 251h-70l-1 -110q0 -50 11.5 -63t59.5 -14l4 -6l-10 -62q0 3 -134 3l-143 -5l9 67q42 6 56.5 22.5t14.5 59.5l1 385q0 29 -6.5 39t-25.5 10l-35 -2l-5 8l8 61q87 -2 126 -2l153 5q115 0 176 -44.5t61 -127.5q0 -121 -134 -191l87 -140q28 -46 54 -66.5t57 -20.5l7 -9 l-7 -53l-119 -11q-66 0 -109 93zM252 341l90 -10q85 36 85 125q0 108 -149 108q-10 0 -13.5 -4t-4.5 -18q-6 -102 -8 -201zM465 861l25 -41q-33 -24 -72.5 -55t-61.5 -50l-23 -19h-20q-83 70 -157 124l24 41l16 4q50 -25 127 -58q48 20 126 58z" />
<glyph unicode="&#x159;" horiz-adv-x="555" d="M277 190h-55l-1 -76q0 -38 9.5 -47.5t49.5 -10.5l3 -5l-8 -54q0 2 -116 2l-124 -5l7 59q33 5 45 18t12 46v291q0 22 -5 29.5t-19 7.5l-29 -1l-6 6l8 52q74 -1 107 -1l132 4q100 0 152 -35.5t52 -102.5q0 -94 -107 -148l66 -100q44 -68 89 -68l7 -9l-7 -46l-105 -8 q-58 0 -91 72zM224 269l71 -8q66 26 66 91q0 78 -116 78q-8 0 -11 -3.5t-3 -13.5q-5 -75 -7 -144zM421 719l25 -41q-33 -24 -72.5 -55t-61.5 -50l-23 -19h-20q-83 70 -157 124l24 41l16 4q50 -25 127 -58q48 20 126 58z" />
<glyph unicode="&#x15a;" horiz-adv-x="540" d="M252 -12q-47 0 -91 9.5t-65 18.5l-20 10l-8 14q15 88 16 170l84 7q0 -82 23 -111t87 -29q47 0 75.5 21t28.5 56q0 11 -3.5 21.5t-13.5 20.5t-17 16.5t-25 16.5t-26 14t-32 15.5t-31 15.5q-74 36 -116 76t-42 104q0 88 75 144t192 56q44 0 87 -7t64 -13l21 -7l7 -13 q-17 -81 -24 -172l-76 -6l-9 7q1 16 1 35q0 44 -22.5 62.5t-74.5 18.5q-41 0 -68 -20t-27 -51q0 -18 9.5 -33.5t31.5 -30.5t39 -23.5t51 -24.5q42 -20 65 -33t53.5 -36.5t45 -52t14.5 -64.5q0 -92 -76 -147t-203 -55zM448 775l-6 -13q-115 -29 -229 -65l-13 9l-13 47 l223 104l12 -5z" />
<glyph unicode="&#x15b;" horiz-adv-x="466" d="M191 -9q-40 0 -77 7.5t-54 15.5l-18 7l-8 12q13 71 15 131l77 6q0 -56 19 -77.5t67 -21.5q36 0 57 14t21 37q0 8 -3 15.5t-11 14.5t-13.5 12t-20 12t-21.5 10.5t-25.5 11.5t-25.5 11q-62 28 -96 59.5t-34 82.5q0 70 64 114.5t165 44.5q37 0 73.5 -5t53.5 -11l18 -5l7 -12 q-15 -64 -21 -134l-70 -6l-8 6q1 11 1 22q0 32 -18 46.5t-57 14.5q-32 0 -52.5 -13.5t-20.5 -35.5q0 -13 7.5 -24t27 -22.5t31.5 -17t42 -18.5q32 -14 52.5 -24.5t44.5 -28.5t36 -41t12 -52q0 -72 -64 -115t-173 -43zM401 633l-6 -13q-115 -29 -229 -65l-13 9l-13 47 l223 104l12 -5z" />
<glyph unicode="&#x15c;" horiz-adv-x="540" d="M160 709l-29 41q32 30 70 68.5t60 61.5l22 24h20q80 -86 151 -154l-29 -41l-15 -4q-20 16 -117 83q-71 -46 -117 -83zM220 -12q-47 0 -91 9.5t-65 18.5l-20 10l-8 14q15 88 16 170l84 7q0 -82 23 -111t87 -29q47 0 75.5 21t28.5 56q0 11 -3.5 21.5t-13.5 20.5t-17 16.5 t-25 16.5t-26 14t-32 15.5t-31 15.5q-74 36 -116 76t-42 104q0 88 75 144t192 56q44 0 87 -7t64 -13l21 -7l7 -13q-17 -81 -24 -172l-76 -6l-9 7q1 16 1 35q0 44 -22.5 62.5t-74.5 18.5q-41 0 -68 -20t-27 -51q0 -18 9.5 -33.5t31.5 -30.5t39 -23.5t51 -24.5q42 -20 65 -33 t53.5 -36.5t45 -52t14.5 -64.5q0 -92 -76 -147t-203 -55z" />
<glyph unicode="&#x15d;" horiz-adv-x="466" d="M191 -9q-40 0 -77 7.5t-54 15.5l-18 7l-8 12q13 71 15 131l77 6q0 -56 19 -77.5t67 -21.5q36 0 57 14t21 37q0 8 -3 15.5t-11 14.5t-13.5 12t-20 12t-21.5 10.5t-25.5 11.5t-25.5 11q-62 28 -96 59.5t-34 82.5q0 70 64 114.5t165 44.5q37 0 73.5 -5t53.5 -11l18 -5l7 -12 q-15 -64 -21 -134l-70 -6l-8 6q1 11 1 22q0 32 -18 46.5t-57 14.5q-32 0 -52.5 -13.5t-20.5 -35.5q0 -13 7.5 -24t27 -22.5t31.5 -17t42 -18.5q32 -14 52.5 -24.5t44.5 -28.5t36 -41t12 -52q0 -72 -64 -115t-173 -43zM118 567l-29 41q32 30 70 68.5t60 61.5l22 24h20 q80 -86 151 -154l-29 -41l-15 -4q-20 16 -117 83q-71 -46 -117 -83z" />
<glyph unicode="&#x15e;" horiz-adv-x="540" d="M202 -86l21 75q-40 3 -76.5 12t-53.5 17l-17 8l-8 14q15 88 16 170l84 7q0 -82 23 -111t87 -29q47 0 75.5 21t28.5 56q0 11 -3.5 21.5t-13.5 20.5t-17 16.5t-25 16.5t-26 14t-32 15.5t-31 15.5q-74 36 -116 76t-42 104q0 88 75 144t192 56q44 0 87 -7t64 -13l21 -7l7 -13 q-17 -81 -24 -172l-76 -6l-9 7q1 16 1 35q0 44 -22.5 62.5t-74.5 18.5q-41 0 -68 -20t-27 -51q0 -18 9.5 -33.5t31.5 -30.5t39 -23.5t51 -24.5q42 -20 65 -33t53.5 -36.5t45 -52t14.5 -64.5q0 -87 -70 -141.5t-187 -59.5l-9 -33q27 -16 43.5 -26.5t34.5 -31t18 -39.5 q0 -39 -40.5 -67.5t-92.5 -28.5q-28 0 -53 12t-25 31t37 63h9q1 -27 15 -41.5t37 -14.5q17 0 28.5 8.5t11.5 21.5q0 26 -86 71z" />
<glyph unicode="&#x15f;" horiz-adv-x="466" d="M191 -9q-40 0 -77 7.5t-54 15.5l-18 7l-8 12q13 71 15 131l77 6q0 -56 19 -77.5t67 -21.5q36 0 57 14t21 37q0 8 -3 15.5t-11 14.5t-13.5 12t-20 12t-21.5 10.5t-25.5 11.5t-25.5 11q-62 28 -96 59.5t-34 82.5q0 70 64 114.5t165 44.5q37 0 73.5 -5t53.5 -11l18 -5l7 -12 q-15 -64 -21 -134l-70 -6l-8 6q1 11 1 22q0 32 -18 46.5t-57 14.5q-32 0 -52.5 -13.5t-20.5 -35.5q0 -13 7.5 -24t27 -22.5t31.5 -17t42 -18.5q32 -14 52.5 -24.5t44.5 -28.5t36 -41t12 -52q0 -63 -49 -104t-135 -51l-11 -38q27 -16 43.5 -26.5t34.5 -31t18 -39.5 q0 -39 -40.5 -67.5t-92.5 -28.5q-28 0 -53 12t-25 31t37 63h9q1 -27 15 -41.5t37 -14.5q17 0 28.5 8.5t11.5 21.5q0 26 -86 71z" />
<glyph unicode="&#x160;" horiz-adv-x="540" d="M252 -12q-47 0 -91 9.5t-65 18.5l-20 10l-8 14q15 88 16 170l84 7q0 -82 23 -111t87 -29q47 0 75.5 21t28.5 56q0 11 -3.5 21.5t-13.5 20.5t-17 16.5t-25 16.5t-26 14t-32 15.5t-31 15.5q-74 36 -116 76t-42 104q0 88 75 144t192 56q44 0 87 -7t64 -13l21 -7l7 -13 q-17 -81 -24 -172l-76 -6l-9 7q1 16 1 35q0 44 -22.5 62.5t-74.5 18.5q-41 0 -68 -20t-27 -51q0 -18 9.5 -33.5t31.5 -30.5t39 -23.5t51 -24.5q42 -20 65 -33t53.5 -36.5t45 -52t14.5 -64.5q0 -92 -76 -147t-203 -55zM416 861l25 -41q-33 -24 -72.5 -55t-62.5 -50l-22 -19 h-20q-83 70 -157 124l24 41l16 4q50 -25 127 -58q48 20 126 58z" />
<glyph unicode="&#x161;" horiz-adv-x="466" d="M191 -9q-40 0 -77 7.5t-54 15.5l-18 7l-8 12q13 71 15 131l77 6q0 -56 19 -77.5t67 -21.5q36 0 57 14t21 37q0 8 -3 15.5t-11 14.5t-13.5 12t-20 12t-21.5 10.5t-25.5 11.5t-25.5 11q-62 28 -96 59.5t-34 82.5q0 70 64 114.5t165 44.5q37 0 73.5 -5t53.5 -11l18 -5l7 -12 q-15 -64 -21 -134l-70 -6l-8 6q1 11 1 22q0 32 -18 46.5t-57 14.5q-32 0 -52.5 -13.5t-20.5 -35.5q0 -13 7.5 -24t27 -22.5t31.5 -17t42 -18.5q32 -14 52.5 -24.5t44.5 -28.5t36 -41t12 -52q0 -72 -64 -115t-173 -43zM380 719l25 -41q-33 -24 -72.5 -55t-62.5 -50l-22 -19 h-20q-83 70 -157 124l24 41l16 4q50 -25 127 -58q48 20 126 58z" />
<glyph unicode="&#x162;" horiz-adv-x="569" d="M232 -86l24 86l-148 -6l8 66q66 6 83 23.5t17 81.5v398q-43 -1 -64 -4.5t-35 -20t-18 -37t-10 -68.5l-84 -6q9 117 11 215l11 11l101 -11h311l103 11l11 -11l10 -209l-84 -6q-11 93 -28.5 113.5t-92.5 22.5q-11 -163 -11 -428q0 -37 12.5 -52.5t42.5 -15.5l53 3l4 -5 l-9 -69q-84 3 -143 4l-12 -44q27 -16 43.5 -26.5t34.5 -31t18 -39.5q0 -39 -40.5 -67.5t-92.5 -28.5q-28 0 -53 12t-25 31t37 63h9q1 -27 15 -41.5t37 -14.5q17 0 28.5 8.5t11.5 21.5q0 26 -86 71z" />
<glyph unicode="&#x163;" horiz-adv-x="492" d="M196 -86l24 86l-125 -6l6 59q54 4 68.5 17.5t14.5 58.5v301q-55 -1 -71 -18.5t-24 -85.5l-77 -5q7 99 9 179l9 10l87 -9h258l87 9l10 -10l7 -174l-77 -5q-9 74 -23 90.5t-66 18.5q-8 -146 -8 -319q0 -29 10 -41t35 -12l43 2l4 -4l-8 -60q-69 3 -118 4l-12 -44 q27 -16 43.5 -26.5t34.5 -31t18 -39.5q0 -39 -40.5 -67.5t-92.5 -28.5q-28 0 -53 12t-25 31t37 63h9q1 -27 15 -41.5t37 -14.5q17 0 28.5 8.5t11.5 21.5q0 26 -86 71z" />
<glyph unicode="&#x164;" horiz-adv-x="569" d="M216 165v398q-43 -1 -64 -4.5t-35 -20t-18 -37t-10 -68.5l-84 -6q9 117 11 215l11 11l101 -11h311l103 11l11 -11l10 -209l-84 -6q-11 93 -28.5 113.5t-92.5 22.5q-11 -163 -11 -428q0 -37 12.5 -52.5t42.5 -15.5l53 3l4 -5l-9 -69q-122 4 -174 4l-168 -6l8 66 q66 6 83 23.5t17 81.5zM430 861l25 -41q-33 -24 -72.5 -55t-62.5 -50l-22 -19h-20q-83 70 -157 124l24 41l16 4q50 -25 127 -58q48 20 126 58z" />
<glyph unicode="&#x165;" horiz-adv-x="492" d="M184 129v301q-55 -1 -71 -18.5t-24 -85.5l-77 -5q7 99 9 179l9 10l87 -9h258l87 9l10 -10l7 -174l-77 -5q-9 74 -23 90.5t-66 18.5q-8 -146 -8 -319q0 -29 10 -41t35 -12l43 2l4 -4l-8 -60q-106 4 -149 4l-145 -6l6 59q54 4 68.5 17.5t14.5 58.5zM390 719l25 -41 q-33 -24 -72.5 -55t-62.5 -50l-22 -19h-20q-83 70 -157 124l24 41l16 4q50 -25 127 -58q48 20 126 58z" />
<glyph unicode="&#x166;" horiz-adv-x="569" d="M216 165v111l-86 -1l-10 10l8 48q42 -1 88 -1v231q-43 -1 -64 -4.5t-35 -20t-18 -37t-10 -68.5l-84 -6q9 117 11 215l11 11l101 -11h311l103 11l11 -11l10 -209l-84 -6q-11 93 -28.5 113.5t-92.5 22.5q-6 -72 -9 -230l74 4l14 -14l-4 -46l-85 -1q-1 -48 -1 -141 q0 -37 12.5 -52.5t42.5 -15.5l53 3l4 -5l-9 -69q-122 4 -174 4l-168 -6l8 66q66 6 83 23.5t17 81.5z" />
<glyph unicode="&#x167;" horiz-adv-x="492" d="M184 129v55l-90 -1l-10 9l8 48q44 -1 92 -1v191q-55 -1 -71 -18.5t-24 -85.5l-77 -5q7 99 9 179l9 10l87 -9h258l87 9l10 -10l7 -174l-77 -5q-9 74 -23 90.5t-66 18.5q-3 -48 -7 -191l81 5l14 -14l-4 -46h-92v-73q0 -29 10 -41t35 -12l43 2l4 -4l-8 -60q-106 4 -149 4 l-145 -6l6 59q54 4 68.5 17.5t14.5 58.5z" />
<glyph unicode="&#x168;" horiz-adv-x="655" d="M219 236q0 -75 32 -116t92 -41q122 0 122 130l-4 314q-1 33 -7 43.5t-25 10.5l-33 -2l-2 4l8 66q79 -3 117 -3l119 6l-6 -67q-37 -8 -47.5 -17t-10.5 -33v-311q0 -113 -66.5 -172.5t-191.5 -59.5q-232 0 -232 216v319q0 33 -6 43.5t-26 10.5l-32 -2l-2 4l9 66 q86 -3 143 -3l119 6l-7 -68q-31 -4 -42.5 -15t-13.5 -38zM202 714h-11l-40 36v11l79 101l16 4q18 0 77 -16.5t73 -16.5q10 0 26.5 14t27.5 28l11 14h11l39 -37v-10l-78 -102l-17 -4q-17 0 -76 17t-73 17q-11 0 -27.5 -14t-27.5 -28z" />
<glyph unicode="&#x169;" horiz-adv-x="552" d="M197 179q0 -51 24 -80t69 -29q90 0 90 91l-2 242q-1 25 -6 33.5t-19 8.5l-26 -1l-2 3l8 56q66 -2 97 -2l103 4l-5 -58q-30 -7 -38 -13.5t-8 -24.5v-234q0 -90 -55 -137t-159 -47q-99 0 -146.5 41t-47.5 126v245q0 26 -5.5 34t-21.5 8l-25 -1l-2 3l8 56q73 -2 125 -2 l101 4l-6 -59q-25 -2 -34.5 -11t-10.5 -29zM153 572h-11l-40 36v11l79 101l16 4q18 0 77 -16.5t73 -16.5q10 0 26.5 14t27.5 28l11 14h11l39 -37v-10l-78 -102l-17 -4q-17 0 -76 17t-73 17q-11 0 -27.5 -14t-26.5 -28z" />
<glyph unicode="&#x16a;" horiz-adv-x="655" d="M219 236q0 -75 32 -116t92 -41q122 0 122 130l-4 314q-1 33 -7 43.5t-25 10.5l-33 -2l-2 4l8 66q79 -3 117 -3l119 6l-6 -67q-37 -8 -47.5 -17t-10.5 -33v-311q0 -113 -66.5 -172.5t-191.5 -59.5q-232 0 -232 216v319q0 33 -6 43.5t-26 10.5l-32 -2l-2 4l9 66 q86 -3 143 -3l119 6l-7 -68q-31 -4 -42.5 -15t-13.5 -38zM485 800l8 -14l-12 -77l-141 -1l-139 -1l-11 12l14 76q95 -1 154 -1z" />
<glyph unicode="&#x16b;" horiz-adv-x="552" d="M197 179q0 -51 24 -80t69 -29q90 0 90 91l-2 242q-1 25 -6 33.5t-19 8.5l-26 -1l-2 3l8 56q66 -2 97 -2l103 4l-5 -58q-30 -7 -38 -13.5t-8 -24.5v-234q0 -90 -55 -137t-159 -47q-99 0 -146.5 41t-47.5 126v245q0 26 -5.5 34t-21.5 8l-25 -1l-2 3l8 56q73 -2 125 -2 l101 4l-6 -59q-25 -2 -34.5 -11t-10.5 -29zM433 658l8 -14l-12 -77l-141 -1l-139 -1l-11 12l14 76q95 -1 154 -1z" />
<glyph unicode="&#x16c;" horiz-adv-x="655" d="M219 236q0 -75 32 -116t92 -41q122 0 122 130l-4 314q-1 33 -7 43.5t-25 10.5l-33 -2l-2 4l8 66q79 -3 117 -3l119 6l-6 -67q-37 -8 -47.5 -17t-10.5 -33v-311q0 -113 -66.5 -172.5t-191.5 -59.5q-232 0 -232 216v319q0 33 -6 43.5t-26 10.5l-32 -2l-2 4l9 66 q86 -3 143 -3l119 6l-7 -68q-31 -4 -42.5 -15t-13.5 -38zM333 817q76 0 103 68l17 -4l28 -34q-15 -54 -52 -89.5t-96 -35.5t-96 35.5t-52 89.5l28 34l17 4q27 -68 103 -68z" />
<glyph unicode="&#x16d;" horiz-adv-x="552" d="M197 179q0 -51 24 -80t69 -29q90 0 90 91l-2 242q-1 25 -6 33.5t-19 8.5l-26 -1l-2 3l8 56q66 -2 97 -2l103 4l-5 -58q-30 -7 -38 -13.5t-8 -24.5v-234q0 -90 -55 -137t-159 -47q-99 0 -146.5 41t-47.5 126v245q0 26 -5.5 34t-21.5 8l-25 -1l-2 3l8 56q73 -2 125 -2 l101 4l-6 -59q-25 -2 -34.5 -11t-10.5 -29zM279 670q76 0 103 68l17 -4l28 -34q-15 -54 -52 -89.5t-96 -35.5t-96 35.5t-52 89.5l28 34l17 4q27 -68 103 -68z" />
<glyph unicode="&#x16e;" horiz-adv-x="655" d="M219 236q0 -75 32 -116t92 -41q122 0 122 130l-4 314q-1 33 -7 43.5t-25 10.5l-33 -2l-2 4l8 66q79 -3 117 -3l119 6l-6 -67q-37 -8 -47.5 -17t-10.5 -33v-311q0 -113 -66.5 -172.5t-191.5 -59.5q-232 0 -232 216v319q0 33 -6 43.5t-26 10.5l-32 -2l-2 4l9 66 q86 -3 143 -3l119 6l-7 -68q-31 -4 -42.5 -15t-13.5 -38zM342 731q40 0 40 36q0 19 -12 30.5t-34 11.5q-39 0 -39 -36q0 -21 14 -31.5t31 -10.5zM335 678q-42 0 -65 25t-23 66t26.5 68t69.5 27q45 0 67 -25t22 -62q0 -41 -26.5 -70t-70.5 -29z" />
<glyph unicode="&#x16f;" horiz-adv-x="552" d="M197 179q0 -51 24 -80t69 -29q90 0 90 91l-2 242q-1 25 -6 33.5t-19 8.5l-26 -1l-2 3l8 56q66 -2 97 -2l103 4l-5 -58q-30 -7 -38 -13.5t-8 -24.5v-234q0 -90 -55 -137t-159 -47q-99 0 -146.5 41t-47.5 126v245q0 26 -5.5 34t-21.5 8l-25 -1l-2 3l8 56q73 -2 125 -2 l101 4l-6 -59q-25 -2 -34.5 -11t-10.5 -29zM290 589q40 0 40 36q0 19 -12 30.5t-34 11.5q-39 0 -39 -36q0 -21 14 -31.5t31 -10.5zM283 536q-42 0 -65 25t-23 66t26.5 68t69.5 27q45 0 67 -25t22 -62q0 -41 -26.5 -70t-70.5 -29z" />
<glyph unicode="&#x170;" horiz-adv-x="655" d="M219 236q0 -75 32 -116t92 -41q122 0 122 130l-4 314q-1 33 -7 43.5t-25 10.5l-33 -2l-2 4l8 66q79 -3 117 -3l119 6l-6 -67q-37 -8 -47.5 -17t-10.5 -33v-311q0 -113 -66.5 -172.5t-191.5 -59.5q-232 0 -232 216v319q0 33 -6 43.5t-26 10.5l-32 -2l-2 4l9 66 q86 -3 143 -3l119 6l-7 -68q-31 -4 -42.5 -15t-13.5 -38zM409 794l-1 -12q-84 -46 -168 -98l-14 5l-23 34l151 134l12 -1zM577 790l-1 -12q-85 -46 -169 -98l-12 4l-24 34l151 134l12 -2z" />
<glyph unicode="&#x171;" horiz-adv-x="552" d="M197 179q0 -51 24 -80t69 -29q90 0 90 91l-2 242q-1 25 -6 33.5t-19 8.5l-26 -1l-2 3l8 56q66 -2 97 -2l103 4l-5 -58q-30 -7 -38 -13.5t-8 -24.5v-234q0 -90 -55 -137t-159 -47q-99 0 -146.5 41t-47.5 126v245q0 26 -5.5 34t-21.5 8l-25 -1l-2 3l8 56q73 -2 125 -2 l101 4l-6 -59q-25 -2 -34.5 -11t-10.5 -29zM342 652l-1 -12q-84 -46 -168 -98l-14 5l-23 34l151 134l12 -1zM510 648l-1 -12q-85 -46 -169 -98l-12 4l-24 34l151 134l12 -2z" />
<glyph unicode="&#x172;" horiz-adv-x="655" d="M519 -146l19 -29q-52 -49 -102 -66q-55 0 -87.5 24.5t-32.5 66.5q0 30 20 63.5t68 84.5q-37 -10 -88 -10q-232 0 -232 216v319q0 33 -6 43.5t-26 10.5l-32 -2l-2 4l9 66q86 -3 143 -3l119 6l-7 -68q-31 -4 -42.5 -15t-13.5 -38l-7 -291q0 -76 32.5 -116.5t91.5 -40.5 q122 0 122 130l-4 314q-1 33 -7 43.5t-25 10.5l-33 -2l-2 4l8 66q79 -3 117 -3l119 6l-6 -67q-37 -8 -47.5 -17t-10.5 -33v-311q0 -99 -64 -172q-71 -81 -91.5 -112t-20.5 -58q0 -22 13.5 -35t36.5 -13q15 0 33 6t28 12z" />
<glyph unicode="&#x173;" horiz-adv-x="553" d="M449 -146l19 -29q-53 -49 -102 -66q-55 0 -87.5 24.5t-32.5 66.5q0 31 21 65t67 82q-30 -6 -66 -6q-194 0 -194 167v245q0 25 -5 33.5t-21 8.5l-26 -1l-2 3l8 56q73 -2 125 -2l101 4l-6 -58q-25 -3 -34.5 -12t-10.5 -29l-6 -227q0 -52 24.5 -80.5t68.5 -28.5q90 0 90 91 q0 36 -1 131.5t-1 110.5q-1 26 -5.5 34t-19.5 8l-26 -1l-1 3l7 56q66 -2 97 -2l103 4l-5 -57q-30 -8 -38 -14.5t-8 -24.5v-234q0 -80 -52 -136q-63 -72 -83 -102.5t-20 -58.5q0 -21 14 -34.5t36 -13.5q16 0 34 6t28 12z" />
<glyph unicode="&#x174;" horiz-adv-x="964" d="M731 5l-159 -20q-16 92 -86 357h-10l-104 -337l-161 -20q-85 343 -141 530q-9 31 -26 45.5t-46 16.5l-4 7l7 60q80 -2 122 -2q36 0 77 2t64 4l23 2l5 -8l-5 -61q-48 -5 -61.5 -11.5t-13.5 -25.5q0 -18 22 -121t44 -197l23 -95h13q32 86 110 360q-2 20 -8 42 q-5 24 -21 33.5t-52 10.5l-5 7l8 60q91 -2 137 -2q33 0 74 2t65 4l24 2l5 -8l-5 -61q-49 -5 -62 -11t-13 -27q0 -16 22.5 -119t44.5 -198l22 -95h13q22 60 72.5 228.5t50.5 190.5q0 16 -11 22t-39 6h-38l-5 7l8 62q82 -5 143 -5l112 2l-7 -66q-23 -4 -32.5 -13.5 t-19.5 -38.5zM350 711l-25 41q33 24 72.5 55t62.5 50l22 19h20q0 1 22.5 -17t63 -50.5t71.5 -56.5l-24 -41l-16 -4q-50 25 -127 58q-48 -20 -126 -58z" />
<glyph unicode="&#x175;" horiz-adv-x="820" d="M630 4l-153 -16q-14 83 -63 261h-8l-78 -245l-154 -16q-70 282 -110 408q-14 46 -56 49q-2 4 -4 6l7 52q65 -2 102 -2l139 5l5 -6l-5 -53q-39 -4 -48.5 -8.5t-9.5 -19.5q0 -14 16 -91t32 -147l17 -70h12q14 31 85 274q-1 3 -2.5 13.5t-2.5 15.5q-4 18 -16 24.5t-41 6.5 l-4 6l7 52q77 -2 117 -2l139 5l5 -6l-4 -53q-40 -4 -49.5 -8t-9.5 -20q0 -13 16.5 -90t32.5 -147l16 -71h13q13 30 52.5 163t39.5 151q0 12 -8 16t-30 4h-28l-4 6l6 53q70 -3 119 -3l94 1l-6 -56q-17 -3 -25 -10.5t-16 -30.5zM278 569l-25 41q33 24 72.5 55t62.5 50l22 19 h20q0 1 22.5 -17t63 -50.5t71.5 -56.5l-24 -41l-16 -4q-50 25 -127 58q-48 -20 -126 -58z" />
<glyph unicode="&#x176;" horiz-adv-x="598" d="M227 552q0 -10 18 -54t42 -97t25 -55h10l79 165q14 28 14 48t-51 23l-2 5l7 58q10 0 59.5 -2t73.5 -2l102 4l4 -7l-7 -61q-39 -13 -63 -39.5t-58 -88.5l-96 -179q-17 -33 -18 -123v-15q-1 -37 9 -51t38 -14l50 3l3 -5l-9 -69q-115 4 -165 4q-25 0 -64 -3t-66 -5l-26 -3 l7 69q57 7 73.5 25t16.5 69v30q0 47 -29 102l-98 191q-24 48 -46.5 69.5t-66.5 30.5l-3 5l8 64q89 -3 129 -3l160 8l5 -9l-5 -58q-34 -1 -47 -8t-13 -22zM182 711l-25 41q33 24 72.5 55t62.5 50l22 19h20q0 1 22.5 -17t63 -50.5t71.5 -56.5l-24 -41l-16 -4q-50 25 -127 58 q-48 -20 -126 -58z" />
<glyph unicode="&#x177;" horiz-adv-x="524" d="M211 425q0 -7 13.5 -37t30.5 -65t20 -43h9l57 115q12 24 12 36q0 16 -40 17l-2 4l6 51q12 0 53.5 -1.5t61.5 -1.5l87 3l3 -6l-6 -53q-31 -11 -52 -33.5t-46 -65.5l-78 -140q-14 -28 -14 -97q-1 -28 8 -39t31 -11l42 2l2 -4l-7 -60q-101 4 -145 4l-138 -8l6 59q49 5 63 18 t14 52v20q0 34 -23 77l-83 150q-18 33 -37 49t-53 25l-3 4l7 56q79 -2 111 -2l136 6l5 -8l-6 -50q-45 -1 -45 -23zM142 569l-25 41q33 24 72.5 55t62.5 50l22 19h20q0 1 22.5 -17t63 -50.5t71.5 -56.5l-24 -41l-16 -4q-50 25 -127 58q-48 -20 -126 -58z" />
<glyph unicode="&#x178;" horiz-adv-x="598" d="M227 552q0 -10 18 -54t42 -97t25 -55h10l79 165q14 28 14 48t-51 23l-2 5l7 58q10 0 59.5 -2t73.5 -2l102 4l4 -7l-7 -61q-39 -13 -63 -39.5t-58 -88.5l-96 -179q-17 -33 -18 -123v-15q-1 -37 9 -51t38 -14l50 3l3 -5l-9 -69q-115 4 -165 4q-25 0 -64 -3t-66 -5l-26 -3 l7 69q57 7 73.5 25t16.5 69v30q0 47 -29 102l-98 191q-24 48 -46.5 69.5t-66.5 30.5l-3 5l8 64q89 -3 129 -3l160 8l5 -9l-5 -58q-34 -1 -47 -8t-13 -22zM408 706q-29 0 -44.5 16.5t-15.5 44.5q0 29 19 48t49 19q28 0 43.5 -16.5t15.5 -43.5q0 -30 -18.5 -49t-48.5 -19z M229 706q-28 0 -43.5 16.5t-15.5 44.5q0 29 18.5 48t48.5 19q28 0 44 -16.5t16 -43.5q0 -30 -18.5 -49t-49.5 -19z" />
<glyph unicode="&#x179;" horiz-adv-x="580" d="M531 16l-17 -19l-395 6l-75 -8l-25 45l351 529l-127 -8q-64 -8 -87 -33t-28 -94l-85 -6q14 124 17 216l10 10l178 -11l293 -3l18 -41q-153 -203 -361 -526l156 11q50 4 77.5 40.5t39.5 113.5l85 7q-21 -131 -25 -229zM485 775l-6 -13q-115 -29 -229 -65l-13 9l-13 47 l223 104l12 -5z" />
<glyph unicode="&#x17a;" horiz-adv-x="500" d="M455 13l-15 -15l-332 4l-64 -6l-22 38l283 402l-94 -7q-51 -6 -68.5 -24.5t-20.5 -70.5l-79 -5q11 101 13 174l9 8l147 -9l249 -2l17 -35q-148 -183 -292 -400l118 10q41 5 62.5 32t30.5 85l78 7q-17 -109 -20 -186zM428 633l-6 -13q-115 -29 -229 -65l-13 9l-13 47 l223 104l12 -5z" />
<glyph unicode="&#x17b;" horiz-adv-x="580" d="M531 16l-17 -19l-395 6l-75 -8l-25 45l351 529l-127 -8q-64 -8 -87 -33t-28 -94l-85 -6q14 124 17 216l10 10l178 -11l293 -3l18 -41q-153 -203 -361 -526l156 11q50 4 77.5 40.5t39.5 113.5l85 7q-21 -131 -25 -229zM307 702q-34 0 -52 20t-18 52q0 35 22 57.5t58 22.5 q33 0 51.5 -19.5t18.5 -52.5q0 -35 -22 -57.5t-58 -22.5z" />
<glyph unicode="&#x17c;" horiz-adv-x="500" d="M455 13l-15 -15l-332 4l-64 -6l-22 38l283 402l-94 -7q-51 -6 -68.5 -24.5t-20.5 -70.5l-79 -5q11 101 13 174l9 8l147 -9l249 -2l17 -35q-148 -183 -292 -400l118 10q41 5 62.5 32t30.5 85l78 7q-17 -109 -20 -186zM266 560q-34 0 -52 20t-18 52q0 35 22 57.5t58 22.5 q33 0 51.5 -19.5t18.5 -52.5q0 -35 -22 -57.5t-58 -22.5z" />
<glyph unicode="&#x17d;" horiz-adv-x="580" d="M531 16l-17 -19l-395 6l-75 -8l-25 45l351 529l-127 -8q-64 -8 -87 -33t-28 -94l-85 -6q14 124 17 216l10 10l178 -11l293 -3l18 -41q-153 -203 -361 -526l156 11q50 4 77.5 40.5t39.5 113.5l85 7q-21 -131 -25 -229zM453 861l25 -41q-33 -24 -72.5 -55t-61.5 -50 l-23 -19h-20q-83 70 -157 124l24 41l16 4q50 -25 127 -58q48 20 126 58z" />
<glyph unicode="&#x17e;" horiz-adv-x="500" d="M455 13l-15 -15l-332 4l-64 -6l-22 38l283 402l-94 -7q-51 -6 -68.5 -24.5t-20.5 -70.5l-79 -5q11 101 13 174l9 8l147 -9l249 -2l17 -35q-148 -183 -292 -400l118 10q41 5 62.5 32t30.5 85l78 7q-17 -109 -20 -186zM411 719l25 -41q-33 -24 -72.5 -55t-61.5 -50l-23 -19 h-20q-83 70 -157 124l24 41l16 4q50 -25 127 -58q48 20 126 58z" />
<glyph unicode="&#x192;" horiz-adv-x="416" d="M129 0l17 264q-1 24 -14.5 30.5t-60.5 6.5l-4 6l8 46l76 12l2 23q1 37 17 74q20 59 74.5 97.5t117.5 38.5q37 0 66.5 -9t29.5 -21q0 -16 -10 -50.5t-19 -46.5l-15 -1q-42 54 -86 54q-32 0 -43.5 -26t-15.5 -79l-5 -56q31 0 74 0.5t48 0.5l4 -5l-10 -61q-15 0 -121 2 l-14 -195q-6 -78 -26 -138q-18 -57 -66 -92.5t-104 -35.5q-31 0 -59.5 13t-28.5 28q0 18 10 50t20 44h15q7 -27 27 -45t44 -18q49 0 52 89z" />
<glyph unicode="&#x1fa;" horiz-adv-x="625" d="M552 132q11 -36 28 -51t50 -18l4 -7l-7 -59q-79 3 -123 3q-38 0 -80.5 -2t-65.5 -4l-23 -2l-6 8l5 60q49 4 63 11t14 26q0 10 -5 33l-20 76q-26 1 -91 1q-39 0 -95 -7l-25 -75q-6 -21 -6 -31q0 -17 10 -23.5t36 -6.5h43l4 -7l-7 -63q-82 6 -146 6l-121 -3l8 67 q24 4 38.5 18.5t26.5 47.5l178 507l159 16l11 -5q90 -347 143 -516zM296 510l-72 -224h70q32 0 74 4l-58 220h-14zM328 721q36 0 36 32q0 38 -41 38q-36 0 -36 -32q0 -19 13 -28.5t28 -9.5zM322 673q-38 0 -59 22t-21 60q0 37 24 61.5t63 24.5q41 0 60.5 -23t19.5 -56 q0 -36 -23.5 -62.5t-63.5 -26.5zM449 903l-5 -11q-104 -26 -206 -59l-12 8l-12 43l201 93l11 -4z" />
<glyph unicode="&#x1fb;" horiz-adv-x="544" d="M477 108q8 -27 21.5 -39t39.5 -14l3 -7l-6 -50q-66 2 -104 2l-145 -6l-5 6l4 54q41 4 51.5 8t10.5 19q0 6 -4 22l-14 50q-21 1 -72 1q-14 0 -45 -2l-30 -2l-18 -51q-4 -20 -4 -21q0 -13 7 -17.5t28 -4.5h31l6 -7l-7 -53q-70 4 -122 4l-102 -2l6 57q33 6 50 49l143 393 l153 13l10 -6q75 -280 114 -396zM258 390l-54 -163h53q23 0 57 2l-43 161h-13zM279 580q36 0 36 32q0 38 -41 38q-36 0 -36 -32q0 -19 13 -28.5t28 -9.5zM273 532q-38 0 -59 22t-21 60q0 37 24 61.5t63 24.5q41 0 60.5 -23t19.5 -56q0 -36 -23.5 -62.5t-63.5 -26.5zM395 761 l-5 -11q-104 -26 -206 -59l-12 8l-12 43l201 93l11 -4z" />
<glyph unicode="&#x1fc;" horiz-adv-x="871" d="M319 60q51 4 67 13.5t16 34.5q0 13 -4 49l-12 92l-87 -11l-84 -16l-45 -97q-11 -25 -11 -37q0 -14 11.5 -19t43.5 -5l33 -5l-6 -65q-1 1 -30 2t-69.5 2.5t-66.5 1.5l-74 -3l-5 60q10 2 27.5 22.5t32.5 50.5l208 425q-4 22 -25 22l-31 -2l-6 9l8 61q111 -3 242 -3 q236 0 320 12l8 -11q-18 -89 -23 -182l-91 -6q2 26 2 40q0 41 -22 52t-107 11q-34 0 -43 -5t-10 -22l26 -182l96 12l96 19l11 -10l-13 -84l-91 -7l-88 -10l20 -123q6 -36 22.5 -52t47.5 -16q84 0 108.5 20t34.5 95l85 7l7 -10q-18 -90 -28 -186l-9 -11l-45 1q-45 2 -119.5 4 t-129.5 2h-38q-36 0 -75.5 -2t-61.5 -4l-22 -2l-5 8zM252 317l65 4l62 8l-23 181h-15zM653 841l-1 -14q-96 -60 -189 -129l-15 4l-30 39q36 36 78 78.5t66 67.5l23 25l14 -1z" />
<glyph unicode="&#x1fd;" horiz-adv-x="751" d="M277 54q40 3 52.5 10t12.5 25q0 7 -1.5 18.5t-1.5 15.5l-8 63l-70 -8l-68 -15l-30 -65q-9 -15 -9 -25q0 -11 9 -14t36 -3l23 -5l-6 -55h-11q-11 1 -27.5 1.5t-35 1t-38 1t-31.5 0.5l-63 -2l-3 54q23 4 49 52l163 322q-4 19 -21 19l-24 -1l-7 7l7 52q102 -2 218 -2 q200 0 270 9l7 -9q-15 -73 -19 -146l-85 -6q2 20 2 31q0 31 -17.5 39t-82.5 8q-25 0 -32 -3.5t-8 -17.5l20 -129l74 10l81 17l9 -10l-10 -73l-75 -7l-68 -9l14 -83q9 -53 55 -53q64 0 83 15.5t27 72.5l79 6l7 -9q-15 -72 -23 -150l-9 -9l-37 1q-38 1 -100.5 2.5t-110.5 1.5 h-33l-133 -6l-4 6zM227 248l48 4l49 6l-17 131h-13zM567 699l-1 -14q-96 -60 -189 -129l-15 4l-30 39q36 36 78 78.5t66 67.5l23 25l14 -1z" />
<glyph unicode="&#x1fe;" horiz-adv-x="674" d="M63 -68l69 115q-104 84 -104 257q0 158 90 254t238 96q66 0 119 -21l59 96l62 -29l3 -13l-57 -91q104 -82 104 -255q0 -159 -91 -256t-240 -97q-62 0 -119 21l-70 -116l-60 29zM340 75q71 0 110.5 55.5t39.5 157.5q0 107 -29 174l-207 -355q35 -32 86 -32zM183 344 q0 -103 26 -169l204 353q-35 29 -85 29q-69 0 -107 -55.5t-38 -157.5zM488 781l-6 -13q-115 -29 -229 -65l-13 9l-13 47l223 104l12 -5z" />
<glyph unicode="&#x1ff;" horiz-adv-x="570" d="M45 -48l62 91q-78 66 -78 196q0 125 73 198t198 73q54 0 96 -15l54 80l60 -30l1 -11l-50 -74q80 -63 80 -195q0 -126 -74 -200t-198 -74q-54 0 -100 16l-64 -94l-58 31zM288 68q52 0 80.5 39t28.5 115q0 72 -15 117l-158 -249q25 -22 64 -22zM173 272q0 -63 11 -109 l154 243q-27 19 -60 19q-105 0 -105 -153zM430 647l-6 -13q-115 -29 -229 -65l-13 9l-13 47l223 104l12 -5z" />
<glyph unicode="&#x218;" horiz-adv-x="540" d="M252 -12q-47 0 -91 9.5t-65 18.5l-20 10l-8 14q15 88 16 170l84 7q0 -82 23 -111t87 -29q47 0 75.5 21t28.5 56q0 11 -3.5 21.5t-13.5 20.5t-17 16.5t-25 16.5t-26 14t-32 15.5t-31 15.5q-74 36 -116 76t-42 104q0 88 75 144t192 56q44 0 87 -7t64 -13l21 -7l7 -13 q-17 -81 -24 -172l-76 -6l-9 7q1 16 1 35q0 44 -22.5 62.5t-74.5 18.5q-41 0 -68 -20t-27 -51q0 -18 9.5 -33.5t31.5 -30.5t39 -23.5t51 -24.5q42 -20 65 -33t53.5 -36.5t45 -52t14.5 -64.5q0 -92 -76 -147t-203 -55zM176 -100l3 14q44 35 79 35q30 0 49.5 -23.5t19.5 -62.5 q0 -50 -41.5 -98t-105.5 -83l-37 30v17q30 21 49 49t19 53q0 41 -35 69z" />
<glyph unicode="&#x219;" horiz-adv-x="466" d="M191 -9q-40 0 -77 7.5t-54 15.5l-18 7l-8 12q13 71 15 131l77 6q0 -56 19 -77.5t67 -21.5q36 0 57 14t21 37q0 8 -3 15.5t-11 14.5t-13.5 12t-20 12t-21.5 10.5t-25.5 11.5t-25.5 11q-62 28 -96 59.5t-34 82.5q0 70 64 114.5t165 44.5q37 0 73.5 -5t53.5 -11l18 -5l7 -12 q-15 -64 -21 -134l-70 -6l-8 6q1 11 1 22q0 32 -18 46.5t-57 14.5q-32 0 -52.5 -13.5t-20.5 -35.5q0 -13 7.5 -24t27 -22.5t31.5 -17t42 -18.5q32 -14 52.5 -24.5t44.5 -28.5t36 -41t12 -52q0 -72 -64 -115t-173 -43zM147 -100l3 14q44 35 79 35q30 0 49.5 -23.5t19.5 -62.5 q0 -50 -41.5 -98t-105.5 -83l-37 30v17q30 21 49 49t19 53q0 41 -35 69z" />
<glyph unicode="&#x21a;" horiz-adv-x="569" d="M216 165v398q-43 -1 -64 -4.5t-35 -20t-18 -37t-10 -68.5l-84 -6q9 117 11 215l11 11l101 -11h311l103 11l11 -11l10 -209l-84 -6q-11 93 -28.5 113.5t-92.5 22.5q-11 -163 -11 -428q0 -37 12.5 -52.5t42.5 -15.5l53 3l4 -5l-9 -69q-122 4 -174 4l-168 -6l8 66 q66 6 83 23.5t17 81.5zM206 -100l3 14q44 35 79 35q30 0 49.5 -23.5t19.5 -62.5q0 -50 -41.5 -98t-105.5 -83l-37 30v17q30 21 49 49t19 53q0 41 -35 69z" />
<glyph unicode="&#x21b;" horiz-adv-x="492" d="M184 129v301q-55 -1 -71 -18.5t-24 -85.5l-77 -5q7 99 9 179l9 10l87 -9h258l87 9l10 -10l7 -174l-77 -5q-9 74 -23 90.5t-66 18.5q-8 -146 -8 -319q0 -29 10 -41t35 -12l43 2l4 -4l-8 -60q-106 4 -149 4l-145 -6l6 59q54 4 68.5 17.5t14.5 58.5zM173 -100l3 14 q44 35 79 35q30 0 49.5 -23.5t19.5 -62.5q0 -50 -41.5 -98t-105.5 -83l-37 30v17q30 21 49 49t19 53q0 41 -35 69z" />
<glyph unicode="&#x237;" horiz-adv-x="294" d="M91 98l1 306q0 25 -5.5 33t-22.5 8l-33 -2l-6 8l7 50h105l133 6l-5 -59q-26 -4 -33 -11.5t-9 -30.5q-10 -175 -10 -331q-1 -77 -42.5 -124t-131.5 -73l-25 33l2 10q45 34 60 69t15 108z" />
<glyph unicode="&#x2c6;" d="M66 535l-29 41q32 30 70 68.5t60 61.5l22 24h20q80 -86 151 -154l-29 -41l-15 -4q-20 16 -117 83q-71 -46 -117 -83z" />
<glyph unicode="&#x2c7;" d="M33 679l30 42l15 3q53 -42 121 -85q75 50 119 85l16 -3l30 -42q-33 -31 -72 -70.5t-62 -63.5l-22 -24h-20q-82 88 -155 158z" />
<glyph unicode="&#x2d8;" d="M199 642q76 0 103 68l17 -4l28 -34q-15 -54 -52 -89.5t-96 -35.5t-96 35.5t-52 89.5l28 34l17 4q27 -68 103 -68z" />
<glyph unicode="&#x2d9;" d="M194 574q-34 0 -52 20t-18 52q0 35 22 57.5t58 22.5q33 0 51.5 -19.5t18.5 -52.5q0 -35 -22 -57.5t-58 -22.5z" />
<glyph unicode="&#x2da;" d="M201 596q40 0 40 37q0 41 -46 41q-39 0 -39 -35q0 -22 14 -32.5t31 -10.5zM194 543q-42 0 -65 25t-23 66t26.5 68t69.5 27q45 0 67 -25t22 -61q0 -41 -26 -70.5t-71 -29.5z" />
<glyph unicode="&#x2db;" d="M288 -146l18 -29q-52 -49 -102 -66q-54 0 -86.5 24.5t-32.5 66.5q0 38 31 80t102 112h54q-64 -74 -85 -105t-21 -59q0 -21 14 -34.5t36 -13.5q16 0 34 6t28 12z" />
<glyph unicode="&#x2dc;" d="M70 539h-11l-40 36v11l79 101l16 4q18 0 77 -16.5t73 -16.5q10 0 26.5 14t27.5 28l11 14h11l39 -37v-10l-78 -102l-17 -4q-17 0 -76 17t-73 17q-11 0 -27.5 -14t-27.5 -28z" />
<glyph unicode="&#x2dd;" d="M242 677v-11q-74 -64 -148 -135l-14 1l-31 28l124 166l12 1zM387 677v-11q-74 -64 -148 -135l-14 1l-32 28l125 166l11 1z" />
<glyph unicode="&#x323;" horiz-adv-x="321" d="M157 -211q-36 0 -55 20.5t-19 54.5q0 36 22 59t59 23q35 0 54.5 -20.5t19.5 -54.5q0 -36 -22 -59t-59 -23z" />
<glyph unicode="&#x394;" horiz-adv-x="604" d="M20 0l-10 13l219 624l160 17h9q98 -390 183 -647l-8 -7h-553zM301 519h-15l-134 -424h256z" />
<glyph unicode="&#x3a9;" horiz-adv-x="857" d="M819 14l-19 -19l-271 11l-56 -8l-17 49q70 61 97 122.5t27 163.5q0 109 -38.5 166.5t-110.5 57.5q-74 0 -116 -50t-42 -142q0 -216 121 -317l-16 -51l-56 9l-268 -11l-18 19q0 36 -3 84t-6 78l-3 30l70 7q8 -71 28 -99.5t63 -30.5l73 -4q-140 121 -140 281q0 126 91 210 t228 84q134 0 217 -75.5t83 -196.5q0 -184 -151 -304l83 5q41 2 61 29t29 94l72 7q-12 -117 -12 -199z" />
<glyph unicode="&#x3bc;" horiz-adv-x="532" d="M59 450q93 13 133 24l9 -17q-10 -24 -18.5 -107.5t-8.5 -174.5q0 -81 64 -81q8 0 17.5 2.5t17.5 6t16.5 8.5t13.5 8.5t11 7.5l5 4v204q0 21 -2.5 45t-4.5 38l-3 14l7 17q92 14 138 23l10 -17q-11 -23 -19 -116t-8 -206q0 -41 35 -41q11 0 22.5 4t17.5 8l7 5l15 -21 q-6 -10 -17 -25t-38.5 -42.5t-48.5 -32.5q-94 0 -102 75l-8 4q-67 -72 -104 -78q-32 0 -54 17l-5 -3l-1 -59v-35l7 -122l-7 -9l-109 -20l-11 13q13 141 18 302l7 254q0 24 -2 50.5t-5 40.5l-2 15z" />
<glyph unicode="&#x3c0;" horiz-adv-x="621" d="M473 178q0 -49 18 -67.5t66 -18.5l9 -15q0 -13 -35 -51t-46 -38q-66 0 -96.5 31.5t-30.5 99.5l3 250q0 33 -9.5 41t-50.5 8q-35 0 -44 -7t-10 -37q-8 -200 -8 -341l3 -99l-7 -10l-118 -22l-7 14q5 12 10 166t5 279q0 30 -6.5 40.5t-25.5 10.5q-13 0 -29.5 -12.5 t-26.5 -25.5l-10 -12l-8 -1l-31 42l1 8l74 87l15 7q64 0 192.5 -5t151.5 -5q32 0 75.5 2.5t70.5 4.5l28 3l6 -7l-13 -70l-7 -7q-58 0 -76 -10t-22 -45q-11 -132 -11 -188z" />
<glyph unicode="&#x1e80;" horiz-adv-x="964" d="M731 5l-159 -20q-16 92 -86 357h-10l-104 -337l-161 -20q-85 343 -141 530q-9 31 -26 45.5t-46 16.5l-4 7l7 60q80 -2 122 -2q36 0 77 2t64 4l23 2l5 -8l-5 -61q-48 -5 -61.5 -11.5t-13.5 -25.5q0 -18 22 -121t44 -197l23 -95h13q32 86 110 360q-2 20 -8 42 q-5 24 -21 33.5t-52 10.5l-5 7l8 60q91 -2 137 -2q33 0 74 2t65 4l24 2l5 -8l-5 -61q-49 -5 -62 -11t-13 -27q0 -16 22.5 -119t44.5 -198l22 -95h13q22 60 72.5 228.5t50.5 190.5q0 16 -11 22t-39 6h-38l-5 7l8 62q82 -5 143 -5l112 2l-7 -66q-23 -4 -32.5 -13.5 t-19.5 -38.5zM329 762l-5 13l26 77l12 5q115 -57 223 -104l-13 -47l-14 -9q-51 16 -108 32.5t-89 24.5z" />
<glyph unicode="&#x1e81;" horiz-adv-x="820" d="M630 4l-153 -16q-14 83 -63 261h-8l-78 -245l-154 -16q-70 282 -110 408q-14 46 -56 49q-2 4 -4 6l7 52q65 -2 102 -2l139 5l5 -6l-5 -53q-39 -4 -48.5 -8.5t-9.5 -19.5q0 -14 16 -91t32 -147l17 -70h12q14 31 85 274q-1 3 -2.5 13.5t-2.5 15.5q-4 18 -16 24.5t-41 6.5 l-4 6l7 52q77 -2 117 -2l139 5l5 -6l-4 -53q-40 -4 -49.5 -8t-9.5 -20q0 -13 16.5 -90t32.5 -147l16 -71h13q13 30 52.5 163t39.5 151q0 12 -8 16t-30 4h-28l-4 6l6 53q70 -3 119 -3l94 1l-6 -56q-17 -3 -25 -10.5t-16 -30.5zM266 620l-5 13l26 77l12 5q115 -57 223 -104 l-13 -47l-14 -9q-51 16 -108 32t-89 25z" />
<glyph unicode="&#x1e82;" horiz-adv-x="964" d="M731 5l-159 -20q-16 92 -86 357h-10l-104 -337l-161 -20q-85 343 -141 530q-9 31 -26 45.5t-46 16.5l-4 7l7 60q80 -2 122 -2q36 0 77 2t64 4l23 2l5 -8l-5 -61q-48 -5 -61.5 -11.5t-13.5 -25.5q0 -18 22 -121t44 -197l23 -95h13q32 86 110 360q-2 20 -8 42 q-5 24 -21 33.5t-52 10.5l-5 7l8 60q91 -2 137 -2q33 0 74 2t65 4l24 2l5 -8l-5 -61q-49 -5 -62 -11t-13 -27q0 -16 22.5 -119t44.5 -198l22 -95h13q22 60 72.5 228.5t50.5 190.5q0 16 -11 22t-39 6h-38l-5 7l8 62q82 -5 143 -5l112 2l-7 -66q-23 -4 -32.5 -13.5 t-19.5 -38.5zM665 775l-6 -13q-115 -29 -229 -65l-13 9l-13 47l223 104l12 -5z" />
<glyph unicode="&#x1e83;" horiz-adv-x="820" d="M630 4l-153 -16q-14 83 -63 261h-8l-78 -245l-154 -16q-70 282 -110 408q-14 46 -56 49q-2 4 -4 6l7 52q65 -2 102 -2l139 5l5 -6l-5 -53q-39 -4 -48.5 -8.5t-9.5 -19.5q0 -14 16 -91t32 -147l17 -70h12q14 31 85 274q-1 3 -2.5 13.5t-2.5 15.5q-4 18 -16 24.5t-41 6.5 l-4 6l7 52q77 -2 117 -2l139 5l5 -6l-4 -53q-40 -4 -49.5 -8t-9.5 -20q0 -13 16.5 -90t32.5 -147l16 -71h13q13 30 52.5 163t39.5 151q0 12 -8 16t-30 4h-28l-4 6l6 53q70 -3 119 -3l94 1l-6 -56q-17 -3 -25 -10.5t-16 -30.5zM582 633l-6 -13q-115 -29 -229 -65l-13 9 l-13 47l223 104l12 -5z" />
<glyph unicode="&#x1e84;" horiz-adv-x="964" d="M731 5l-159 -20q-16 92 -86 357h-10l-104 -337l-161 -20q-85 343 -141 530q-9 31 -26 45.5t-46 16.5l-4 7l7 60q80 -2 122 -2q36 0 77 2t64 4l23 2l5 -8l-5 -61q-48 -5 -61.5 -11.5t-13.5 -25.5q0 -18 22 -121t44 -197l23 -95h13q32 86 110 360q-2 20 -8 42 q-5 24 -21 33.5t-52 10.5l-5 7l8 60q91 -2 137 -2q33 0 74 2t65 4l24 2l5 -8l-5 -61q-49 -5 -62 -11t-13 -27q0 -16 22.5 -119t44.5 -198l22 -95h13q22 60 72.5 228.5t50.5 190.5q0 16 -11 22t-39 6h-38l-5 7l8 62q82 -5 143 -5l112 2l-7 -66q-23 -4 -32.5 -13.5 t-19.5 -38.5zM576 706q-29 0 -44.5 16.5t-15.5 44.5q0 29 19 48t49 19q28 0 43.5 -16.5t15.5 -43.5q0 -30 -18.5 -49t-48.5 -19zM397 706q-28 0 -43.5 16.5t-15.5 44.5q0 29 18.5 48t48.5 19q28 0 44 -16.5t16 -43.5q0 -30 -18.5 -49t-49.5 -19z" />
<glyph unicode="&#x1e85;" horiz-adv-x="820" d="M630 4l-153 -16q-14 83 -63 261h-8l-78 -245l-154 -16q-70 282 -110 408q-14 46 -56 49q-2 4 -4 6l7 52q65 -2 102 -2l139 5l5 -6l-5 -53q-39 -4 -48.5 -8.5t-9.5 -19.5q0 -14 16 -91t32 -147l17 -70h12q14 31 85 274q-1 3 -2.5 13.5t-2.5 15.5q-4 18 -16 24.5t-41 6.5 l-4 6l7 52q77 -2 117 -2l139 5l5 -6l-4 -53q-40 -4 -49.5 -8t-9.5 -20q0 -13 16.5 -90t32.5 -147l16 -71h13q13 30 52.5 163t39.5 151q0 12 -8 16t-30 4h-28l-4 6l6 53q70 -3 119 -3l94 1l-6 -56q-17 -3 -25 -10.5t-16 -30.5zM505 564q-29 0 -44.5 16.5t-15.5 44.5 q0 29 18.5 48t49.5 19q28 0 43.5 -16.5t15.5 -43.5q0 -30 -18.5 -49t-48.5 -19zM326 564q-28 0 -43.5 16.5t-15.5 44.5q0 29 18.5 48t48.5 19q28 0 44 -16.5t16 -43.5q0 -30 -18.5 -49t-49.5 -19z" />
<glyph unicode="&#x1ef2;" horiz-adv-x="598" d="M227 552q0 -10 18 -54t42 -97t25 -55h10l79 165q14 28 14 48t-51 23l-2 5l7 58q10 0 59.5 -2t73.5 -2l102 4l4 -7l-7 -61q-39 -13 -63 -39.5t-58 -88.5l-96 -179q-17 -33 -18 -123v-15q-1 -37 9 -51t38 -14l50 3l3 -5l-9 -69q-115 4 -165 4q-25 0 -64 -3t-66 -5l-26 -3 l7 69q57 7 73.5 25t16.5 69v30q0 47 -29 102l-98 191q-24 48 -46.5 69.5t-66.5 30.5l-3 5l8 64q89 -3 129 -3l160 8l5 -9l-5 -58q-34 -1 -47 -8t-13 -22zM161 762l-5 13l26 77l12 5q115 -57 223 -104l-13 -47l-14 -9q-51 16 -108 32.5t-89 24.5z" />
<glyph unicode="&#x1ef3;" horiz-adv-x="524" d="M211 425q0 -7 13.5 -37t30.5 -65t20 -43h9l57 115q12 24 12 36q0 16 -40 17l-2 4l6 51q12 0 53.5 -1.5t61.5 -1.5l87 3l3 -6l-6 -53q-31 -11 -52 -33.5t-46 -65.5l-78 -140q-14 -28 -14 -97q-1 -28 8 -39t31 -11l42 2l2 -4l-7 -60q-101 4 -145 4l-138 -8l6 59q49 5 63 18 t14 52v20q0 34 -23 77l-83 150q-18 33 -37 49t-53 25l-3 4l7 56q79 -2 111 -2l136 6l5 -8l-6 -50q-45 -1 -45 -23zM130 620l-5 13l26 77l12 5q115 -57 223 -104l-13 -47l-14 -9q-51 16 -108 32t-89 25z" />
<glyph unicode="&#x2013;" horiz-adv-x="453" d="M455 305l8 -15l-11 -77q-86 0 -250 -0.5t-202 -0.5l-9 13l11 76h241q87 0 130 1q82 2 82 3z" />
<glyph unicode="&#x2014;" horiz-adv-x="876" d="M877 305l8 -15l-11 -77q-166 0 -484 -0.5t-390 -0.5l-9 13l11 76h439q392 0 436 4z" />
<glyph unicode="&#x2018;" horiz-adv-x="218" d="M178 436l-2 -14q-44 -35 -79 -35q-30 0 -49.5 23t-19.5 62q0 50 41.5 98t105.5 84l37 -30v-17q-30 -20 -49 -48.5t-19 -54.5q0 -39 34 -68z" />
<glyph unicode="&#x2019;" horiz-adv-x="218" d="M39 605l3 14q45 35 79 35q30 0 49.5 -23.5t19.5 -62.5q0 -50 -41.5 -98t-105.5 -83l-37 30v17q30 20 49 48t19 54q0 41 -35 69z" />
<glyph unicode="&#x201a;" horiz-adv-x="238" d="M45 94l3 14q45 34 79 34q30 0 48.5 -24t18.5 -65q0 -52 -44 -104t-109 -89l-37 30v17q32 22 52 53t20 61q0 40 -31 73z" />
<glyph unicode="&#x201c;" horiz-adv-x="402" d="M362 436l-2 -14q-44 -35 -79 -35q-30 0 -49.5 23t-19.5 62q0 50 41.5 98t105.5 84l37 -30v-17q-30 -20 -49 -48.5t-19 -54.5q0 -39 34 -68zM178 436l-2 -14q-44 -35 -79 -35q-30 0 -49.5 23t-19.5 62q0 50 41.5 98t105.5 84l37 -30v-17q-30 -20 -49 -48.5t-19 -54.5 q0 -39 34 -68z" />
<glyph unicode="&#x201d;" horiz-adv-x="402" d="M223 605l3 14q45 35 79 35q30 0 49.5 -23.5t19.5 -62.5q0 -50 -41.5 -98t-105.5 -83l-37 30v17q30 20 49 48t19 54q0 41 -35 69zM39 605l3 14q45 35 79 35q30 0 49.5 -23.5t19.5 -62.5q0 -50 -41.5 -98t-105.5 -83l-37 30v17q30 20 49 48t19 54q0 41 -35 69z" />
<glyph unicode="&#x201e;" horiz-adv-x="421" d="M46 94l2 14q45 34 79 34q30 0 49.5 -23t19.5 -62q0 -50 -41.5 -98t-105.5 -84l-37 30v17q30 20 49 48.5t19 54.5q0 40 -34 69zM227 94l2 14q45 34 79 34q30 0 49.5 -23t19.5 -62q0 -50 -41.5 -98t-105.5 -84l-37 30v17q30 20 49 48.5t19 54.5q0 40 -34 69z" />
<glyph unicode="&#x2020;" horiz-adv-x="512" d="M297 592l8 -8l-1 -178l158 2l10 -11l-7 -80h-162v-402l-88 -6l-9 9v399h-158l-8 11l7 78h159v179z" />
<glyph unicode="&#x2021;" horiz-adv-x="512" d="M297 592l8 -8l-1 -159l159 1l9 -10l-7 -80h-162v-158l160 1l9 -10l-7 -80h-162v-174l-88 -6l-9 9v171h-158l-8 10l7 78l159 1v158h-158l-8 11l7 78h159v160z" />
<glyph unicode="&#x2022;" horiz-adv-x="340" d="M167 113q-55 0 -86 32t-31 85q0 55 34 90t89 35q54 0 85.5 -32.5t31.5 -84.5q0 -55 -34 -90t-89 -35z" />
<glyph unicode="&#x2024;" horiz-adv-x="238" d="M116 -11q-37 0 -56 20.5t-19 55.5q0 36 22 59t59 23q35 0 55 -20.5t20 -54.5q0 -37 -22 -60t-59 -23z" />
<glyph unicode="&#x2025;" horiz-adv-x="458" d="M116 -11q-37 0 -56 20.5t-19 55.5q0 36 22 59t59 23q35 0 55 -20.5t20 -54.5q0 -37 -22 -60t-59 -23zM336 -11q-37 0 -56 20.5t-19 55.5q0 36 22 59t59 23q35 0 55 -20.5t20 -54.5q0 -37 -22 -60t-59 -23z" />
<glyph unicode="&#x2026;" horiz-adv-x="677" d="M336 -11q-37 0 -56 20.5t-19 55.5q0 36 22 59t59 23q35 0 55 -20.5t20 -54.5q0 -37 -22 -60t-59 -23zM555 -11q-37 0 -56 20.5t-19 55.5q0 36 22 59t59 23q35 0 55 -20.5t20 -54.5q0 -37 -22 -60t-59 -23zM116 -11q-37 0 -56 20.5t-19 55.5q0 36 22 59t59 23 q35 0 55 -20.5t20 -54.5q0 -37 -22 -60t-59 -23z" />
<glyph unicode="&#x2030;" horiz-adv-x="1048" d="M172 408q82 0 82 66q0 35 -24 56t-69 21q-80 0 -80 -65q0 -39 25.5 -58.5t65.5 -19.5zM160 309q-66 0 -104 44t-38 121q0 82 43.5 131t114.5 49q67 0 104 -44.5t37 -117.5q0 -82 -42.5 -132.5t-114.5 -50.5zM562 88q81 0 81 65q0 35 -24 56.5t-69 21.5q-39 0 -59.5 -17.5 t-20.5 -48.5q0 -39 25.5 -58t66.5 -19zM550 -12q-66 0 -104 44t-38 122q0 82 43.5 130.5t114.5 48.5q68 0 104.5 -44t36.5 -118q0 -82 -42.5 -132.5t-114.5 -50.5zM897 88q82 0 82 65q0 35 -24.5 56.5t-68.5 21.5q-80 0 -80 -66q0 -39 25 -58t66 -19zM885 -12q-66 0 -104 44 t-38 122q0 82 44 130.5t114 48.5q67 0 104 -44t37 -118q0 -82 -42.5 -132.5t-114.5 -50.5zM607 653l7 -19q-176 -267 -266 -407l-202 -320l-65 27l-5 14q121 180 207 316l262 414z" />
<glyph unicode="&#x2039;" horiz-adv-x="265" d="M180 411l41 -25l4 -16q-18 -27 -48.5 -76t-40.5 -65q0 -1 35 -57.5t54 -86.5l-4 -16l-41 -25q-32 36 -73.5 79t-66.5 67l-25 25v21q92 92 165 175z" />
<glyph unicode="&#x203a;" horiz-adv-x="265" d="M86 44l-41 25l-4 16q36 56 88 141q-66 108 -88 143l4 16l41 26q32 -36 73 -79t66 -68l25 -25v-20q-92 -92 -164 -175z" />
<glyph unicode="&#x2044;" horiz-adv-x="155" d="M326 653l7 -19q-176 -267 -266 -407l-202 -320l-65 27l-5 14q121 180 207 316l262 414z" />
<glyph unicode="&#x2070;" horiz-adv-x="353" d="M169 331q-67 0 -103.5 50t-36.5 140q0 96 42 151.5t114 55.5q67 0 103.5 -49.5t36.5 -140.5q0 -96 -41.5 -151.5t-114.5 -55.5zM180 431q79 0 79 93q0 49 -22.5 75t-64.5 26q-77 0 -77 -95q0 -48 22 -73.5t63 -25.5z" />
<glyph unicode="&#x2074;" horiz-adv-x="337" d="M9 436l2 52l170 239l5 1l71 -7v-221h50l7 -9l-7 -62l-49 2l4 -85l-7 -7l-90 -7l-5 7q3 49 4 94zM157 604l-71 -104h78v104h-7z" />
<glyph unicode="&#x2075;" horiz-adv-x="305" d="M272 469q0 -51 -61 -94.5t-135 -43.5q-29 0 -42 17t-17 59l12 12q27 -11 59 -11q36 0 58 14t22 37q0 24 -28 37t-91 17l-6 7l12 187l5 5l135 4q19 0 28 5.5t14 20.5l43 3l-18 -105l-10 -9q-62 5 -132 5l-4 -53q83 -12 119.5 -38.5t36.5 -75.5z" />
<glyph unicode="&#x2076;" horiz-adv-x="329" d="M283 682q-4 -1 -11 -4t-26 -13.5t-35.5 -22.5t-35.5 -33t-31 -44l3 -6q33 17 49 20q51 0 81 -31.5t30 -80.5q0 -62 -40.5 -99t-108.5 -37q-61 0 -97.5 39.5t-36.5 103.5q0 55 24 101.5t59 73.5t69.5 46t58.5 26l24 7l8 -4zM166 513q-24 0 -47 -15q0 -4 -0.5 -13t-0.5 -14 q0 -76 50 -76q47 0 47 55q0 29 -13 46t-36 17z" />
<glyph unicode="&#x2077;" horiz-adv-x="304" d="M152 332h-14l-69 21l-7 17l140 272l-78 -5q-31 -3 -40.5 -13t-15.5 -43l-46 -4q10 80 13 143l4 3q40 -3 81 -3h146l30 -37q-66 -136 -122 -269z" />
<glyph unicode="&#x2078;" horiz-adv-x="336" d="M30 426q0 60 69 91q-62 40 -62 99q0 47 40 79.5t99 32.5q50 0 85 -26.5t35 -66.5q0 -54 -57 -85q65 -36 65 -95q0 -53 -42 -88.5t-105 -35.5q-55 0 -91 26.5t-36 68.5zM166 389q21 0 34 11.5t13 30.5q0 17 -16.5 30t-47.5 28q-6 3 -9 4q-27 -23 -27 -50q0 -23 15 -38.5 t38 -15.5zM127 630q0 -12 10.5 -23t21.5 -17.5t33 -16.5q20 22 20 47q0 22 -12 34t-32 12q-19 0 -30 -10t-11 -26z" />
<glyph unicode="&#x2079;" horiz-adv-x="329" d="M47 378q4 1 10.5 4t25.5 13t35.5 22.5t36 33t31.5 44.5l-4 6q-27 -16 -49 -20q-51 0 -81 31.5t-30 79.5q0 62 40.5 99t109.5 37q61 0 97 -39t36 -103q0 -40 -13 -76t-33.5 -61t-45.5 -45.5t-50.5 -33.5t-46 -22t-33.5 -12l-13 -4l-7 3zM163 547q22 0 47 14q2 18 2 28 q0 76 -51 76q-46 0 -46 -56q0 -29 12.5 -45.5t35.5 -16.5z" />
<glyph unicode="&#x207f;" horiz-adv-x="400" d="M214 336l4 47q28 6 28 33l2 103q0 52 -37 52q-21 0 -46 -20q-7 -112 -7 -139q0 -14 4 -19.5t14 -5.5h15l1 -3l-7 -47q-48 2 -74 2l-86 -3l6 47q20 1 27.5 9t7.5 26v127q0 22 -6.5 30t-25.5 8h-10l-3 4l5 41l136 22l7 -7q-6 -24 -8 -46l4 -2q60 55 80 55q50 0 77 -22.5 t27 -62.5q0 -13 -6.5 -75t-6.5 -77q0 -28 20 -28l18 1l2 -3l-7 -46q-52 2 -78 2z" />
<glyph unicode="&#x2080;" horiz-adv-x="353" d="M169 -128q-67 0 -103.5 49.5t-36.5 140.5q0 95 42 151t114 56q67 0 103.5 -50t36.5 -140q0 -96 -41.5 -151.5t-114.5 -55.5zM180 -29q79 0 79 94q0 49 -22.5 75t-64.5 26q-77 0 -77 -96q0 -47 22 -73t63 -26z" />
<glyph unicode="&#x2081;" horiz-adv-x="265" d="M190 196q-8 -62 -8 -225q0 -43 29 -43l30 2l3 -4l-9 -49q-64 3 -98 3l-112 -7l5 46q31 3 45 14t14 34v197q0 22 -6.5 29t-25.5 7l-33 -2l-4 5l4 42q28 3 83 10q28 4 53 7.5t36 5.5l11 1l9 -24q-21 -15 -26 -49z" />
<glyph unicode="&#x2082;" horiz-adv-x="352" d="M28 -126l-6 48l81 87q77 91 76 136q0 36 -42 36q-47 0 -86 -53h-10l-13 62q24 35 62.5 57t76.5 22q54 0 87 -26t33 -68q0 -41 -29.5 -90t-103.5 -129l3 -5h57q29 0 41.5 12.5t17.5 46.5l61 5q-14 -77 -18 -132l-11 -9q-157 6 -222 6z" />
<glyph unicode="&#x2083;" horiz-adv-x="310" d="M22 -53l12 12q28 -10 58 -10q36 0 58.5 14t22.5 36q0 44 -89 44l-7 8l-6 49l44 8q45 20 45 56q0 32 -36 32q-32 0 -72 -27h-8l-17 55q23 16 61 30.5t68 14.5q46 0 75 -22t29 -57q0 -28 -19.5 -51.5t-53.5 -36.5v-6q92 -29 92 -95q0 -48 -61.5 -88.5t-136.5 -40.5 q-30 0 -43 17t-16 58z" />
<glyph unicode="&#x2084;" horiz-adv-x="337" d="M9 -24l2 53l170 238l5 2l71 -8v-221h50l7 -8l-7 -62l-49 1l4 -84l-7 -7l-90 -7l-5 6q3 50 4 95zM157 144l-71 -104h78v104h-7z" />
<glyph unicode="&#x2085;" horiz-adv-x="305" d="M272 10q0 -52 -61 -95t-135 -43q-29 0 -42 17t-17 58l12 12q28 -10 59 -10q36 0 58 14t22 37t-28 36t-91 17l-6 8l12 186l5 5l135 4q33 1 42 26l43 3l-18 -104l-10 -10q-62 5 -132 5l-4 -52q83 -13 119.5 -39.5t36.5 -74.5z" />
<glyph unicode="&#x2086;" horiz-adv-x="329" d="M283 222q-4 -1 -11 -4t-26 -13t-35.5 -22.5t-35.5 -33t-31 -44.5l3 -6q27 15 49 20q51 0 81 -31.5t30 -80.5q0 -61 -40.5 -98t-108.5 -37q-61 0 -97.5 39t-36.5 104q0 40 13 75.5t33.5 60.5t46 46t50.5 34t45.5 22t33.5 13l13 3l8 -4zM166 53q-24 0 -47 -15 q0 -4 -0.5 -13t-0.5 -14q0 -76 50 -76q47 0 47 56q0 29 -13 45.5t-36 16.5z" />
<glyph unicode="&#x2087;" horiz-adv-x="304" d="M152 -127h-14l-69 20l-7 17l140 273l-78 -6q-30 -2 -40 -12t-16 -43l-46 -4q10 79 13 143l4 3q40 -3 81 -3h146l30 -37q-66 -136 -122 -269z" />
<glyph unicode="&#x2088;" horiz-adv-x="336" d="M30 -34q0 62 69 91q-62 40 -62 100q0 46 40 79t99 33q50 0 85 -26.5t35 -66.5q0 -54 -57 -85q65 -38 65 -95q0 -53 -42 -88.5t-105 -35.5q-55 0 -91 26t-36 68zM166 -70q21 0 34 11t13 30q0 14 -12.5 26t-23 17.5t-37.5 18.5q-27 -20 -27 -49q0 -23 15 -38.5t38 -15.5z M127 171q0 -13 10 -24t22 -17.5t33 -15.5q20 22 20 46q0 22 -12 34.5t-32 12.5q-18 0 -29.5 -10.5t-11.5 -25.5z" />
<glyph unicode="&#x2089;" horiz-adv-x="329" d="M47 -81q4 1 10.5 4t25.5 13t35.5 22t36 33t31.5 45l-4 5q-30 -15 -49 -20q-51 0 -81 31.5t-30 80.5q0 61 40.5 98.5t109.5 37.5q61 0 97 -39t36 -104q0 -40 -13 -75.5t-33.5 -60.5t-45.5 -46t-50.5 -34t-46 -22t-33.5 -12l-13 -4l-7 4zM163 87q20 0 47 15q2 18 2 27 q0 37 -13.5 57t-37.5 20q-46 0 -46 -56q0 -63 48 -63z" />
<glyph unicode="&#x20a3;" horiz-adv-x="472" d="M232 107q0 -25 7 -33.5t26 -8.5l49 4l9 -12l-10 -59h-20t-43.5 0.5t-44.5 0.5q-11 0 -30.5 0.5t-26.5 0.5l-103 -9l6 60q38 5 47.5 19t11.5 57h-62l-7 6l7 44h63l1 229q0 24 -5 32t-19 8l-28 -1l-6 10l8 50q72 -2 133 -2h53q108 0 210 10l9 -10q-13 -72 -17 -142l-86 -5 q2 23 2 33q0 25 -15 33t-69 8q-5 0 -11 -0.5t-8 -0.5q-4 0 -6.5 -1.5t-5 -4.5t-4 -5t-2.5 -7l-1.5 -7.5t-1 -8.5t-1 -8t-0.5 -8.5v-8.5l-3 -73q22 -1 73 -1l89 7l9 -10l-12 -70q-51 3 -88 3q-17 0 -74 -5l-2 -44q24 0 59.5 0.5t40.5 0.5l5 -7l-4 -44h-92z" />
<glyph unicode="&#x20ac;" horiz-adv-x="573" d="M370 223l7 -9l-4 -48l-148 -1q31 -97 121 -97q44 0 68 25t34 81l84 6q-14 -82 -17 -149l-8 -9q-79 -31 -182 -31q-95 0 -156.5 45.5t-80.5 128.5h-76l-7 7l7 47h68v18q0 14 2 42h-70l-7 7l7 47h82q26 83 98.5 129.5t176.5 46.5q31 0 70.5 -4.5t63.5 -9.5l24 -5l6 -11 q-17 -65 -23 -149l-83 -5q1 20 1 41q0 64 -88 64q-99 0 -121 -97l151 4l7 -9l-4 -48l-161 -1v-15q0 -17 2 -45h4z" />
<glyph unicode="&#x2122;" horiz-adv-x="568" d="M414 402l-41 -4q-32 106 -50 150h-5q-4 -94 -4 -102q0 -13 12 -13l12 1l3 -3l-4 -29q-40 1 -53 1l-45 -3l3 31q22 1 23 25q1 4 8.5 68t7.5 72q0 10 -4.5 12.5t-22.5 4.5l-4 3l4 28q40 -2 56 -2l55 2l37 -130h5q22 66 41 128q53 0 64 1l39 1l2 -1l-3 -29q-17 -1 -22.5 -5 t-5.5 -14q0 -43 9 -129q2 -19 6 -25.5t14 -6.5h11l2 -2l-3 -30q-25 1 -42 1q-64 0 -70 -3l4 31q21 3 21 18l-4 99h-5q-19 -45 -51 -146zM82 465v138q-21 -1 -27.5 -9.5t-10.5 -40.5l-43 -3q3 51 4 92l4 4l45 -4h125l46 4l5 -4l3 -89l-44 -3q-4 35 -9.5 43.5t-26.5 9.5 q-3 -108 -3 -143q0 -26 21 -26l21 1l2 -2l-4 -32q-54 2 -76 2l-75 -3l3 31q25 2 32.5 8.5t7.5 25.5z" />
<glyph unicode="&#x212e;" horiz-adv-x="797" d="M180 311q-5 0 -5 -4v-181q0 -10 9 -21q91 -97 226 -97q144 0 237 109h54q-51 -60 -128 -94.5t-164 -34.5q-152 0 -260.5 97t-108.5 234q0 138 108 235t261 97q152 0 260 -97t108 -235v-8h-597zM643 516q0 12 -10 22q-93 93 -223 93q-132 0 -225 -96q-10 -10 -10 -23v-178 q0 -5 5 -5h458q5 0 5 5v182z" />
<glyph unicode="&#x2202;" horiz-adv-x="509" d="M291 438l3 5q-64 130 -257 236l32 56l13 6q181 -76 289.5 -204.5t108.5 -287.5q0 -116 -65 -189t-171 -73q-102 0 -158.5 62t-56.5 160q0 108 57.5 180.5t143.5 72.5q10 -2 25.5 -8t25.5 -11zM344 203q0 77 -14 142q-32 29 -79 29t-68 -32t-21 -110q0 -168 105 -168 q77 0 77 139z" />
<glyph unicode="&#x220f;" horiz-adv-x="713" d="M607 525q-12 -223 -12 -392q0 -40 7.5 -54t30.5 -14l43 3l5 -7l-9 -64q-104 3 -148 3q-24 0 -58 -2t-56 -4l-22 -3l7 65q41 9 55 25.5t14 58.5v375q0 38 -18.5 45t-94.5 7q-55 0 -72 -9.5t-19 -39.5q-12 -240 -12 -385q0 -35 4.5 -48.5t17.5 -16.5q12 -3 23 -3l31 3l5 -7 l-9 -64l-21 1q-21 0 -52.5 1t-49.5 1q-42 0 -101 -3.5t-60 -5.5l7 65q44 9 58.5 25.5t14.5 58.5q0 64 0.5 191t0.5 191q0 31 -7 41.5t-29 10.5l-35 -1l-5 8l8 65q98 -4 139 -4h327q31 0 96 3t66 4l-5 -70q-38 -5 -50.5 -15.5t-14.5 -38.5z" />
<glyph unicode="&#x2211;" horiz-adv-x="566" d="M499 16l-18 -19l-389 6l-66 -9l-27 39l218 273l-200 296l16 38l1 -1q4 0 11.5 0.5t10.5 0.5l253 3q55 2 178 11l11 -10l11 -201l-80 -13q-5 67 -29 96t-85 34l-133 10l156 -231v-29l-187 -238l171 15q50 3 76 37.5t38 105.5l85 7q-21 -127 -22 -221z" />
<glyph unicode="&#x2212;" horiz-adv-x="506" d="M482 312l7 -12l-10 -92l-227 -1l-228 -1l-7 11l14 90q145 -1 234 -1z" />
<glyph unicode="&#x221a;" horiz-adv-x="505" d="M71 344q-9 28 -26 38t-47 9l-2 4l7 59q62 4 98 7l65 7l7 -8q3 -28 24 -114t40 -158l19 -73h12l170 611l21 16h79l-219 -738l-136 -16q-86 278 -112 356z" />
<glyph unicode="&#x221e;" horiz-adv-x="515" d="M150 411q75 0 123 -79q42 82 114 82q52 0 83.5 -43.5t31.5 -106.5q0 -73 -42.5 -121.5t-102.5 -48.5q-73 0 -119 82q-41 -79 -112 -79q-51 0 -82.5 43t-31.5 103q0 72 41 120t97 48zM145 189q38 0 68 37q-11 22 -17.5 34t-17.5 26.5t-22.5 21t-25.5 6.5q-22 0 -37 -16 t-15 -44q0 -30 17.5 -47.5t49.5 -17.5zM367 323q-39 0 -68 -38q16 -32 25.5 -48t26 -31t34.5 -15q24 0 39 16.5t15 45.5q0 31 -19.5 50.5t-52.5 19.5z" />
<glyph unicode="&#x222b;" horiz-adv-x="425" d="M148 0l17 426q2 65 65.5 119t139.5 54q34 0 62.5 -9t28.5 -21q0 -15 -10.5 -50.5t-18.5 -46.5l-15 -2q-39 54 -81 54q-52 0 -56 -68l-24 -417q-4 -85 -60.5 -142.5t-128.5 -57.5q-31 0 -59.5 13t-28.5 29q0 18 10.5 50t20.5 43h14q8 -27 27.5 -45t43.5 -18q50 0 53 89z " />
<glyph unicode="&#x2248;" horiz-adv-x="506" d="M74 259h-11l-35 37v11l91 101l19 4q26 0 113 -19.5t107 -19.5q12 0 31 14.5t31 28.5l13 14h11l35 -38v-10l-91 -102l-19 -4q-26 0 -112.5 19.5t-107.5 19.5q-12 0 -31 -14t-32 -28zM74 78h-11l-35 38v10l91 102l19 4q26 0 113 -19.5t107 -19.5q12 0 31 14.5t31 28.5 l13 14h11l35 -38v-10l-91 -102l-19 -4q-26 0 -112.5 19.5t-107.5 19.5q-12 0 -30.5 -14.5t-31.5 -28.5z" />
<glyph unicode="&#x2260;" horiz-adv-x="506" d="M481 402l7 -12l-11 -92q-31 0 -92.5 -0.5t-92.5 -0.5l-18 -79l207 6l7 -12l-11 -92q-33 0 -98 -0.5t-97 -0.5h-26l-26 -121l-70 -6l-5 9l25 118l-157 -1l-8 11l14 90q88 -1 169 -1l17 79l-192 -1l-8 11l14 90q117 -1 204 -1l28 130l69 4l7 -9l-26 -125z" />
<glyph unicode="&#x2264;" horiz-adv-x="489" d="M45 213l-8 13l1 97l191 82l177 76l14 -8l20 -76q-103 -38 -181 -71l-123 -50v-7l136 -60l164 -72q1 -5 5 -15l-43 -65l-18 8q-18 8 -58 26.5t-66 30.5l-36 15q-23 10 -65 28t-70.5 30.5t-39.5 17.5zM455 -5l8 -15l-11 -77q-80 0 -233 -1t-186 -1l-8 14l11 76h230 q43 0 89.5 1t73.5 1.5t26 1.5z" />
<glyph unicode="&#x2265;" horiz-adv-x="489" d="M443 325l8 -13l-1 -98l-191 -82l-177 -75l-13 7l-20 77q103 37 180 70l124 50v7l-137 60l-164 72l-4 16l42 65q70 -33 142 -65l37 -16q96 -43 174 -75zM453 -5l8 -15l-11 -77q-79 0 -232 -1t-186 -1l-9 14l11 76h231q43 0 89 1t73 1.5t26 1.5z" />
<glyph unicode="&#x25ca;" horiz-adv-x="523" d="M51 257l-1 35l76 170l83 185l98 4l11 -7l82 -182l77 -161l1 -38l-73 -164l-85 -188l-97 -5l-13 7l-80 178zM200 422l-59 -148l59 -128l65 -140h7l54 128l62 146l-60 131l-65 141h-7z" />
<glyph unicode="&#x25fc;" horiz-adv-x="505" d="M0 505h505v-505h-505v505z" />
<glyph unicode="&#xfb01;" horiz-adv-x="782" d="M221 119q0 -30 6.5 -39.5t28.5 -9.5l52 5l8 -10l-9 -68q-89 3 -130 3q-30 0 -66 -2t-57 -4l-20 -2l7 59q34 5 45.5 19t11.5 49l1 284q0 25 -5 33.5t-20 8.5l-24 -1l-7 7l7 52q97 -2 162 -2q163 0 232 9l7 -9q-13 -75 -17 -147l-84 -5q1 21 1 31q0 30 -14.5 38.5 t-65.5 8.5q-27 0 -33.5 -4t-6.5 -20l-6 -124l75 -1l86 6l8 -8l-11 -74q-61 2 -98 2q-28 0 -63 -5zM691 406q-9 -157 -9 -297q0 -32 6 -42.5t25 -10.5l32 2l5 -6l-7 -54q-90 2 -127 2l-120 -6l6 56q35 7 46.5 19.5t11.5 45.5v289q0 25 -6 33t-23 8l-27 -1l-5 8l6 50 q12 0 55 -0.5t65 -0.5l123 5l-5 -58q-31 -4 -40.5 -11.5t-11.5 -30.5z" />
<glyph unicode="&#xfb02;" horiz-adv-x="923" d="M221 119q0 -30 6.5 -39.5t28.5 -9.5l52 5l8 -10l-9 -68q-89 3 -130 3q-30 0 -66 -2t-57 -4l-20 -2l7 59q34 5 45.5 19t11.5 49l1 284q0 25 -5 33.5t-20 8.5l-24 -1l-7 7l7 52q97 -2 162 -2q163 0 232 9l7 -9q-13 -75 -17 -147l-84 -5q1 21 1 31q0 30 -14.5 38.5 t-65.5 8.5q-27 0 -33.5 -4t-6.5 -20l-6 -124l75 -1l86 6l8 -8l-11 -74q-61 2 -98 2q-28 0 -63 -5zM648 0q-34 0 -71.5 -2t-58.5 -4l-20 -2l7 59q31 4 42.5 18.5t11.5 49.5l1 285q0 25 -6 33t-24 8l-23 -1l-6 8l6 50q13 0 55 -0.5t63 -0.5l138 5l-7 -62q-41 -4 -52 -13.5 t-13 -37.5q-10 -133 -10 -280q0 -26 9.5 -34.5t37.5 -8.5q54 0 72.5 22.5t27.5 99.5l78 7l7 -9q-13 -89 -21 -186l-10 -10q-132 6 -234 6z" />
<glyph d="M359 775l-6 -13q-115 -29 -229 -65l-13 9l-13 47l223 104l12 -5z" />
<glyph d="M199 788q76 0 103 60l17 -4l28 -35q-15 -50 -52 -83t-96 -33t-96 33t-52 83l28 35l17 4q27 -60 103 -60z" />
<glyph d="M57 711l-25 41q33 24 72.5 55t61.5 50l23 19h20q0 1 22.5 -17t63 -50.5t71.5 -56.5l-24 -41l-16 -4q-50 25 -127 58q-48 -20 -126 -58z" />
<glyph d="M284 706q-29 0 -44.5 16.5t-15.5 44.5q0 29 19 48t49 19q28 0 43.5 -16.5t15.5 -43.5q0 -30 -18.5 -49t-48.5 -19zM105 706q-28 0 -43.5 16.5t-15.5 44.5q0 29 18.5 48t48.5 19q28 0 44 -16.5t16 -43.5q0 -30 -18.5 -49t-49.5 -19z" />
<glyph d="M44 762l-5 13l26 77l12 5q115 -57 223 -104l-13 -47l-14 -9q-51 16 -108 32.5t-89 24.5z" />
<glyph d="M345 800l8 -14l-12 -77l-141 -1l-139 -1l-11 12l14 76q95 -1 154 -1z" />
<glyph d="M201 731q40 0 40 36q0 19 -12 30.5t-34 11.5q-39 0 -39 -36q0 -21 14 -31.5t31 -10.5zM194 678q-42 0 -65 25t-23 66t26.5 68t69.5 27q45 0 67 -25t22 -62q0 -41 -26.5 -70t-70.5 -29z" />
<glyph d="M70 687h-11l-39 37v11l78 96l17 4q17 0 76 -17t73 -17q11 0 27 13t27 26l11 13h11l40 -37v-10l-79 -97l-16 -4q-18 0 -77 17t-73 17q-11 0 -27 -13t-27 -26z" />
<glyph d="M341 861l25 -41q-33 -24 -72.5 -55t-61.5 -50l-23 -19h-20q-83 70 -157 124l24 41l16 4q50 -25 127 -58q48 20 126 58z" />
<glyph d="M194 702q-34 0 -52 20t-18 52q0 35 22 57.5t58 22.5q33 0 51.5 -19.5t18.5 -52.5q0 -35 -22 -57.5t-58 -22.5z" />
<glyph d="M118 -100l3 14q44 35 79 35q30 0 49.5 -23.5t19.5 -62.5q0 -50 -41.5 -98t-105.5 -83l-37 30v17q30 21 49 49t19 53q0 41 -35 69z" />
<glyph d="M261 794l-1 -12q-84 -46 -168 -98l-14 5l-23 34l151 134l12 -1zM429 790l-1 -12q-85 -46 -169 -98l-12 4l-24 34l151 134l12 -2z" />
<glyph horiz-adv-x="513" d="M244 -12q-99 0 -155.5 78t-56.5 215q0 144 65.5 230.5t172.5 86.5q98 0 154.5 -77.5t56.5 -212.5q0 -146 -64.5 -233t-172.5 -87zM261 115q64 0 98.5 44.5t34.5 124.5q0 85 -38.5 133t-105.5 48q-63 0 -97 -44.5t-34 -125.5q0 -84 37.5 -132t104.5 -48z" />
<glyph horiz-adv-x="366" d="M257 490q-11 -138 -11 -358q0 -37 9.5 -52t34.5 -15l49 3l3 -5l-11 -67q-93 4 -144 4q-28 0 -66.5 -3t-63.5 -5l-25 -3l7 63q52 5 70.5 24t18.5 70v301q0 35 -10.5 46t-39.5 11l-51 -5l-5 7l6 58q38 2 120 14q27 4 51 7t38.5 5.5t25.5 4t16 2.5l5 1l11 -29 q-32 -26 -38 -79z" />
<glyph horiz-adv-x="494" d="M31 -10l-11 57l115 127q134 163 133 247q0 64 -72 64q-77 0 -136 -90h-14l-17 80q33 53 90.5 88t113.5 35q78 0 126 -38t48 -101q0 -62 -47 -141.5t-165 -215.5l4 -8h107q47 0 66 18.5t30 72.5l76 7q-22 -108 -29 -189l-14 -12q-236 9 -331 9z" />
<glyph horiz-adv-x="435" d="M27 90l13 14q44 -13 86 -13q58 0 96.5 25.5t38.5 63.5q0 43 -35.5 63t-112.5 20l-9 10l-7 61l65 15q34 15 54.5 41.5t20.5 54.5q0 26 -16.5 41.5t-44.5 15.5q-56 0 -110 -43h-12l-21 71q32 21 86.5 44.5t99.5 23.5q65 0 106.5 -33.5t41.5 -85.5q0 -42 -30 -79.5 t-80 -58.5v-9q138 -41 138 -143q0 -74 -91 -137.5t-197 -63.5q-42 0 -59.5 23t-20.5 79z" />
<glyph horiz-adv-x="469" d="M0 159l3 67l263 371l3 1l3 1l84 -11v-344h81l9 -12l-10 -82q-32 1 -80 2l7 -143l-8 -8l-116 -12l-8 10q5 85 6 156q-154 4 -237 4zM228 424l-124 -180h134v180h-10z" />
<glyph horiz-adv-x="428" d="M385 202q0 -79 -90.5 -146.5t-196.5 -67.5q-40 0 -58 23t-22 79l13 14q44 -13 86 -13q60 0 97.5 26.5t37.5 67.5q0 44 -45 66.5t-143 28.5l-9 11l18 276l8 8l198 7q29 2 42 10t21 30l55 4l-26 -147l-13 -12q-96 8 -204 8l-7 -103q125 -15 181.5 -55.5t56.5 -114.5z" />
<glyph horiz-adv-x="464" d="M405 538q-7 -2 -18.5 -7t-43 -23t-58.5 -40t-57.5 -59t-47.5 -79l5 -6q3 1 19.5 9.5t35.5 17t30 10.5q78 0 123.5 -49.5t45.5 -120.5q0 -89 -59.5 -146t-157.5 -57q-88 0 -141 60t-53 156q0 62 19 117t49.5 93.5t67.5 71t74.5 52.5t68 34.5t49.5 19.5l19 6l10 -5z M232 273q-41 0 -80 -28q-2 -28 -2 -42q0 -63 23.5 -98.5t66.5 -35.5q38 0 59 25t21 72t-24 77t-64 30z" />
<glyph horiz-adv-x="426" d="M201 -12h-17l-91 28l-11 25l224 441l-134 -7q-47 -4 -62.5 -20t-24.5 -68l-60 -6q14 114 19 204l6 5q60 -4 122 -4h217l39 -48q-109 -224 -196 -436z" />
<glyph horiz-adv-x="479" d="M38 130q0 98 112 148q-99 62 -99 151q0 69 57.5 119t143.5 50q71 0 122 -39t51 -101q0 -88 -90 -135q48 -28 76 -63t28 -86q0 -79 -61.5 -132.5t-153.5 -53.5q-79 0 -132.5 39t-53.5 103zM241 62q36 0 59.5 22t23.5 56q0 32 -27 53.5t-80 47.5q-9 4 -13 6 q-57 -35 -57 -91q0 -39 26.5 -66.5t67.5 -27.5zM168 453q0 -23 17 -42t34.5 -29t55.5 -29q39 33 39 82q0 40 -21 62t-55 22q-31 0 -50.5 -19t-19.5 -47z" />
<glyph horiz-adv-x="464" d="M59 48q7 2 18 7t42.5 23t59 40t57.5 59t47 79l-4 7l-19 -10q-19 -10 -37.5 -18t-29.5 -9q-78 0 -123.5 49t-45.5 120q0 90 60 147t157 57q88 0 141.5 -60t53.5 -156q0 -62 -19 -117t-49.5 -94t-68 -71.5t-74.5 -52.5t-67.5 -34.5t-49.5 -19.5l-19 -6l-10 6zM231 314 q38 0 80 27q3 20 3 43q0 62 -24 97.5t-66 35.5q-80 0 -80 -97q0 -47 23.5 -76.5t63.5 -29.5z" />
<glyph horiz-adv-x="455" d="M216 -12q-93 0 -145 77.5t-52 215.5q0 144 60.5 230.5t160.5 86.5q92 0 144 -77.5t52 -212.5q0 -146 -59.5 -233t-160.5 -87zM231 115q57 0 88 44t31 125q0 85 -34 133t-95 48q-57 0 -86.5 -44t-29.5 -126q0 -84 33.5 -132t92.5 -48z" />
<glyph horiz-adv-x="455" d="M301 490q-10 -125 -10 -358q0 -37 11 -52t41 -15l57 3l3 -5l-12 -67q-103 4 -160 4q-30 0 -72 -3t-69 -5l-27 -3l8 63q61 4 82 23.5t21 70.5v301q0 35 -13.5 46t-45.5 11l-59 -5l-6 7l7 58q48 3 133 14q31 4 57.5 7t41.5 5.5t25.5 4t15.5 2.5l4 1l11 -29 q-21 -15 -30 -31.5t-14 -47.5z" />
<glyph horiz-adv-x="455" d="M21 -10l-10 57l111 127q122 160 120 247q0 64 -65 64q-71 0 -127 -90h-13l-18 80q33 54 87.5 88.5t107.5 34.5q75 0 121.5 -38t46.5 -101q0 -62 -44 -141.5t-154 -215.5l4 -8h95q43 0 61 18.5t27 72.5l77 7q-21 -108 -27 -189l-14 -12q-223 9 -313 9z" />
<glyph horiz-adv-x="455" d="M33 90l13 14q44 -13 87 -13q62 0 102 25.5t40 63.5q0 44 -36.5 63.5t-117.5 19.5l-9 10l-8 61l67 15q36 15 57.5 41t21.5 55q0 26 -17.5 41.5t-46.5 15.5q-58 0 -114 -43h-12l-21 71q28 20 85.5 44t104.5 24q67 0 109 -33t42 -86q0 -42 -30.5 -79.5t-82.5 -58.5v-9 q143 -42 143 -143q0 -74 -93.5 -137.5t-201.5 -63.5q-43 0 -61 23t-21 79z" />
<glyph horiz-adv-x="455" d="M-3 159l3 67l257 371q1 0 3 1t3 1l85 -11v-344h79l8 -12l-9 -82q-31 1 -78 2l7 -143l-8 -8l-116 -12l-8 10q5 85 6 156q-152 4 -232 4zM220 424l-119 -180h129v180h-10z" />
<glyph horiz-adv-x="455" d="M404 202q0 -79 -94 -146.5t-203 -67.5q-41 0 -59.5 23t-22.5 79l13 14q46 -13 90 -13q64 0 103.5 26.5t39.5 67.5q0 44 -47.5 66.5t-150.5 28.5l-10 11l19 276l8 8l206 7q30 2 43.5 10t21.5 30l55 4l-27 -147l-12 -12q-101 8 -215 8l-7 -103q131 -15 190 -55.5t59 -114.5 z" />
<glyph horiz-adv-x="455" d="M399 538q-7 -2 -18 -7t-42 -23t-58 -40t-56.5 -59t-46.5 -79l5 -6q3 1 19.5 9.5t35 17t29.5 10.5q76 0 120.5 -49.5t44.5 -120.5q0 -89 -58.5 -146t-155.5 -57q-88 0 -140 60t-52 156q0 62 19 117t49 93.5t67 71t73.5 52.5t66.5 34.5t49 19.5l19 6l9 -5zM228 273 q-40 0 -79 -28q-2 -28 -2 -42q0 -63 23 -98.5t65 -35.5q78 0 78 97q0 47 -23.5 77t-61.5 30z" />
<glyph horiz-adv-x="455" d="M211 -12h-16l-91 28l-11 25l235 441l-144 -7q-49 -4 -65 -20t-26 -68l-60 -6q15 114 20 204l7 5q62 -4 126 -4h226l38 -48q-126 -248 -207 -436z" />
<glyph horiz-adv-x="455" d="M32 130q0 99 106 148q-94 61 -94 151q0 69 56 119t139 50q70 0 119.5 -38.5t49.5 -101.5q0 -87 -86 -135q99 -60 99 -149q0 -79 -59.5 -132.5t-149.5 -53.5q-77 0 -128.5 39t-51.5 103zM228 62q34 0 56 22t22 56q0 22 -15.5 41.5t-34.5 31t-52 28.5l-12 6 q-52 -35 -52 -91q0 -39 25 -66.5t63 -27.5zM160 453q0 -17 7 -31t25 -27.5t29.5 -20t39.5 -21.5q37 31 37 82q0 40 -19.5 62t-51.5 22q-31 0 -49 -19t-18 -47z" />
<glyph horiz-adv-x="455" d="M56 48q7 2 18 7t41.5 23t57.5 40t56.5 59t46.5 79l-4 7q-1 0 -19 -10t-36 -18t-29 -9q-77 0 -121 49t-44 120q0 90 58.5 147t154.5 57q88 0 140.5 -60t52.5 -156q0 -62 -19 -117t-49 -94t-66.5 -71.5t-73.5 -52.5t-67 -34.5t-49 -19.5l-19 -6l-9 6zM227 314q36 0 78 27 q3 20 3 43q0 62 -23.5 97.5t-64.5 35.5q-78 0 -78 -97q0 -47 22.5 -76.5t62.5 -29.5z" />
<glyph horiz-adv-x="445" d="M211 -12q-92 0 -145 66.5t-53 182.5q0 123 61 198t161 75q92 0 144.5 -66t52.5 -181q0 -124 -60.5 -199.5t-160.5 -75.5zM226 119q60 0 92.5 32t32.5 89q0 62 -36 98t-99 36q-58 0 -90.5 -32.5t-32.5 -90.5q0 -60 36 -96t97 -36z" />
<glyph horiz-adv-x="445" d="M295 402q-10 -113 -10 -270q0 -37 11 -52t40 -15l57 3l3 -5l-12 -67q-102 4 -159 4q-29 0 -71 -3t-68 -5l-27 -3l8 63q59 5 80 24t21 68v215q0 34 -13.5 45.5t-44.5 11.5l-58 -5l-6 7l7 57q4 1 27.5 3t52 5.5t52.5 6.5q31 4 57 7t41 5.5t25.5 4t14.5 2.5l4 1l11 -30 q-21 -15 -30 -31.5t-13 -46.5z" />
<glyph horiz-adv-x="445" d="M13 -9l-7 33l70 83q138 169 138 236q0 61 -57 61q-58 0 -105 -77h-12l-18 74q38 51 87.5 80t100.5 29q67 0 108 -35.5t41 -93.5q0 -47 -35.5 -104.5t-137.5 -175.5l4 -8h84q43 0 61.5 19t26.5 72l77 7q-20 -107 -26 -188l-14 -12q-235 9 -324 9z" />
<glyph horiz-adv-x="445" d="M15 2l13 14q38 -13 87 -13q65 0 108 27t43 68q0 80 -153 80l-8 10l-8 62l66 14q35 15 56 41t21 55q0 24 -17.5 39t-45.5 15q-55 0 -112 -49q-2 0 -6 -0.5t-6 -0.5l-21 71q28 23 85.5 49t103.5 26q68 0 109 -32t41 -85q0 -41 -30.5 -78t-82.5 -58v-8q142 -37 142 -132 q0 -79 -96.5 -148t-207.5 -69q-42 0 -60 23t-21 79z" />
<glyph horiz-adv-x="445" d="M-3 73l3 67l255 368q1 0 3.5 1t3.5 1l85 -11v-342h78l9 -11l-10 -83q-31 1 -76 3l6 -145l-8 -9l-115 -12l-8 10q4 87 6 159q-152 4 -232 4zM219 335l-118 -178h128v178h-10z" />
<glyph horiz-adv-x="445" d="M395 130q0 -87 -99 -158.5t-210 -71.5q-40 0 -58.5 22.5t-21.5 79.5l12 14q40 -13 88 -13q68 0 112.5 27t44.5 69q0 39 -43.5 61.5t-151.5 37.5l-9 11l19 270l9 8l198 7q30 2 43.5 10t21.5 30l55 4l-27 -147l-12 -13q-95 8 -207 8l-7 -89q123 -24 183 -62t60 -105z" />
<glyph horiz-adv-x="445" d="M391 538q-6 -2 -17 -7t-41 -23t-56.5 -40t-55.5 -59t-46 -79l5 -6q3 1 19 9.5t34 17t29 10.5q75 0 119 -49.5t44 -120.5q0 -89 -58 -146t-154 -57q-86 0 -138 60t-52 156q0 62 18.5 117t48.5 93.5t66 71t72 52.5t66 34.5t48 19.5l19 6l10 -5zM223 273q-38 0 -77 -28 q-2 -28 -2 -42q0 -63 22.5 -98.5t63.5 -35.5q76 0 76 97q0 47 -22.5 77t-60.5 30z" />
<glyph horiz-adv-x="445" d="M208 -100h-17l-91 27l-12 25l232 442l-140 -8q-49 -4 -65 -20t-25 -68l-60 -6q15 114 20 205l6 5q61 -4 125 -4h222l39 -48q-125 -251 -203 -437z" />
<glyph horiz-adv-x="445" d="M29 130q0 98 104 148q-92 61 -92 151q0 69 55.5 119t137.5 50q69 0 118 -38.5t49 -101.5q0 -87 -84 -135q97 -60 97 -149q0 -79 -59 -132.5t-148 -53.5q-77 0 -127.5 39t-50.5 103zM223 62q33 0 54.5 22t21.5 56q0 17 -6.5 31t-25 27.5t-29.5 20t-40 22.5q-7 4 -11 6 q-50 -33 -50 -91q0 -39 24.5 -66.5t61.5 -27.5zM156 453q0 -17 7 -31t24.5 -27t29.5 -20.5t39 -21.5q36 32 36 82q0 40 -19.5 62t-50.5 22q-29 0 -47.5 -19t-18.5 -47z" />
<glyph horiz-adv-x="445" d="M54 -40q6 2 17 7t41 23t56 39.5t55 58.5t46 79l-4 7q-3 -1 -19 -10t-34 -17.5t-29 -9.5q-75 0 -119 49t-44 121q0 89 58 146t153 57q87 0 139 -60t52 -156q0 -62 -18.5 -117t-48.5 -93.5t-66 -71.5t-72 -53t-66 -34t-49 -20l-18 -6l-10 6zM222 225q34 0 76 27q3 21 3 43 q0 62 -23 98t-63 36q-76 0 -76 -97q0 -48 22.5 -77.5t60.5 -29.5z" />
<glyph d="M246 733l8 -10q-15 -109 -38 -216l-48 -20l-15 4q1 51 -0.5 108t-4.5 89l-2 31z" />
<glyph horiz-adv-x="353" d="M169 253q-67 0 -103.5 49.5t-36.5 140.5q0 95 42 150.5t114 55.5q67 0 103.5 -49.5t36.5 -139.5q0 -96 -41.5 -151.5t-114.5 -55.5zM180 352q79 0 79 93q0 49 -22.5 75.5t-64.5 26.5q-77 0 -77 -96q0 -48 22 -73.5t63 -25.5z" />
<glyph horiz-adv-x="265" d="M190 577q-8 -62 -8 -225q0 -43 29 -43l30 2l3 -4l-9 -49q-64 3 -98 3l-112 -7l5 46q31 2 45 13t14 34v197q0 23 -6.5 30t-25.5 7l-33 -2l-4 5l4 42q28 3 83 10q28 3 52.5 6.5t36.5 5.5l11 1l9 -23q-21 -15 -26 -49z" />
<glyph horiz-adv-x="352" d="M28 255l-6 48l81 87q77 91 76 136q0 36 -42 36q-45 0 -86 -53h-10l-13 62q24 35 62.5 56.5t76.5 21.5q54 0 87 -25.5t33 -67.5t-29.5 -90.5t-103.5 -128.5l3 -6h57q29 0 41.5 12.5t17.5 46.5l61 5q-14 -77 -18 -131l-11 -10q-157 7 -222 7z" />
<glyph horiz-adv-x="310" d="M22 328l12 12q27 -11 58 -11q36 0 58.5 14t22.5 36q0 45 -89 45l-7 8l-6 48l44 9q45 20 45 56q0 14 -10 23t-26 9q-32 0 -72 -27h-8l-17 54q23 16 61 30.5t68 14.5q47 0 75.5 -21.5t28.5 -56.5q0 -28 -19.5 -51.5t-53.5 -36.5v-7q92 -28 92 -94q0 -48 -61.5 -88.5 t-136.5 -40.5q-30 0 -43 17t-16 58z" />
<glyph horiz-adv-x="337" d="M9 357l2 52l170 239l5 1l71 -7v-221h50l7 -9l-7 -61l-49 1l4 -84l-7 -7l-90 -8l-5 7q3 50 4 95zM157 525l-71 -104h78v104h-7z" />
<glyph horiz-adv-x="305" d="M272 391q0 -52 -61 -95t-135 -43q-29 0 -42 17t-17 58l12 12q27 -11 59 -11q36 0 58 14.5t22 37.5q0 45 -119 53l-6 8l12 186l5 5l135 4q19 0 28 5.5t14 20.5l43 3l-18 -104l-10 -10q-62 5 -132 5l-4 -53q83 -12 119.5 -38.5t36.5 -74.5z" />
<glyph horiz-adv-x="329" d="M283 603q-4 -1 -11 -4t-26 -13t-35.5 -22.5t-35.5 -33t-31 -44.5l3 -6q33 17 49 20q51 0 81 -31.5t30 -80.5q0 -61 -40.5 -98t-108.5 -37q-61 0 -97.5 39t-36.5 103q0 55 24 101.5t59 73.5t69.5 46t58.5 26l24 7l8 -4zM166 434q-24 0 -47 -15q0 -4 -0.5 -13t-0.5 -14 q0 -76 50 -76q47 0 47 55q0 29 -13 46t-36 17z" />
<glyph horiz-adv-x="304" d="M152 254h-14l-69 20l-7 17l140 273l-78 -6q-30 -3 -40 -12.5t-16 -42.5l-46 -4q10 79 13 142l4 3q40 -3 81 -3h146l30 -37q-66 -134 -122 -268z" />
<glyph horiz-adv-x="336" d="M30 347q0 60 69 91q-62 40 -62 100q0 46 40 78.5t99 32.5q50 0 85 -26t35 -66q0 -55 -57 -86q65 -36 65 -95q0 -53 -42 -88t-105 -35q-55 0 -91 26t-36 68zM166 310q21 0 34 11.5t13 30.5q0 13 -12 25t-23.5 18.5t-37.5 18.5q-27 -20 -27 -50q0 -23 15 -38.5t38 -15.5z M127 552q0 -13 10 -24t22 -17.5t33 -15.5q20 22 20 46q0 22 -12 34.5t-32 12.5q-18 0 -29.5 -10.5t-11.5 -25.5z" />
<glyph horiz-adv-x="329" d="M47 300q4 1 10.5 4t25.5 13t35.5 22t36 32.5t31.5 44.5l-4 6q-34 -17 -49 -20q-51 0 -81 31.5t-30 80.5q0 61 40.5 98t109.5 37q61 0 97 -39t36 -103q0 -40 -13 -76t-33.5 -61t-45.5 -45.5t-50.5 -33.5t-46 -22t-33.5 -13l-13 -3l-7 4zM163 468q22 0 47 14q2 18 2 28 q0 37 -13.5 57t-37.5 20q-46 0 -46 -56q0 -63 48 -63z" />
<glyph horiz-adv-x="353" d="M169 -8q-67 0 -103.5 49.5t-36.5 140.5q0 95 42 151t114 56q67 0 103.5 -50t36.5 -140q0 -96 -41.5 -151.5t-114.5 -55.5zM180 91q79 0 79 94q0 49 -22.5 75t-64.5 26q-77 0 -77 -96q0 -47 22 -73t63 -26z" />
<glyph horiz-adv-x="265" d="M190 316q-8 -62 -8 -225q0 -43 29 -43l30 2l3 -4l-9 -49q-64 3 -98 3l-112 -7l5 46q31 3 45 14t14 34v197q0 22 -6.5 29t-25.5 7l-33 -2l-4 5l4 42q28 3 83 10q28 4 53 7.5t36 5.5l11 1l9 -24q-21 -15 -26 -49z" />
<glyph horiz-adv-x="352" d="M28 -6l-6 48l81 87q77 91 76 136q0 36 -42 36q-47 0 -86 -53h-10l-13 62q24 35 62.5 57t76.5 22q54 0 87 -26t33 -68q0 -41 -29.5 -90t-103.5 -129l3 -5h57q29 0 41.5 12.5t17.5 46.5l61 5q-14 -77 -18 -132l-11 -9q-157 6 -222 6z" />
<glyph horiz-adv-x="310" d="M22 67l12 12q28 -10 58 -10q36 0 58.5 14t22.5 36q0 44 -89 44l-7 8l-6 49l44 8q45 20 45 56q0 32 -36 32q-32 0 -72 -27h-8l-17 55q23 16 61 30.5t68 14.5q46 0 75 -22t29 -57q0 -28 -19.5 -51.5t-53.5 -36.5v-6q92 -29 92 -95q0 -48 -61.5 -88.5t-136.5 -40.5 q-30 0 -43 17t-16 58z" />
<glyph horiz-adv-x="337" d="M9 96l2 53l170 238l5 2l71 -8v-221h50l7 -8l-7 -62l-49 1l4 -84l-7 -7l-90 -7l-5 6q3 50 4 95zM157 264l-71 -104h78v104h-7z" />
<glyph horiz-adv-x="305" d="M272 130q0 -52 -61 -95t-135 -43q-29 0 -42 17t-17 58l12 12q28 -10 59 -10q36 0 58 14t22 37t-28 36t-91 17l-6 8l12 186l5 5l135 4q33 1 42 26l43 3l-18 -104l-10 -10q-62 5 -132 5l-4 -52q83 -13 119.5 -39.5t36.5 -74.5z" />
<glyph horiz-adv-x="329" d="M283 342q-4 -1 -11 -4t-26 -13t-35.5 -22.5t-35.5 -33t-31 -44.5l3 -6q27 15 49 20q51 0 81 -31.5t30 -80.5q0 -61 -40.5 -98t-108.5 -37q-61 0 -97.5 39t-36.5 104q0 40 13 75.5t33.5 60.5t46 46t50.5 34t45.5 22t33.5 13l13 3l8 -4zM166 173q-24 0 -47 -15 q0 -4 -0.5 -13t-0.5 -14q0 -76 50 -76q47 0 47 56q0 29 -13 45.5t-36 16.5z" />
<glyph horiz-adv-x="304" d="M152 -7h-14l-69 20l-7 17l140 273l-78 -6q-30 -2 -40 -12t-16 -43l-46 -4q10 79 13 143l4 3q40 -3 81 -3h146l30 -37q-66 -136 -122 -269z" />
<glyph horiz-adv-x="336" d="M30 86q0 62 69 91q-62 40 -62 100q0 46 40 79t99 33q50 0 85 -26.5t35 -66.5q0 -54 -57 -85q65 -38 65 -95q0 -53 -42 -88.5t-105 -35.5q-55 0 -91 26t-36 68zM166 50q21 0 34 11t13 30q0 14 -12.5 26t-23 17.5t-37.5 18.5q-27 -20 -27 -49q0 -23 15 -38.5t38 -15.5z M127 291q0 -13 10 -24t22 -17.5t33 -15.5q20 22 20 46q0 22 -12 34.5t-32 12.5q-18 0 -29.5 -10.5t-11.5 -25.5z" />
<glyph horiz-adv-x="329" d="M47 39q4 1 10.5 4t25.5 13t35.5 22t36 33t31.5 45l-4 5q-30 -15 -49 -20q-51 0 -81 31.5t-30 80.5q0 61 40.5 98.5t109.5 37.5q61 0 97 -39t36 -104q0 -40 -13 -75.5t-33.5 -60.5t-45.5 -46t-50.5 -34t-46 -22t-33.5 -12l-13 -4l-7 4zM163 207q20 0 47 15q2 18 2 27 q0 37 -13.5 57t-37.5 20q-46 0 -46 -56q0 -63 48 -63z" />
<glyph horiz-adv-x="341" d="M192 517v9q0 25 -14.5 39.5t-40.5 14.5q-17 0 -36.5 -7t-30.5 -15l-11 -7l-6 3l-14 44q96 52 128 52q62 0 91 -25.5t29 -65.5q0 -11 -6.5 -62t-6.5 -63q0 -25 21 -25q6 0 13.5 2.5t11.5 4.5l4 2l10 -16q-36 -62 -67 -71q-65 0 -70 50l-7 2q-49 -49 -74 -49 q-39 0 -66 29.5t-27 72.5q0 20 11 35t29 20zM189 418l2 59l-61 -15q-14 -4 -14 -19q0 -16 9 -26.5t23 -10.5q20 0 41 12z" />
<glyph horiz-adv-x="362" d="M49 718q0 22 -6 30t-23 8q-4 0 -9.5 -0.5t-7.5 -0.5l-2 4l4 40l153 22l5 -14q-13 -15 -18 -200q57 40 68 40q59 0 92.5 -38.5t33.5 -106.5q0 -75 -46.5 -121.5t-122.5 -46.5q-25 0 -54 3t-45 5l-16 3l-6 7v366zM142 404q20 -8 41 -8q54 0 54 80q0 48 -14.5 74.5 t-40.5 26.5q-22 0 -38 -14z" />
<glyph horiz-adv-x="308" d="M259 425l6 -2l13 -41q-61 -51 -105 -51q-70 0 -110 41t-40 113q0 73 46 119t120 46q24 0 45.5 -3.5t31.5 -6.5l10 -4l3 -7q-11 -49 -14 -105l-51 -3v22q0 43 -35 43q-52 0 -52 -75q0 -104 65 -104q16 0 32.5 4.5t25.5 8.5z" />
<glyph horiz-adv-x="375" d="M223 380q-63 -46 -74 -46q-59 0 -92.5 39t-33.5 107q0 75 46.5 121t122.5 46q19 0 27 -1v70q0 22 -6 30t-23 8l-16 -2l5 47q32 3 69.5 8.5t58.5 9.5l21 4l7 -12q-10 -14 -16.5 -122t-6.5 -253q0 -25 20 -25q5 0 11.5 2.5t10.5 4.5l3 2l11 -16q-31 -57 -71 -71 q-62 0 -70 48zM219 419v157q-17 9 -40 9q-54 0 -54 -81q0 -47 14.5 -73.5t40.5 -26.5q10 0 19.5 4t14.5 8z" />
<glyph horiz-adv-x="331" d="M124 526l75 4q11 1 11 14q0 45 -35 45q-48 0 -51 -63zM291 484h-166v-4q8 -76 76 -76q19 0 39 5t30 10l11 5l5 -3l12 -39q-67 -51 -119 -51q-74 0 -115 40.5t-41 113.5t45.5 119t117.5 46q117 0 117 -119l-4 -40z" />
<glyph horiz-adv-x="249" d="M23 585l-3 4l6 38l41 6v8q0 82 47 131t126 49q21 0 40 -3.5t28 -7.5l9 -3l4 -12q-12 -30 -24 -65l-9 -3q-28 26 -67 26q-33 0 -45.5 -20t-13.5 -72v-29l83 2l3 -4l-8 -49q-32 2 -79 2l-1 -166q0 -27 25 -27l41 1l2 -3l-6 -51q-73 2 -102 2l-95 -4l5 47q20 2 28.5 10.5 t8.5 25.5v141q-1 15 -9.5 19.5t-34.5 6.5z" />
<glyph horiz-adv-x="361" d="M170 421q-16 0 -42 4q-13 -9 -13 -19q0 -15 35.5 -19.5t77.5 -4t77.5 -18t35.5 -58.5q0 -47 -55.5 -85t-125.5 -38q-58 0 -92.5 25t-34.5 68q8 8 24.5 19t29.5 17l13 7v4q-31 4 -49.5 22.5t-18.5 44.5q8 9 22 20.5t24 17.5l10 7v6q-51 28 -51 90q0 53 40.5 86.5 t104.5 33.5q15 0 37 -3t32 -3q15 1 38.5 6.5t40.5 10.5l16 6l4 -4l-9 -57q-22 -2 -45 -3l-3 -4q27 -27 27 -63q0 -51 -41.5 -83.5t-108.5 -32.5zM181 472q41 0 41 60q0 62 -48 62q-39 0 -39 -60q0 -62 46 -62zM184 239q27 0 47 12t20 28q0 13 -16.5 18.5t-86.5 15.5 q-17 -18 -17 -37q0 -17 14.5 -27t38.5 -10z" />
<glyph horiz-adv-x="383" d="M17 337l6 47q17 1 23.5 9t6.5 25v300q0 22 -6 29.5t-24 7.5h-15l-3 4l4 40l153 22l6 -14q-15 -15 -20 -215q61 58 83 58q50 0 77 -22t27 -63q0 -13 -6.5 -75t-6.5 -77q0 -28 19 -28l19 1l1 -3l-6 -46q-52 2 -78 2l-78 -3l5 47q27 5 28 33l2 103q0 52 -37 52 q-20 0 -50 -23q-1 -42 -1 -137q0 -25 18 -25l13 1l2 -4l-6 -46q-50 2 -78 2z" />
<glyph horiz-adv-x="216" d="M112 703q-25 0 -38.5 14t-13.5 40q0 27 15.5 43t42.5 16q25 0 39 -14.5t14 -39.5q0 -26 -16 -42.5t-43 -16.5zM22 332l6 49q38 4 38 39v128q0 22 -6.5 29.5t-23.5 7.5l-15 -2l4 44l142 23l7 -13q-15 -29 -15 -227q0 -24 18 -24l18 1l2 -3l-7 -47q-52 2 -81 2z" />
<glyph horiz-adv-x="208" d="M37 180l-25 23l1 8q29 28 39 59t10 92v186q0 21 -5 29t-18 8l-21 -2l5 44l140 23l7 -13q-15 -33 -15 -307q0 -45 -32 -85t-86 -65zM108 703q-53 0 -53 54q0 26 16.5 42.5t42.5 16.5q25 0 39 -14.5t14 -39.5q0 -26 -16 -42.5t-43 -16.5z" />
<glyph horiz-adv-x="370" d="M17 336l6 47q19 2 24.5 11t5.5 32v292q0 31 -16 35q-5 2 -30 2l-2 6l4 38l153 22l6 -14q-22 -22 -22 -397q0 -25 18 -25h15l1 -3l-7 -45q-51 2 -78 2zM214 383l-61 109l3 17l56 58q13 13 13 21q0 13 -34 13l-2 3l6 39q48 -1 86 -1l75 2l2 -3l-6 -44q-8 -4 -16 -8.5 t-17 -11t-15 -11t-15.5 -13.5t-14 -13.5t-15.5 -15t-14 -13.5l50 -82q26 -42 62 -46l3 -6l-5 -39q-29 -6 -48 -7h-32q-36 5 -61 52z" />
<glyph horiz-adv-x="201" d="M16 335l6 47q19 4 25 13t6 31v292q0 31 -16 35q-5 2 -30 2l-2 6l4 38l153 22l6 -14q-22 -22 -22 -397q0 -25 18 -25h22l1 -3l-7 -45q-56 2 -85 2z" />
<glyph horiz-adv-x="578" d="M214 336l5 47q27 6 27 33l2 103q0 52 -37 52q-17 0 -46 -20q-7 -114 -7 -139q0 -14 4 -19.5t14 -5.5h15l1 -3l-7 -47q-48 2 -74 2l-86 -2l7 47q19 2 26.5 9t7.5 25v127q0 22 -6.5 30t-25.5 8h-10l-3 4l5 41l136 22l7 -7q-6 -24 -8 -46l2 -2q65 55 83 55q80 0 97 -56 q64 56 83 56q50 0 77 -22t27 -63q0 -13 -6.5 -75t-6.5 -77q0 -28 20 -28l18 1l1 -3l-6 -46q-53 2 -79 2l-74 -2l4 47q14 2 19.5 9t6.5 23l1 103q1 52 -37 52q-18 0 -45 -19l-9 -139q0 -28 19 -28l16 1l2 -3l-8 -46q-49 2 -75 2z" />
<glyph horiz-adv-x="354" d="M169 331q-67 0 -106.5 41t-39.5 111q0 76 44.5 121.5t118.5 45.5q69 0 107 -40t38 -111q0 -76 -44 -122t-118 -46zM180 390q46 0 46 76q0 119 -53 119q-46 0 -46 -76q0 -119 53 -119z" />
<glyph horiz-adv-x="379" d="M30 234q18 1 23.5 8.5t5.5 28.5q1 20 4 96v178q0 22 -6.5 30t-25.5 8h-10l-3 4l5 41l136 22l6 -7q-5 -23 -7 -44l3 -2q50 50 61 50q61 0 97 -39.5t36 -105.5q0 -79 -49 -123.5t-132 -44.5l-19 1v-56q0 -25 3.5 -33.5t17.5 -8.5q6 0 17 1t12 1l1 -3l-7 -48q-1 0 -37 1 t-53 1l-85 -3zM158 404q24 -8 42 -8q53 0 53 80q0 97 -54 97q-17 0 -37 -13q-4 -100 -4 -156z" />
<glyph horiz-adv-x="362" d="M163 188l5 47q30 2 39 9t10 31l2 102q-58 -43 -70 -43q-59 0 -92.5 38.5t-33.5 107.5q0 75 46.5 121t122.5 46q32 0 79 -6l47 18l9 -8q-15 -30 -15 -376q0 -23 3.5 -29.5t15.5 -6.5h18l1 -2l-4 -47h-96zM219 419v157q-17 9 -40 9q-54 0 -54 -81q0 -47 14.5 -73.5 t40.5 -26.5q10 0 19.5 4t14.5 8z" />
<glyph horiz-adv-x="302" d="M33 384q20 1 27 9t7 31v121q0 23 -6 30.5t-24 7.5h-11l-4 4l4 40l137 23l7 -7q-7 -31 -8 -57l5 -3q44 61 93 61l24 -2l4 -6q-12 -72 -15 -131l-52 -3q0 33 -4 44t-15 11q-18 0 -36 -21q-7 -111 -7 -121q0 -14 5.5 -20t18.5 -6l34 2l3 -4l-8 -50q-61 2 -95 2l-90 -3z" />
<glyph horiz-adv-x="292" d="M121 331q-25 0 -48 5t-34 10l-11 5l-6 8q6 29 10 85l44 3q1 -27 15.5 -43t39.5 -16q37 0 37 23q0 12 -11.5 20.5t-49.5 25.5q-77 34 -77 90q0 46 40 74.5t106 28.5q20 0 39.5 -3t28.5 -7l9 -3l5 -8q-8 -43 -13 -87l-44 -2v8q0 43 -42 43q-15 0 -24.5 -6.5t-9.5 -17.5 q0 -19 39 -38q59 -26 80 -46.5t21 -51.5q0 -43 -41 -71.5t-103 -28.5z" />
<glyph horiz-adv-x="240" d="M51 413v136q0 22 -7 29t-29 7l-8 6l5 38q29 13 60.5 31.5t49.5 31.5l17 12l21 -12q-5 -23 -9 -60l70 2l2 -4l-7 -49l-69 2q-4 -72 -4 -130q0 -48 38 -48q8 0 17 2t14 4l6 2l9 -24q-58 -58 -81 -58q-95 0 -95 82z" />
<glyph horiz-adv-x="384" d="M48 417l6 138q0 30 -21 30l-18 -2l5 45l134 22l7 -13q-18 -38 -18 -178q0 -47 36 -47q19 0 46 18v123q0 19 -5 24.5t-22 6.5h-9l7 43l134 21l7 -12q-19 -35 -19 -202q0 -25 21 -25q6 0 13 2.5t11 4.5l4 2l11 -15q-38 -60 -75 -72q-64 0 -72 50l-6 3q-50 -52 -65 -52 q-112 0 -112 85z" />
<glyph horiz-adv-x="336" d="M226 583q0 12 -18 12h-15l-2 4l5 44q45 -1 74 -1l63 1l-6 -47q-15 -2 -20.5 -8t-12.5 -25l-78 -224l-110 -9q-49 187 -63 233q-10 32 -40 33l-1 2l4 45q43 -1 67 -1l96 5l2 -4l-7 -46q-19 -2 -24 -5t-5 -11t8.5 -48t16.5 -76l8 -36h9q49 143 49 162z" />
<glyph horiz-adv-x="520" d="M409 583q0 12 -17 12h-16l-2 4l6 44q44 -1 73 -1l63 1l-6 -47q-15 -2 -20.5 -8t-12.5 -25l-77 -224l-105 -9q-3 17 -15 71t-17 76h-10l-39 -138l-108 -9q-49 187 -63 233q-9 31 -39 33l-1 2l5 45q41 -1 66 -1l95 5l2 -4l-7 -46q-19 -2 -24 -5t-5 -11t8.5 -48t16.5 -76 l8 -36h9q7 18 25.5 80t20.5 74q-2 12 -8 16t-24 4l-2 3l7 45q40 -1 65 -1l92 4l2 -3l-7 -46q-20 -3 -24.5 -5.5t-4.5 -10.5t8.5 -48t16.5 -76l8 -36h9q48 141 48 162z" />
<glyph horiz-adv-x="355" d="M275 339l-102 -3l-3 3l6 38q24 0 24 11q0 3 -8 16l-35 46q-40 -50 -40 -59q0 -12 23 -13l2 -4l-5 -38q-54 3 -70 3l-57 -2l-2 5l5 37q15 7 58 57l51 60l-42 56q-27 37 -67 44l-1 4l4 43q36 -1 82 -1l89 3l2 -5l-4 -40q-23 0 -23 -12q0 -8 14 -29l23 -30l27 36 q14 22 14 26q0 9 -22 9l-1 3l4 39h65l59 2l2 -4l-3 -41q-35 -21 -57 -48l-51 -68l46 -59q32 -40 64 -44l2 -2l-6 -40q-47 1 -67 1z" />
<glyph horiz-adv-x="334" d="M170 437h9q52 130 52 146q0 7 -3 9.5t-14 2.5h-17l-2 4l6 44q43 -1 73 -1h63l-6 -47q-14 -3 -20 -8.5t-12 -20.5l-84 -201q-75 -184 -165 -182q-12 0 -36 24t-24 36l6 10q91 11 135 78q-55 155 -93 237q-15 26 -38 27l-1 3l5 44h50q111 0 111 5l1 -4l-6 -46 q-29 -1 -29 -15q0 -9 9.5 -45t19.5 -68z" />
<glyph horiz-adv-x="322" d="M32 336l-15 24l162 233l-49 -5q-36 -3 -48 -13.5t-14 -42.5l-38 -4q6 72 7 115l5 4l87 -5l161 -1l10 -22q-87 -114 -165 -230l57 6q30 4 45 21t20 54l38 3q-11 -77 -11 -126l-10 -10l-204 3z" />
<glyph horiz-adv-x="783" d="M328 344l-48 -28q-6 -4 -9 -4q-6 0 -6 9v116h-74v-344h74v180q0 12 24 12q43 0 43 -56v-136h74v178q0 32 -22 52.5t-56 20.5zM435 320v-18h26q10 0 10 -10v-132q0 -32 22 -52.5t56 -20.5l63 37v25q-12 -4 -26 -4q-41 0 -41 57v90q0 10 10 10h58v36h-58q-10 0 -10 10v28 h-21zM180 -59q-80 0 -80 80v423q0 80 80 80h423q80 0 80 -80v-423q0 -80 -80 -80h-423z" />
<glyph horiz-adv-x="462" d="M0 0v462h462v-462h-462z" />
<glyph horiz-adv-x="642" d="M0 0v642h642v-642h-642z" />
<glyph horiz-adv-x="320" d="M230 406q-9 -157 -9 -297q0 -32 6 -42.5t25 -10.5l32 2l5 -6l-7 -54q-90 2 -127 2l-120 -6l6 56q35 7 46.5 19.5t11.5 45.5v289q0 25 -6 33t-23 8l-27 -1l-5 8l6 50q12 0 55 -0.5t65 -0.5l123 5l-5 -58q-31 -4 -40.5 -11.5t-11.5 -30.5zM158 560q-34 0 -52 20t-18 52 q0 35 22 57.5t58 22.5q33 0 51.5 -19.5t18.5 -52.5q0 -35 -22 -57.5t-58 -22.5z" />
</font>
</defs>
</svg>
